<svg xmlns="http://www.w3.org/2000/svg" width="133.208" height="133.283" viewBox="0 0 133.208 133.283">
  <g id="inspire-idea_14781822_1_" data-name="inspire-idea_14781822 (1)" transform="translate(1.016 0.75)">
    <g id="Grupo_1173811" data-name="Grupo 1173811">
      <path id="Trazado_1030754" data-name="Trazado 1030754" d="M118.589,365.044v-9.627a5.854,5.854,0,0,0,4.758-5.751V333.114h30.235v16.553a5.854,5.854,0,0,0,4.758,5.751l.823,8.292Z" transform="translate(-89.246 -246.912)" fill="#ca6e59"/>
      <path id="Trazado_1030755" data-name="Trazado 1030755" d="M97.886,33.556c0,19.048-10.251,41.675-36.346,34.19l-21.775-9.9A8.6,8.6,0,0,1,39.2,45.127l2.2-.606,1.52-1.512a9.085,9.085,0,0,1,1.821-15.585.8.8,0,0,0,.469-.932,8.625,8.625,0,0,1-.241-2.03,8.394,8.394,0,0,1,8.3-8.482,8.31,8.31,0,0,1,1.615.161,3.941,3.941,0,0,1,.627-.635A3.353,3.353,0,0,0,56.9,12.58a9.357,9.357,0,0,1,13.108-.925.79.79,0,0,0,1.184-.19,8.214,8.214,0,0,1,14.058,0,.79.79,0,0,0,1.187.189A9.325,9.325,0,0,1,88.3,10.415C97.886,13.32,97.886,26.683,97.886,33.556Z" transform="translate(-29.006 -7.5)" fill="#73788c"/>
      <path id="Trazado_1030756" data-name="Trazado 1030756" d="M188.89,56.523a8.534,8.534,0,0,1-3.105,6.613l-24.9,13.533H138.619l-7.979-3.63A39.118,39.118,0,0,0,157.4,15.709a9.266,9.266,0,0,1,4.215-1.009,9.394,9.394,0,0,1,7.029,3.174l.437,2.136,1.583,1.424a8.3,8.3,0,0,1,1.612-.161,8.4,8.4,0,0,1,8.3,8.482,8.671,8.671,0,0,1-.437,2.714A9.076,9.076,0,0,1,182.634,48.3,8.454,8.454,0,0,1,188.89,56.523Z" transform="translate(-98.107 -12.794)" fill="#5e6577"/>
      <path id="Trazado_1030757" data-name="Trazado 1030757" d="M110.476,212.389a14.494,14.494,0,0,0,11.041-14.076h0a5.763,5.763,0,0,0-5.763-5.764h-5.278l-58.059.007H47.138a5.763,5.763,0,0,0-5.763,5.764h0A14.494,14.494,0,0,0,52.416,212.4Z" transform="translate(-32.473 -143.56)" fill="#ca6e59"/>
      <path id="Trazado_1030758" data-name="Trazado 1030758" d="M127.039,131.287a5.735,5.735,0,0,1,7.488,2.467,23.022,23.022,0,0,0,1.92,2.918l1.251,1.665c.53,1.546,1.709,8.767,3.345,8.767v21.989a18.343,18.343,0,0,1-6.265,13.807l-11.391,9.969a12.227,12.227,0,0,1-8.051,3.023h-6.756a12.227,12.227,0,0,1-8.051-3.023L89.14,182.9a18.343,18.343,0,0,1-6.265-13.807V147.1a3.893,3.893,0,0,0,3.618-2.66L89,134.656a5.733,5.733,0,0,1,7.9-3.314l.366.175,2.951,1.131a32.673,32.673,0,0,0,23.381,0l2.951-1.131Z" transform="translate(-62.987 -98.113)" fill="#d78878"/>
      <path id="Trazado_1030759" data-name="Trazado 1030759" d="M174.632,305.411c-6.281,0-6.56-5.8-6.455-7.9a.792.792,0,0,1,.793-.751h11.3a.792.792,0,0,1,.794.77C181.121,299.649,180.706,305.411,174.632,305.411Z" transform="translate(-125.695 -220.182)" fill="#eaf6ff"/>
      <path id="Trazado_1030760" data-name="Trazado 1030760" d="M25.161,451.42l-16.617-.038a.793.793,0,0,1-.794-.794V435.833a.8.8,0,0,1,.426-.707,25.676,25.676,0,0,1,6.923-2.383l1.914-.384L33.9,438.623Z" transform="translate(-7.75 -319.884)" fill="#9be69d"/>
      <path id="Trazado_1030761" data-name="Trazado 1030761" d="M320.316,440.569l-6.41,10.46-22.127.016-8.006-14.02c.087-.09,16.185-5.144,16.185-5.144l1.093.209a25.684,25.684,0,0,1,7.235,2.547Z" transform="translate(-210.699 -319.531)" fill="#9be69d"/>
      <path id="Trazado_1030762" data-name="Trazado 1030762" d="M148.535,418.39l2.418,12.147-8.74,10.581-26.539.03-10.067-11.1,3.755-11.6A27.183,27.183,0,0,0,148.535,418.39Z" transform="translate(-79.701 -309.612)" fill="#eaf6ff"/>
      <path id="Trazado_1030763" data-name="Trazado 1030763" d="M66.3,426.247l-7.229-25.993a2.91,2.91,0,0,0-3.649-2l-16.07,4.9a1.259,1.259,0,0,0-.787,1.717l3.39,7.676a.8.8,0,0,0,.549.453l8.259,1.9a.794.794,0,0,1,.474,1.228l-4.482,6.423a.794.794,0,0,0-.1.723l1.08,2.983Z" transform="translate(-30.327 -294.711)" fill="#bbf49b"/>
      <path id="Trazado_1030764" data-name="Trazado 1030764" d="M243.879,426.048l7.238-26.024a2.908,2.908,0,0,1,3.649-2l16.07,4.9a1.263,1.263,0,0,1,.787,1.718l-3.39,7.677a.794.794,0,0,1-.549.453l-8.26,1.894a.794.794,0,0,0-.474,1.229l4.483,6.425a.794.794,0,0,1,.1.722l-1.084,3.021Z" transform="translate(-181.367 -294.543)" fill="#bbf49b"/>
      <g id="Grupo_1173808" data-name="Grupo 1173808" transform="translate(98.001 71.815)">
        <path id="Trazado_1030765" data-name="Trazado 1030765" d="M409.39,387.922V398.1a31.013,31.013,0,0,1-.7,6.172c-.41,1.49-1.711,3.172-2.508,4.512-1.6,2.7-.9,5.48-.891,8.62l-2.034,1.3H383.193V414.35a10.948,10.948,0,0,0-2.88-7.4,9.063,9.063,0,0,1-2.38-6.115v-4.387a5.369,5.369,0,0,1,2.293-4.4Z" transform="translate(-377.933 -359.025)" fill="#d78878"/>
        <g id="Grupo_1173807" data-name="Grupo 1173807" transform="translate(24.486 17.094)">
          <path id="Trazado_1030766" data-name="Trazado 1030766" d="M477.4,345.056v10.094a2.117,2.117,0,0,1-.85,1.895c-.635.635-2.868-.336-3.837-.328l-1.726-1.845-.558-6.562,1.832-1.414a3.55,3.55,0,0,1,3.457-3.545C476.88,343.781,477.4,344.381,477.4,345.056Z" transform="translate(-470.425 -343.348)" fill="#d78878"/>
          <path id="Trazado_1030767" data-name="Trazado 1030767" d="M485.707,346.887v7.977a3.553,3.553,0,0,1-6.425,2.086l-.228-.241a3.553,3.553,0,0,0,3.521-3.553v-7.969a3.53,3.53,0,0,0-.516-1.845c.032,0,.064,0,.1,0A3.55,3.55,0,0,1,485.707,346.887Z" transform="translate(-476.77 -343.34)" fill="#ca6e59"/>
        </g>
        <path id="Trazado_1030768" data-name="Trazado 1030768" d="M481.663,386.87v10.618a17.311,17.311,0,0,1-2.436,8.855,17.322,17.322,0,0,0-2.433,8.922l.007,1.871a.794.794,0,0,1-.794.8h-2.443l-.011-2.669a17.349,17.349,0,0,1,2.436-8.922,17.311,17.311,0,0,0,2.436-8.855V387.328Z" transform="translate(-448.239 -358.252)" fill="#ca6e59"/>
        <path id="Trazado_1030769" data-name="Trazado 1030769" d="M395.152,283.44v28.676c0,2.06-3.37,3.743-5.43,3.743l1.75-4.678-2.421-2.3V283.44a3.748,3.748,0,0,1,2.208-3.41C394.124,280.03,395.152,281.928,395.152,283.44Z" transform="translate(-386.108 -279.696)" fill="#d78878"/>
        <path id="Trazado_1030770" data-name="Trazado 1030770" d="M421.907,334.263v9.409c0,1.517-2.463,2.83-3.766,3.415a3.752,3.752,0,0,1-2.216-3.415l-.914-.2v-8.883l.914-.323a3.751,3.751,0,0,1,2.216-3.413C421.282,331.251,421.907,332.748,421.907,334.263Z" transform="translate(-405.195 -317.062)" fill="#d78878"/>
        <path id="Trazado_1030771" data-name="Trazado 1030771" d="M451.664,334.263v9.978c0,1.514-2.739,2.827-4.042,3.412a3.748,3.748,0,0,1-2.216-3.412l-.892-.569v-9l.892-.4a3.751,3.751,0,0,1,2.216-3.413C451.171,331.332,451.664,332.748,451.664,334.263Z" transform="translate(-426.888 -317.062)" fill="#d78878"/>
        <path id="Trazado_1030772" data-name="Trazado 1030772" d="M402.972,282.513v27.15c0,2.06-3.373,2.06-3.373,0v-27.15a3.753,3.753,0,0,0-2.205-3.41,3.686,3.686,0,0,1,1.535-.333h.3A3.753,3.753,0,0,1,402.972,282.513Z" transform="translate(-392.242 -278.77)" fill="#ca6e59"/>
        <path id="Trazado_1030773" data-name="Trazado 1030773" d="M432.407,333.343v9.409a3.756,3.756,0,0,1-3.743,3.746h-.3a3.658,3.658,0,0,1-1.527-.331,3.753,3.753,0,0,0,2.216-3.415v-9.409a3.752,3.752,0,0,0-2.216-3.413,3.658,3.658,0,0,1,1.527-.331h.3A3.755,3.755,0,0,1,432.407,333.343Z" transform="translate(-413.888 -316.143)" fill="#ca6e59"/>
        <path id="Trazado_1030774" data-name="Trazado 1030774" d="M461.827,333.343v9.978a3.756,3.756,0,0,1-3.746,3.743h-.3a3.647,3.647,0,0,1-1.528-.331,3.749,3.749,0,0,0,2.213-3.412v-9.978a3.752,3.752,0,0,0-2.213-3.413,3.648,3.648,0,0,1,1.528-.331h.3A3.757,3.757,0,0,1,461.827,333.343Z" transform="translate(-435.52 -316.143)" fill="#ca6e59"/>
        <path id="Trazado_1030775" data-name="Trazado 1030775" d="M415.337,369.754a8.049,8.049,0,0,1-.171,1.648c-.7,3.33-5.65,3.743-9.16,4.108,0,0-3.814-1.776-6.636-.9-2.1.649-3.417,4.02-3.448,4l-6.873-3.6v-3.385l6.635-4.771a7.434,7.434,0,0,1,4.248-1.383l11.017-.1A4.392,4.392,0,0,1,415.337,369.754Z" transform="translate(-386.107 -342.441)" fill="#ca6e59"/>
        <path id="Trazado_1030776" data-name="Trazado 1030776" d="M396.688,388.458l3.134-4.218a.8.8,0,0,1,.542-.315l6.773-.821a5.376,5.376,0,0,0,3.706-5.156,1.808,1.808,0,0,0-1.82-1.769h-9.966a6.728,6.728,0,0,0-3.86,1.215l-8.6,6.02Z" transform="translate(-384.302 -350.391)" fill="#d78878"/>
      </g>
      <g id="Grupo_1173810" data-name="Grupo 1173810" transform="translate(72.741 3.742)">
        <path id="Trazado_1030777" data-name="Trazado 1030777" d="M335.617,42.847c0,17.208-13.414,31.315-30.622,31.315-5.586,0-17.85-4.1-19.446-8.552l.3-1.218a.786.786,0,0,0-.069-.553,28.907,28.907,0,0,1,44.762-35C334.258,34.652,335.617,39.479,335.617,42.847Z" transform="translate(-282.517 -21.635)" fill="#eaf6ff"/>
        <path id="Trazado_1030778" data-name="Trazado 1030778" d="M340.694,76.67A28.952,28.952,0,0,1,297.3,95.157a.789.789,0,0,0-.561-.1l-11.921,2.271a.8.8,0,0,1-.921-.972l2.65-10.722a31.174,31.174,0,0,0,44.995-36.767A28.837,28.837,0,0,1,340.694,76.67Z" transform="translate(-283.516 -41.656)" fill="#d8ecfe"/>
        <g id="Grupo_1173809" data-name="Grupo 1173809" transform="translate(13.99 7.201)">
          <path id="Trazado_1030779" data-name="Trazado 1030779" d="M361.779,64.124c0,7.745-8.135,15.238-16.04,15.238-1.2,0-2.5.815-4.589-2.278a16.841,16.841,0,0,0-2.071-3.643,14.348,14.348,0,0,1,8.1-23.759C358.036,49.682,361.779,57.233,361.779,64.124Z" transform="translate(-335.361 -49.458)" fill="#ffe177"/>
          <path id="Trazado_1030780" data-name="Trazado 1030780" d="M378.915,63.185a14.3,14.3,0,0,1-3.651,9.56,17.324,17.324,0,0,0-3.474,10.33v.9l-14.445.047v-.792a24.249,24.249,0,0,0-1.776-7.893,14.529,14.529,0,0,0,3.476.418c7.9,0,14.752-5.147,14.752-12.893a14.107,14.107,0,0,0-11.764-13.8,14.359,14.359,0,0,1,16.882,14.125Z" transform="translate(-350.219 -48.837)" fill="#ffd15b"/>
          <path id="Trazado_1030781" data-name="Trazado 1030781" d="M372.69,179.51l2.246,4.386c0,2.38-1.426,4.386-6.552,4.386h-1.125a4.308,4.308,0,0,1-4.308-4.308V179.51h9.739Z" transform="translate(-355.647 -144.916)" fill="#5e6577"/>
          <path id="Trazado_1030782" data-name="Trazado 1030782" d="M392.129,179.511v4.463a4.308,4.308,0,0,1-4.308,4.308h-4.347a4.306,4.306,0,0,0,4.306-4.308v-4.463Z" transform="translate(-370.737 -144.917)" fill="#4d5263"/>
          <path id="Trazado_1030783" data-name="Trazado 1030783" d="M366.057,162.32c0,.953.578,2.034,0,2.661s-4.874,1.367-5.758,1.367H349.7a3.333,3.333,0,0,1-3.2-3.453,3.6,3.6,0,0,1,.936-2.444,3.083,3.083,0,0,1,2.263-1.011h10.6C362.066,159.439,366.057,160.411,366.057,162.32Z" transform="translate(-343.554 -130.159)" fill="#73788c"/>
          <path id="Trazado_1030784" data-name="Trazado 1030784" d="M407.613,162.894a3.593,3.593,0,0,1-.936,2.442,3.083,3.083,0,0,1-2.263,1.011h-5.8a3.079,3.079,0,0,0,2.263-1.011,3.593,3.593,0,0,0,.936-2.442,3.334,3.334,0,0,0-3.2-3.455h5.8A3.334,3.334,0,0,1,407.613,162.894Z" transform="translate(-381.866 -130.159)" fill="#5e6577"/>
        </g>
      </g>
    </g>
    <g id="Grupo_1173820" data-name="Grupo 1173820" transform="translate(0 0)">
      <g id="Grupo_1173812" data-name="Grupo 1173812" transform="translate(8.902 48.997)">
        <path id="Trazado_1030785" data-name="Trazado 1030785" d="M52.284,212.384a14.494,14.494,0,0,1-10.908-14.043h0a5.763,5.763,0,0,1,5.763-5.764h5.278" transform="translate(-41.376 -192.577)" fill="none" stroke="#000" stroke-linecap="round" stroke-linejoin="round" stroke-miterlimit="10" stroke-width="1.5"/>
        <path id="Trazado_1030786" data-name="Trazado 1030786" d="M313.146,232.041a14.518,14.518,0,0,1-10.089,9.341" transform="translate(-233.781 -221.593)" fill="none" stroke="#000" stroke-linecap="round" stroke-linejoin="round" stroke-miterlimit="10" stroke-width="1.5"/>
      </g>
      <path id="Trazado_1030787" data-name="Trazado 1030787" d="M209.872,134.488a32.668,32.668,0,0,0,7.1-1.839l2.951-1.131.49-.23a5.733,5.733,0,0,1,7.865,3.33" transform="translate(-156.363 -98.114)" fill="none" stroke="#000" stroke-linecap="round" stroke-linejoin="round" stroke-miterlimit="10" stroke-width="1.5"/>
      <path id="Trazado_1030788" data-name="Trazado 1030788" d="M141.044,157.9V169.2a18.343,18.343,0,0,1-6.265,13.807l-11.391,9.969A12.227,12.227,0,0,1,115.337,196h-6.756a12.227,12.227,0,0,1-8.051-3.024L89.14,183.009A18.342,18.342,0,0,1,82.875,169.2V147.212a3.894,3.894,0,0,0,3.618-2.66L89,134.765a5.733,5.733,0,0,1,7.9-3.315l.366.175,2.951,1.131a32.651,32.651,0,0,0,7.058,1.833" transform="translate(-62.987 -98.222)" fill="none" stroke="#000" stroke-linecap="round" stroke-linejoin="round" stroke-miterlimit="10" stroke-width="1.5"/>
      <g id="Grupo_1173814" data-name="Grupo 1173814" transform="translate(32.17 46.481)">
        <g id="Grupo_1173813" data-name="Grupo 1173813">
          <path id="Trazado_1030789" data-name="Trazado 1030789" d="M187.655,262.089a6.137,6.137,0,0,1-5.566,0" transform="translate(-168.105 -241.171)" fill="none" stroke="#000" stroke-linecap="round" stroke-linejoin="round" stroke-miterlimit="10" stroke-width="1.5"/>
          <path id="Trazado_1030790" data-name="Trazado 1030790" d="M139.445,184.377a10.588,10.588,0,0,0-10.179,0" transform="translate(-129.266 -183.073)" fill="none" stroke="#000" stroke-linecap="round" stroke-linejoin="round" stroke-miterlimit="10" stroke-width="1.5"/>
          <path id="Trazado_1030791" data-name="Trazado 1030791" d="M227.665,184.377a10.588,10.588,0,0,0-10.179,0" transform="translate(-194.131 -183.073)" fill="none" stroke="#000" stroke-linecap="round" stroke-linejoin="round" stroke-miterlimit="10" stroke-width="1.5"/>
          <line id="Línea_813" data-name="Línea 813" y1="4.51" transform="translate(28.445 7.644)" fill="none" stroke="#000" stroke-linecap="round" stroke-linejoin="round" stroke-miterlimit="10" stroke-width="1.5"/>
          <line id="Línea_814" data-name="Línea 814" y1="4.51" transform="translate(5.09 7.644)" fill="none" stroke="#000" stroke-linecap="round" stroke-linejoin="round" stroke-miterlimit="10" stroke-width="1.5"/>
        </g>
        <path id="Trazado_1030792" data-name="Trazado 1030792" d="M174.632,305.411c-7.673,0-6.389-8.651-6.389-8.651h12.778S182.075,305.411,174.632,305.411Z" transform="translate(-157.865 -266.663)" fill="none" stroke="#000" stroke-linecap="round" stroke-linejoin="round" stroke-miterlimit="10" stroke-width="1.5"/>
      </g>
      <path id="Trazado_1030793" data-name="Trazado 1030793" d="M109.5,18.95a8.185,8.185,0,0,0-7.926-2.807,9.529,9.529,0,0,0-9.048-6.736,9.377,9.377,0,0,0-6.8,2.926,8.232,8.232,0,0,0-14.994,0,9.377,9.377,0,0,0-6.8-2.926,9.528,9.528,0,0,0-9.048,6.736,8.181,8.181,0,0,0-1.615-.161,8.393,8.393,0,0,0-8.3,8.481,8.631,8.631,0,0,0,.437,2.713A9.078,9.078,0,0,0,42.918,43.01a8.554,8.554,0,0,0-3.15,14.832" transform="translate(-29.009 -7.5)" fill="none" stroke="#000" stroke-linecap="round" stroke-linejoin="round" stroke-miterlimit="10" stroke-width="1.5"/>
      <path id="Trazado_1030794" data-name="Trazado 1030794" d="M64.074,143.16a8.31,8.31,0,0,1-3.747-1.519" transform="translate(-46.408 -106.129)" fill="none" stroke="#000" stroke-linecap="round" stroke-linejoin="round" stroke-miterlimit="10" stroke-width="1.5"/>
      <path id="Trazado_1030795" data-name="Trazado 1030795" d="M105.6,40.2a7.879,7.879,0,0,1,4.994,3.318" transform="translate(-79.696 -31.542)" fill="none" stroke="#000" stroke-linecap="round" stroke-linejoin="round" stroke-miterlimit="10" stroke-width="1.5"/>
      <path id="Trazado_1030796" data-name="Trazado 1030796" d="M270.557,40.183a7.891,7.891,0,0,0-4.011,3.056" transform="translate(-198.033 -31.531)" fill="none" stroke="#000" stroke-linecap="round" stroke-linejoin="round" stroke-miterlimit="10" stroke-width="1.5"/>
      <path id="Trazado_1030797" data-name="Trazado 1030797" d="M338.474,53.95q-.133.839-.316,1.679A29.8,29.8,0,0,1,293.22,74.495l-13.835,2.637L282.8,63.3A29.726,29.726,0,0,1,304.071,20" transform="translate(-207.407 -16.692)" fill="none" stroke="#000" stroke-linecap="round" stroke-linejoin="round" stroke-miterlimit="10" stroke-width="1.5"/>
      <path id="Trazado_1030798" data-name="Trazado 1030798" d="M407.545,19.544q1.068.152,2.14.384a29.76,29.76,0,0,1,23.094,24.42" transform="translate(-301.705 -16.356)" fill="none" stroke="#000" stroke-linecap="round" stroke-linejoin="round" stroke-miterlimit="10" stroke-width="1.5"/>
      <g id="Grupo_1173815" data-name="Grupo 1173815" transform="translate(86.729 10.95)">
        <path id="Trazado_1030799" data-name="Trazado 1030799" d="M341.591,77.648a16.922,16.922,0,0,0-2.525-4.858,14.333,14.333,0,1,1,21.307-.073,17.676,17.676,0,0,0-2.568,4.873" transform="translate(-335.355 -48.863)" fill="none" stroke="#000" stroke-linecap="round" stroke-linejoin="round" stroke-miterlimit="10" stroke-width="1.5"/>
        <line id="Línea_815" data-name="Línea 815" y1="10.537" transform="translate(14.333 18.191)" fill="none" stroke="#000" stroke-linecap="round" stroke-linejoin="round" stroke-miterlimit="10" stroke-width="1.5"/>
        <path id="Trazado_1030800" data-name="Trazado 1030800" d="M376.99,186.134v1.631a5.3,5.3,0,0,1-5.295,5.295h-3.482a5.3,5.3,0,0,1-5.295-5.295v-1.631" transform="translate(-355.621 -149.793)" fill="none" stroke="#000" stroke-linecap="round" stroke-linejoin="round" stroke-miterlimit="10" stroke-width="1.5"/>
        <path id="Trazado_1030801" data-name="Trazado 1030801" d="M366.755,165.056H352.491a3.624,3.624,0,0,1-3.624-3.624v-.214a3.624,3.624,0,0,1,3.624-3.624h14.264a3.624,3.624,0,0,1,3.624,3.624v.214A3.624,3.624,0,0,1,366.755,165.056Z" transform="translate(-345.29 -128.81)" fill="none" stroke="#000" stroke-linecap="round" stroke-linejoin="round" stroke-miterlimit="10" stroke-width="1.5"/>
        <line id="Línea_816" data-name="Línea 816" x2="9.176" transform="translate(9.936 18.168)" fill="none" stroke="#000" stroke-linecap="round" stroke-linejoin="round" stroke-miterlimit="10" stroke-width="1.5"/>
      </g>
      <path id="Trazado_1030802" data-name="Trazado 1030802" d="M346.53,432.2l.665.127a25.636,25.636,0,0,1,7.234,2.547" transform="translate(-256.843 -319.763)" fill="none" stroke="#000" stroke-linecap="round" stroke-linejoin="round" stroke-miterlimit="10" stroke-width="1.5"/>
      <path id="Trazado_1030803" data-name="Trazado 1030803" d="M250.768,358.351v9.872a5.854,5.854,0,0,0,4.758,5.751" transform="translate(-186.432 -265.468)" fill="none" stroke="#000" stroke-linecap="round" stroke-linejoin="round" stroke-miterlimit="10" stroke-width="1.5"/>
      <path id="Trazado_1030804" data-name="Trazado 1030804" d="M118.589,417.362h0a27.188,27.188,0,0,0,39.75,0h0" transform="translate(-89.246 -308.856)" fill="none" stroke="#000" stroke-linecap="round" stroke-linejoin="round" stroke-miterlimit="10" stroke-width="1.5"/>
      <path id="Trazado_1030805" data-name="Trazado 1030805" d="M16.141,378.118l-1.041.209a25.635,25.635,0,0,0-7.35,2.609m34.1-22.585v9.872a5.854,5.854,0,0,1-4.758,5.751l-.3.058" transform="translate(-7.75 -265.468)" fill="none" stroke="#000" stroke-linecap="round" stroke-linejoin="round" stroke-miterlimit="10" stroke-width="1.5"/>
      <g id="Grupo_1173816" data-name="Grupo 1173816" transform="translate(7.4 103.412)">
        <path id="Trazado_1030806" data-name="Trazado 1030806" d="M60.473,415.191l-4.154-14.937a2.91,2.91,0,0,0-3.649-2l-16.07,4.9a1.259,1.259,0,0,0-.787,1.717l3.551,8.04,9.795,2.247-5.39,7.725,1.222,3.408" transform="translate(-35.703 -398.124)" fill="none" stroke="#000" stroke-linecap="round" stroke-linejoin="round" stroke-miterlimit="10" stroke-width="1.5"/>
        <line id="Línea_817" data-name="Línea 817" x1="0.603" y1="2.168" transform="translate(27.252 25.994)" fill="none" stroke="#000" stroke-linecap="round" stroke-linejoin="round" stroke-miterlimit="10" stroke-width="1.5"/>
        <path id="Trazado_1030807" data-name="Trazado 1030807" d="M244.868,426.286l7.241-26.032a2.908,2.908,0,0,1,3.649-2l16.07,4.9a1.263,1.263,0,0,1,.787,1.718l-3.551,8.041-9.8,2.246,5.391,7.727-1.222,3.407" transform="translate(-189.495 -398.125)" fill="none" stroke="#000" stroke-linecap="round" stroke-linejoin="round" stroke-miterlimit="10" stroke-width="1.5"/>
      </g>
      <g id="Grupo_1173819" data-name="Grupo 1173819" transform="translate(98.018 71.891)">
        <g id="Grupo_1173817" data-name="Grupo 1173817" transform="translate(26.318 17.094)">
          <path id="Trazado_1030808" data-name="Trazado 1030808" d="M484.517,347.174a3.548,3.548,0,0,0-3.548-3.548h0a3.553,3.553,0,0,0-3.553,3.552v7.968a3.553,3.553,0,0,0,3.553,3.552h0a3.553,3.553,0,0,0,3.552-3.552Z" transform="translate(-477.412 -343.626)" fill="none" stroke="#000" stroke-linecap="round" stroke-linejoin="round" stroke-miterlimit="10" stroke-width="1.5"/>
          <path id="Trazado_1030809" data-name="Trazado 1030809" d="M490.831,400.563" transform="translate(-487.279 -385.49)" fill="none" stroke="#000" stroke-linecap="round" stroke-linejoin="round" stroke-miterlimit="10" stroke-width="1.5"/>
        </g>
        <g id="Grupo_1173818" data-name="Grupo 1173818" transform="translate(28.554 28.717)">
          <path id="Trazado_1030810" data-name="Trazado 1030810" d="M490.727,387.53v10.617a17.245,17.245,0,0,1-2.435,8.759h0a17.331,17.331,0,0,0-2.435,8.921l.01,2.669" transform="translate(-485.858 -387.53)" fill="none" stroke="#000" stroke-linecap="round" stroke-linejoin="round" stroke-miterlimit="10" stroke-width="1.5"/>
        </g>
        <path id="Trazado_1030811" data-name="Trazado 1030811" d="M433.859,414.75a14.524,14.524,0,0,1,3.1,13.28l-.11.424" transform="translate(-419.071 -378.827)" fill="none" stroke="#000" stroke-linecap="round" stroke-linejoin="round" stroke-miterlimit="10" stroke-width="1.5"/>
        <path id="Trazado_1030812" data-name="Trazado 1030812" d="M389.115,311.458V282.8a3.755,3.755,0,0,1,3.744-3.744h.3A3.755,3.755,0,0,1,396.9,282.8v23.285" transform="translate(-386.172 -279.057)" fill="none" stroke="#000" stroke-linecap="round" stroke-linejoin="round" stroke-miterlimit="10" stroke-width="1.5"/>
        <path id="Trazado_1030813" data-name="Trazado 1030813" d="M418.532,333.637a3.755,3.755,0,0,1,3.744-3.744h.3a3.755,3.755,0,0,1,3.744,3.744v8.522" transform="translate(-407.801 -316.435)" fill="none" stroke="#000" stroke-linecap="round" stroke-linejoin="round" stroke-miterlimit="10" stroke-width="1.5"/>
        <path id="Trazado_1030814" data-name="Trazado 1030814" d="M447.947,342.067v-8.43a3.755,3.755,0,0,1,3.744-3.744h.3a3.755,3.755,0,0,1,3.744,3.744v3.574" transform="translate(-429.429 -316.435)" fill="none" stroke="#000" stroke-linecap="round" stroke-linejoin="round" stroke-miterlimit="10" stroke-width="1.5"/>
        <path id="Trazado_1030815" data-name="Trazado 1030815" d="M390.384,388.747l3.338-4.491,6.688-.862a5.375,5.375,0,0,0,3.706-5.107,1.82,1.82,0,0,0-1.82-1.818h-9.543a6.727,6.727,0,0,0-3.86,1.215l-8.6,6.02A5.373,5.373,0,0,0,378,388.1v4.386a9.051,9.051,0,0,0,2.381,6.115,10.952,10.952,0,0,1,2.88,7.4v4.357" transform="translate(-377.999 -350.68)" fill="none" stroke="#000" stroke-linecap="round" stroke-linejoin="round" stroke-miterlimit="10" stroke-width="1.5"/>
      </g>
    </g>
  </g>
</svg>
