<svg xmlns="http://www.w3.org/2000/svg" xmlns:xlink="http://www.w3.org/1999/xlink" width="108" height="108" viewBox="0 0 108 108">
  <defs>
    <filter id="Trazado_904820" x="0" y="0" width="108" height="108" filterUnits="userSpaceOnUse">
      <feOffset dy="3" input="SourceAlpha"/>
      <feGaussianBlur stdDeviation="3" result="blur"/>
      <feFlood flood-opacity="0.161"/>
      <feComposite operator="in" in2="blur"/>
      <feComposite in="SourceGraphic"/>
    </filter>
  </defs>
  <g id="Grupo_1230700" data-name="Grupo 1230700" transform="translate(-620 -717)">
    <g id="Grupo_1230498" data-name="Grupo 1230498" transform="translate(629 723)">
      <g id="Grupo_1230365" data-name="Grupo 1230365" transform="translate(0 0)">
        <g id="Grupo_1229419" data-name="Grupo 1229419" transform="translate(0)">
          <g id="Grupo_1211546" data-name="Grupo 1211546">
            <g id="Grupo_1173585" data-name="Grupo 1173585">
              <g id="Grupo_1173428" data-name="Grupo 1173428">
                <g id="Grupo_1171958" data-name="Grupo 1171958">
                  <g id="Grupo_1167341" data-name="Grupo 1167341">
                    <g id="Grupo_1166792" data-name="Grupo 1166792">
                      <g transform="matrix(1, 0, 0, 1, -9, -6)" filter="url(#Trazado_904820)">
                        <g id="Trazado_904820-2" data-name="Trazado 904820" transform="translate(9 6)" fill="#eaf5f4">
                          <path d="M 44.99999618530273 88.50003051757812 C 39.12687301635742 88.50003051757812 33.43022155761719 87.35010528564453 28.06829643249512 85.08219146728516 C 22.88852119445801 82.89134216308594 18.23629570007324 79.75461578369141 14.24084663391113 75.75916290283203 C 10.24540901184082 71.76371765136719 7.108683586120605 67.11148834228516 4.917821407318115 61.93172836303711 C 2.649921178817749 56.56978988647461 1.499996185302734 50.87314987182617 1.499996185302734 45.00002670288086 C 1.499996185302734 39.12690353393555 2.649921178817749 33.43025207519531 4.917821407318115 28.06832695007324 C 7.108683586120605 22.88855171203613 10.24540901184082 18.23632621765137 14.24084663391113 14.24087715148926 C 18.23629570007324 10.24543952941895 22.88852119445801 7.10871410369873 28.06829643249512 4.91785192489624 C 33.43022155761719 2.649951696395874 39.12687301635742 1.500026702880859 44.99999618530273 1.500026702880859 C 50.87311935424805 1.500026702880859 56.56977081298828 2.649951696395874 61.93169784545898 4.91785192489624 C 67.11147308349609 7.10871410369873 71.76369476318359 10.24543952941895 75.75914764404297 14.24087715148926 C 79.75458526611328 18.23632621765137 82.89131164550781 22.88855171203613 85.08216857910156 28.06832695007324 C 87.35007476806641 33.43025207519531 88.5 39.12690353393555 88.5 45.00002670288086 C 88.5 50.87314987182617 87.35007476806641 56.56978988647461 85.08216857910156 61.93172836303711 C 82.89131164550781 67.11148834228516 79.75458526611328 71.76371765136719 75.75914764404297 75.75916290283203 C 71.76369476318359 79.75461578369141 67.11147308349609 82.89134216308594 61.93169784545898 85.08219146728516 C 56.56977081298828 87.35010528564453 50.87311935424805 88.50003051757812 44.99999618530273 88.50003051757812 Z" stroke="none"/>
                          <path d="M 44.99999618530273 3.000022888183594 C 39.32870864868164 3.000022888183594 33.82865142822266 4.110084533691406 28.65262603759766 6.299369812011719 C 23.65165710449219 8.414596557617188 19.15968322753906 11.44336700439453 15.301513671875 15.30154418945312 C 11.44333648681641 19.15971374511719 8.414566040039062 23.65168762207031 6.299339294433594 28.65265655517578 C 4.110054016113281 33.82868194580078 2.999992370605469 39.32873916625977 2.999992370605469 45.00002670288086 C 2.999992370605469 50.67131423950195 4.110054016113281 56.17135620117188 6.299339294433594 61.34739685058594 C 8.414566040039062 66.34837341308594 11.44333648681641 70.84032440185547 15.301513671875 74.69850921630859 C 19.15968322753906 78.55668640136719 23.65165710449219 81.58545684814453 28.65262603759766 83.70068359375 C 33.82865142822266 85.88996887207031 39.32870864868164 87.00003051757812 44.99999618530273 87.00003051757812 C 50.67128372192383 87.00003051757812 56.17134094238281 85.88996887207031 61.34736633300781 83.70068359375 C 66.34834289550781 81.58545684814453 70.84030914306641 78.55668640136719 74.69847869873047 74.69850921630859 C 78.55665588378906 70.84032440185547 81.58542633056641 66.34837341308594 83.70065307617188 61.34739685058594 C 85.88993835449219 56.17135620117188 87 50.67131423950195 87 45.00002670288086 C 87 39.32873916625977 85.88993835449219 33.82868194580078 83.70065307617188 28.65265655517578 C 81.58542633056641 23.65168762207031 78.55665588378906 19.15971374511719 74.69847869873047 15.30154418945312 C 70.84030914306641 11.44336700439453 66.34834289550781 8.414596557617188 61.34736633300781 6.299369812011719 C 56.17134094238281 4.110084533691406 50.67128372192383 3.000022888183594 44.99999618530273 3.000022888183594 M 44.99999618530273 2.288818359375e-05 C 69.85281372070312 2.288818359375e-05 90 20.14720916748047 90 45.00002670288086 C 90 69.85282897949219 69.85281372070312 90.00003051757812 44.99999618530273 90.00003051757812 C 20.14717864990234 90.00003051757812 -7.62939453125e-06 69.85282897949219 -7.62939453125e-06 45.00002670288086 C -7.62939453125e-06 20.14720916748047 20.14717864990234 2.288818359375e-05 44.99999618530273 2.288818359375e-05 Z" stroke="none" fill="#41a599"/>
                        </g>
                      </g>
                    </g>
                  </g>
                </g>
              </g>
            </g>
          </g>
        </g>
      </g>
    </g>
    <g id="dna-test_12148345" transform="translate(598.721 681.112)">
      <g id="Grupo_1230656" data-name="Grupo 1230656" transform="translate(53.445 59.156)">
        <path id="Trazado_1176125" data-name="Trazado 1176125" d="M123.187,118.927H81.571V63.463H113.4l9.788,9.361Z" transform="translate(-81.571 -63.463)" fill="#e5ffff"/>
      </g>
      <g id="Grupo_1230657" data-name="Grupo 1230657" transform="translate(53.445 81.616)">
        <path id="Trazado_1176126" data-name="Trazado 1176126" d="M123.187,225.571c-9.983,15.146-31.637,17.1-41.616,17.15v15.854h41.616Z" transform="translate(-81.571 -225.571)" fill="#cae7ee"/>
      </g>
      <g id="Grupo_1230658" data-name="Grupo 1230658" transform="translate(85.273 59.156)">
        <path id="Trazado_1176127" data-name="Trazado 1176127" d="M311.29,63.463l9.788,9.361H311.29Z" transform="translate(-311.29 -63.463)" fill="#e5ffff"/>
      </g>
      <g id="Grupo_1230659" data-name="Grupo 1230659" transform="translate(68.588 58.463)">
        <path id="Trazado_1176128" data-name="Trazado 1176128" d="M193.12,59.849h-1.562a.693.693,0,1,1,0-1.386h1.562a.693.693,0,0,1,0,1.386Z" transform="translate(-190.866 -58.464)" fill="#231f20"/>
      </g>
      <g id="Grupo_1230660" data-name="Grupo 1230660" transform="translate(52.752 58.463)">
        <path id="Trazado_1176129" data-name="Trazado 1176129" d="M118.88,115.313H77.264a.693.693,0,0,1-.693-.693V59.157a.693.693,0,0,1,.693-.693h9.795a.693.693,0,0,1,0,1.386h-9.1v54.078h40.231V68.814l-9.374-8.965h-8.36a.693.693,0,1,1,0-1.386h8.638a.693.693,0,0,1,.479.192l9.788,9.361a.693.693,0,0,1,.214.5v46.1a.693.693,0,0,1-.693.693Z" transform="translate(-76.571 -58.464)" fill="#231f20"/>
      </g>
      <g id="Grupo_1230661" data-name="Grupo 1230661" transform="translate(84.58 58.463)">
        <path id="Trazado_1176130" data-name="Trazado 1176130" d="M316.772,69.21h-9.788a.693.693,0,0,1-.693-.693V59.156a.693.693,0,0,1,1.172-.5l9.788,9.361a.693.693,0,0,1-.479,1.193Zm-9.1-1.386h7.369l-7.369-7.048Z" transform="translate(-306.29 -58.463)" fill="#231f20"/>
      </g>
      <g id="Grupo_1230677" data-name="Grupo 1230677" transform="translate(48.921 64.628)">
        <g id="Grupo_1230662" data-name="Grupo 1230662" transform="translate(4.48 17.503)">
          <path id="Trazado_1176131" data-name="Trazado 1176131" d="M81.255,235.091c0,2.617,2,4.052,5.358,5.811,3.359-1.759,5.357-3.193,5.357-5.811s-2-4.052-5.357-5.811C83.254,231.039,81.255,232.473,81.255,235.091Z" transform="translate(-81.255 -229.28)" fill="none"/>
        </g>
        <g id="Grupo_1230663" data-name="Grupo 1230663" transform="translate(0.693 0.693)">
          <path id="Trazado_1176132" data-name="Trazado 1176132" d="M63.066,120.3c-3.346-1.715-5.357-2.987-5.357-5.153v-5.176a1.9,1.9,0,1,0-3.787,0v5.176a7.581,7.581,0,0,0,2.854,5.9,15.432,15.432,0,0,0,2.143,1.52,40.55,40.55,0,0,1,3.631-2Z" transform="translate(-53.921 -107.956)" fill="#00cbcb"/>
        </g>
        <g id="Grupo_1230664" data-name="Grupo 1230664" transform="translate(9.837 31.326)">
          <path id="Trazado_1176133" data-name="Trazado 1176133" d="M119.923,331.318c3.346,1.715,5.357,2.987,5.357,5.153v5.176a1.9,1.9,0,1,0,3.787,0v-5.176a7.581,7.581,0,0,0-2.854-5.9,15.439,15.439,0,0,0-2.143-1.52,40.541,40.541,0,0,1-3.631,2Z" transform="translate(-119.923 -329.052)" fill="#ffe58c"/>
        </g>
        <g id="Grupo_1230665" data-name="Grupo 1230665" transform="translate(0.693 0.693)">
          <path id="Trazado_1176134" data-name="Trazado 1176134" d="M70.317,107.955a1.956,1.956,0,0,0-1.894,2.012v5.176c0,2.166-2.012,3.438-5.357,5.153l-.517.263a40.548,40.548,0,0,0-3.631,2c-2.694,1.732-5,4.1-5,8.013s2.3,6.281,5,8.013c.976-.587,2.014-1.113,3.034-1.63q.579-.293,1.113-.572c-3.359-1.759-5.357-3.193-5.357-5.811s2-4.052,5.357-5.811q.534-.28,1.113-.572c1.02-.517,2.058-1.043,3.034-1.63a15.433,15.433,0,0,0,2.143-1.52,7.581,7.581,0,0,0,2.854-5.9v-5.176a1.956,1.956,0,0,0-1.894-2.012Z" transform="translate(-53.921 -107.955)" fill="#ffe58c"/>
        </g>
        <g id="Grupo_1230666" data-name="Grupo 1230666" transform="translate(0.693 15.3)">
          <path id="Trazado_1176135" data-name="Trazado 1176135" d="M67.213,213.385c-.976.587-2.014,1.113-3.034,1.63q-.579.293-1.113.572c3.359,1.759,5.357,3.193,5.357,5.811s-2,4.052-5.357,5.811q-.534.28-1.113.572c-1.02.517-2.058,1.043-3.034,1.63a15.433,15.433,0,0,0-2.143,1.52,7.581,7.581,0,0,0-2.854,5.9v5.176a1.9,1.9,0,1,0,3.787,0V236.83c0-2.166,2.012-3.438,5.357-5.153l.517-.263a40.547,40.547,0,0,0,3.631-2c2.694-1.732,5-4.1,5-8.013S69.907,215.117,67.213,213.385Z" transform="translate(-53.92 -213.385)" fill="#00cbcb"/>
        </g>
        <g id="Grupo_1230667" data-name="Grupo 1230667" transform="translate(0 0)">
          <path id="Trazado_1176136" data-name="Trazado 1176136" d="M54.611,118.948a.693.693,0,0,1-.357-.1,16.049,16.049,0,0,1-2.239-1.589,8.246,8.246,0,0,1-3.094-6.423V105.66a2.589,2.589,0,1,1,5.173,0v5.176c0,1.687,1.606,2.807,4.981,4.537a.693.693,0,0,1,0,1.233l-.519.265a40.236,40.236,0,0,0-3.569,1.967A.693.693,0,0,1,54.611,118.948Zm-3.1-14.608a1.266,1.266,0,0,0-1.2,1.319v5.176a6.917,6.917,0,0,0,2.614,5.375,13.869,13.869,0,0,0,1.686,1.228c.878-.541,1.787-1.022,2.642-1.459-2.713-1.464-4.54-2.84-4.54-5.144V105.66A1.266,1.266,0,0,0,51.507,104.341Z" transform="translate(-48.921 -102.955)" fill="#231f20"/>
        </g>
        <g id="Grupo_1230668" data-name="Grupo 1230668" transform="translate(9.145 30.633)">
          <path id="Trazado_1176137" data-name="Trazado 1176137" d="M122.867,340.045a2.651,2.651,0,0,1-2.586-2.7v-5.176c0-1.687-1.606-2.807-4.981-4.537a.693.693,0,0,1,0-1.233l.519-.265a40.222,40.222,0,0,0,3.569-1.967.694.694,0,0,1,.732-.011,16.029,16.029,0,0,1,2.239,1.589,8.246,8.246,0,0,1,3.094,6.423v5.176A2.651,2.651,0,0,1,122.867,340.045Zm-5.741-13.025c2.713,1.464,4.54,2.841,4.54,5.144v5.176a1.206,1.206,0,1,0,2.4,0v-5.176a6.917,6.917,0,0,0-2.614-5.375,13.854,13.854,0,0,0-1.686-1.228C118.889,326.1,117.98,326.582,117.126,327.02Z" transform="translate(-114.923 -324.052)" fill="#231f20"/>
        </g>
        <g id="Grupo_1230669" data-name="Grupo 1230669" transform="translate(0 0)">
          <path id="Trazado_1176138" data-name="Trazado 1176138" d="M54.611,134.974a.693.693,0,0,1-.375-.11c-2.282-1.467-5.315-3.955-5.315-8.6s3.034-7.128,5.315-8.6a41.349,41.349,0,0,1,3.692-2.038l.514-.262c4.235-2.171,4.981-3.192,4.981-4.536V105.66a2.589,2.589,0,1,1,5.173,0v5.176A8.246,8.246,0,0,1,65.5,117.26a16.051,16.051,0,0,1-2.239,1.589c-1,.6-2.056,1.136-3.078,1.654q-.575.291-1.105.568c-4.215,2.207-4.986,3.482-4.986,5.2,0,2.186,1.679,3.465,4.986,5.2a.693.693,0,0,1,0,1.227q-.538.282-1.122.577c-1,.507-2.034,1.03-2.99,1.606a.692.692,0,0,1-.357.1Zm11.4-30.633a1.266,1.266,0,0,0-1.2,1.32v5.176c0,2.628-2.377,4.049-5.734,5.77l-.519.265a40.236,40.236,0,0,0-3.569,1.967c-3.236,2.081-4.679,4.372-4.679,7.43,0,2.944,1.337,5.178,4.325,7.2.866-.5,1.765-.958,2.64-1.4-2.586-1.449-4.563-3.032-4.563-5.8,0-3.167,2.594-4.783,5.729-6.424q.538-.282,1.122-.577c1-.507,2.034-1.03,2.99-1.606a14.7,14.7,0,0,0,2.047-1.45,6.918,6.918,0,0,0,2.614-5.375V105.66A1.266,1.266,0,0,0,66.009,104.341Z" transform="translate(-48.921 -102.955)" fill="#231f20"/>
        </g>
        <g id="Grupo_1230670" data-name="Grupo 1230670" transform="translate(0 14.607)">
          <path id="Trazado_1176139" data-name="Trazado 1176139" d="M51.507,240.4a2.651,2.651,0,0,1-2.586-2.7v-5.176a8.245,8.245,0,0,1,3.094-6.423,16.013,16.013,0,0,1,2.239-1.589c1-.6,2.056-1.136,3.078-1.654q.575-.291,1.105-.568c4.215-2.207,4.986-3.482,4.986-5.2,0-2.186-1.679-3.465-4.986-5.2a.693.693,0,0,1,0-1.228q.538-.282,1.122-.577c1-.507,2.034-1.03,2.99-1.606a.694.694,0,0,1,.732.011c2.282,1.467,5.315,3.955,5.315,8.6s-3.034,7.129-5.315,8.6a41.311,41.311,0,0,1-3.692,2.038l-.514.262c-4.236,2.171-4.981,3.193-4.981,4.537V237.7A2.651,2.651,0,0,1,51.507,240.4Zm8.738-29.109c2.587,1.449,4.563,3.032,4.563,5.8,0,3.167-2.594,4.783-5.729,6.424q-.538.282-1.122.577c-1,.507-2.034,1.03-2.99,1.606a14.676,14.676,0,0,0-2.047,1.45,6.917,6.917,0,0,0-2.614,5.375V237.7a1.206,1.206,0,1,0,2.4,0v-5.176c0-2.627,2.377-4.049,5.734-5.77l.519-.265a40.225,40.225,0,0,0,3.569-1.967c3.236-2.081,4.679-4.372,4.679-7.43,0-2.944-1.337-5.178-4.325-7.2C62.02,210.394,61.121,210.851,60.246,211.295Z" transform="translate(-48.921 -208.385)" fill="#231f20"/>
        </g>
        <g id="Grupo_1230671" data-name="Grupo 1230671" transform="translate(3.787 3.297)">
          <path id="Trazado_1176140" data-name="Trazado 1176140" d="M87.663,128.134H76.948a.693.693,0,1,1,0-1.386H87.663a.693.693,0,1,1,0,1.386Z" transform="translate(-76.255 -126.748)" fill="#231f20"/>
        </g>
        <g id="Grupo_1230672" data-name="Grupo 1230672" transform="translate(3.787 7.188)">
          <path id="Trazado_1176141" data-name="Trazado 1176141" d="M87.663,156.223H76.948a.693.693,0,1,1,0-1.386H87.663a.693.693,0,1,1,0,1.386Z" transform="translate(-76.255 -154.837)" fill="#231f20"/>
        </g>
        <g id="Grupo_1230673" data-name="Grupo 1230673" transform="translate(4.267 20.936)">
          <path id="Trazado_1176142" data-name="Trazado 1176142" d="M90.168,255.445H80.413a.693.693,0,0,1,0-1.386h9.755a.693.693,0,1,1,0,1.386Z" transform="translate(-79.721 -254.059)" fill="#231f20"/>
        </g>
        <g id="Grupo_1230674" data-name="Grupo 1230674" transform="translate(4.572 24.222)">
          <path id="Trazado_1176143" data-name="Trazado 1176143" d="M92.064,279.162h-9.45a.693.693,0,0,1,0-1.386h9.45a.693.693,0,1,1,0,1.386Z" transform="translate(-81.922 -277.776)" fill="#231f20"/>
        </g>
        <g id="Grupo_1230675" data-name="Grupo 1230675" transform="translate(3.787 38.052)">
          <path id="Trazado_1176144" data-name="Trazado 1176144" d="M87.663,378.985H76.948a.693.693,0,1,1,0-1.386H87.663a.693.693,0,1,1,0,1.386Z" transform="translate(-76.255 -377.599)" fill="#231f20"/>
        </g>
        <g id="Grupo_1230676" data-name="Grupo 1230676" transform="translate(3.787 41.748)">
          <path id="Trazado_1176145" data-name="Trazado 1176145" d="M87.663,405.657H76.948a.693.693,0,1,1,0-1.386H87.663a.693.693,0,1,1,0,1.386Z" transform="translate(-76.255 -404.271)" fill="#231f20"/>
        </g>
      </g>
      <g id="Grupo_1230689" data-name="Grupo 1230689" transform="translate(80.799 74.342)">
        <g id="Grupo_1230678" data-name="Grupo 1230678" transform="translate(20.468 0)">
          <path id="Trazado_1176146" data-name="Trazado 1176146" d="M426.729,186.807V174.731a1.668,1.668,0,0,1,1.663-1.663h.352a1.668,1.668,0,0,1,1.663,1.663v12.076a1.667,1.667,0,0,1-1.663,1.663h-.352A1.668,1.668,0,0,1,426.729,186.807Z" transform="translate(-426.729 -173.068)" fill="#00cbcb"/>
        </g>
        <g id="Grupo_1230679" data-name="Grupo 1230679" transform="translate(17.843 1.065)">
          <path id="Trazado_1176147" data-name="Trazado 1176147" d="M410.41,194.025v-13.27s-2.625-.072-2.625,1.119v11.031C407.785,194.1,410.41,194.025,410.41,194.025Z" transform="translate(-407.785 -180.755)" fill="#00cbcb"/>
        </g>
        <g id="Grupo_1230680" data-name="Grupo 1230680" transform="translate(0 0)">
          <path id="Trazado_1176148" data-name="Trazado 1176148" d="M282.677,174.731v12.076a1.668,1.668,0,0,1-1.663,1.663h-.352A1.668,1.668,0,0,1,279,186.807V174.731a1.667,1.667,0,0,1,1.663-1.663h.352A1.667,1.667,0,0,1,282.677,174.731Z" transform="translate(-279 -173.068)" fill="#00cbcb"/>
        </g>
        <g id="Grupo_1230681" data-name="Grupo 1230681" transform="translate(3.677 1.065)">
          <path id="Trazado_1176149" data-name="Trazado 1176149" d="M305.537,180.756v13.27s2.625.072,2.625-1.119V181.875C308.162,180.684,305.537,180.756,305.537,180.756Z" transform="translate(-305.537 -180.755)" fill="#00cbcb"/>
        </g>
        <g id="Grupo_1230682" data-name="Grupo 1230682" transform="translate(6.32 2.807)">
          <path id="Trazado_1176150" data-name="Trazado 1176150" d="M0,0H9.788V11.524H0Z" transform="translate(11.524) rotate(90)" fill="#dc9f6f"/>
        </g>
        <g id="Grupo_1230683" data-name="Grupo 1230683" transform="translate(8.765 22.176)">
          <path id="Trazado_1176151" data-name="Trazado 1176151" d="M0,0H11.183V7H0Z" transform="translate(6.998 0) rotate(90)" fill="#00cbcb"/>
        </g>
        <g id="Grupo_1230684" data-name="Grupo 1230684" transform="translate(8.765 26.106)">
          <path id="Trazado_1176152" data-name="Trazado 1176152" d="M349.262,361.486a9.631,9.631,0,0,1-7,2.351v4.9h7Z" transform="translate(-342.264 -361.486)" fill="#00aeaf"/>
        </g>
        <g id="Grupo_1230685" data-name="Grupo 1230685" transform="translate(10.036 12.595)">
          <path id="Trazado_1176153" data-name="Trazado 1176153" d="M0,0H6.623V4.456H0Z" transform="translate(4.456 0) rotate(90)" fill="#dc9f6f"/>
        </g>
        <g id="Grupo_1230686" data-name="Grupo 1230686" transform="translate(7.879 19.218)">
          <path id="Trazado_1176154" data-name="Trazado 1176154" d="M335.864,313.32v-.139a1.414,1.414,0,0,1,1.41-1.41h5.952a1.414,1.414,0,0,1,1.41,1.41v.139a1.414,1.414,0,0,1-1.41,1.41h-5.952A1.414,1.414,0,0,1,335.864,313.32Z" transform="translate(-335.864 -311.772)" fill="#00cbcb"/>
        </g>
        <g id="Grupo_1230687" data-name="Grupo 1230687" transform="translate(7.879 33.359)">
          <path id="Trazado_1176155" data-name="Trazado 1176155" d="M335.864,415.384v-.139a1.414,1.414,0,0,1,1.41-1.41h5.952a1.414,1.414,0,0,1,1.41,1.41v.139a1.414,1.414,0,0,1-1.41,1.41h-5.952A1.414,1.414,0,0,1,335.864,415.384Z" transform="translate(-335.864 -413.835)" fill="#00cbcb"/>
        </g>
        <g id="Grupo_1230688" data-name="Grupo 1230688" transform="translate(6.319 7.803)">
          <path id="Trazado_1176156" data-name="Trazado 1176156" d="M336.134,229.389a55.256,55.256,0,0,1-11.524,1.719v3.072h11.524Z" transform="translate(-324.61 -229.389)" fill="#c98655"/>
        </g>
      </g>
      <g id="Grupo_1230699" data-name="Grupo 1230699" transform="translate(80.106 73.649)">
        <g id="Grupo_1230690" data-name="Grupo 1230690" transform="translate(20.468 0)">
          <path id="Trazado_1176157" data-name="Trazado 1176157" d="M424.437,184.856h-.352a2.358,2.358,0,0,1-2.355-2.355V170.424a2.358,2.358,0,0,1,2.355-2.355h.352a2.358,2.358,0,0,1,2.355,2.355V182.5A2.358,2.358,0,0,1,424.437,184.856Zm-.352-15.4a.971.971,0,0,0-.97.97V182.5a.971.971,0,0,0,.97.97h.352a.971.971,0,0,0,.97-.97V170.424a.971.971,0,0,0-.97-.97Z" transform="translate(-421.73 -168.069)" fill="#231f20"/>
        </g>
        <g id="Grupo_1230691" data-name="Grupo 1230691" transform="translate(17.843 1.064)">
          <path id="Trazado_1176158" data-name="Trazado 1176158" d="M405.972,190.409a4.366,4.366,0,0,1-2.741-.778,1.419,1.419,0,0,1-.446-1.036V177.564a1.419,1.419,0,0,1,.446-1.036,4.6,4.6,0,0,1,2.891-.776.693.693,0,0,1,.674.692v13.27a.693.693,0,0,1-.674.692Zm.131-.694h0Zm-.693-12.55a2.068,2.068,0,0,0-1.238.388V188.6c.052.146.572.33,1.239.4Z" transform="translate(-402.785 -175.751)" fill="#231f20"/>
        </g>
        <g id="Grupo_1230692" data-name="Grupo 1230692" transform="translate(0 0)">
          <path id="Trazado_1176159" data-name="Trazado 1176159" d="M276.707,184.856h-.352A2.358,2.358,0,0,1,274,182.5V170.424a2.358,2.358,0,0,1,2.355-2.355h.352a2.358,2.358,0,0,1,2.355,2.355V182.5A2.358,2.358,0,0,1,276.707,184.856Zm-.352-15.4a.971.971,0,0,0-.97.97V182.5a.971.971,0,0,0,.97.97h.352a.971.971,0,0,0,.97-.97V170.424a.971.971,0,0,0-.97-.97Z" transform="translate(-274 -168.069)" fill="#231f20"/>
        </g>
        <g id="Grupo_1230693" data-name="Grupo 1230693" transform="translate(3.677 1.064)">
          <path id="Trazado_1176160" data-name="Trazado 1176160" d="M301.36,190.408l-.15,0a.693.693,0,0,1-.674-.692v-13.27a.693.693,0,0,1,.674-.692,4.593,4.593,0,0,1,2.891.776,1.419,1.419,0,0,1,.446,1.036v11.032a1.419,1.419,0,0,1-.446,1.036A4.366,4.366,0,0,1,301.36,190.408Zm.562-13.244v11.831a2.068,2.068,0,0,0,1.238-.388V177.563C303.11,177.417,302.59,177.233,301.922,177.164Z" transform="translate(-300.537 -175.75)" fill="#231f20"/>
        </g>
        <g id="Grupo_1230694" data-name="Grupo 1230694" transform="translate(6.319 2.806)">
          <path id="Trazado_1176161" data-name="Trazado 1176161" d="M331.827,199.5H320.3a.693.693,0,0,1-.693-.693v-9.788a.693.693,0,0,1,.693-.693h11.524a.693.693,0,0,1,.693.693v9.788A.693.693,0,0,1,331.827,199.5ZM321,198.113h10.139v-8.4H321Z" transform="translate(-319.61 -188.324)" fill="#231f20"/>
        </g>
        <g id="Grupo_1230695" data-name="Grupo 1230695" transform="translate(8.765 22.176)">
          <path id="Trazado_1176162" data-name="Trazado 1176162" d="M344.955,340.69h-7a.693.693,0,0,1-.693-.693V328.814a.693.693,0,0,1,.693-.693h7a.693.693,0,0,1,.693.693V340A.693.693,0,0,1,344.955,340.69ZM338.65,339.3h5.612v-9.8H338.65Z" transform="translate(-337.264 -328.121)" fill="#231f20"/>
        </g>
        <g id="Grupo_1230696" data-name="Grupo 1230696" transform="translate(10.036 12.595)">
          <path id="Trazado_1176163" data-name="Trazado 1176163" d="M351.585,266.98h-4.456a.693.693,0,0,1-.693-.693v-6.623a.693.693,0,0,1,.693-.693h4.456a.693.693,0,0,1,.693.693v6.623A.693.693,0,0,1,351.585,266.98Zm-3.764-1.386h3.071v-5.237h-3.071Z" transform="translate(-346.436 -258.972)" fill="#231f20"/>
        </g>
        <g id="Grupo_1230697" data-name="Grupo 1230697" transform="translate(7.879 19.218)">
          <path id="Trazado_1176164" data-name="Trazado 1176164" d="M338.919,311.115h-5.952a2.1,2.1,0,0,1-2.1-2.1v-.139a2.1,2.1,0,0,1,2.1-2.1h5.952a2.1,2.1,0,0,1,2.1,2.1v.139A2.1,2.1,0,0,1,338.919,311.115Zm-5.952-2.958a.718.718,0,0,0-.717.717v.139a.718.718,0,0,0,.717.717h5.952a.718.718,0,0,0,.717-.717v-.139a.718.718,0,0,0-.717-.717Z" transform="translate(-330.864 -306.771)" fill="#231f20"/>
        </g>
        <g id="Grupo_1230698" data-name="Grupo 1230698" transform="translate(7.879 33.359)">
          <path id="Trazado_1176165" data-name="Trazado 1176165" d="M338.919,413.178h-5.952a2.1,2.1,0,0,1-2.1-2.1v-.139a2.1,2.1,0,0,1,2.1-2.1h5.952a2.1,2.1,0,0,1,2.1,2.1v.139A2.1,2.1,0,0,1,338.919,413.178Zm-5.952-2.958a.718.718,0,0,0-.717.717v.139a.718.718,0,0,0,.717.717h5.952a.718.718,0,0,0,.717-.717v-.139a.718.718,0,0,0-.717-.717Z" transform="translate(-330.864 -408.835)" fill="#231f20"/>
        </g>
      </g>
    </g>
  </g>
</svg>
