<svg xmlns="http://www.w3.org/2000/svg" xmlns:xlink="http://www.w3.org/1999/xlink" width="108" height="108" viewBox="0 0 108 108">
  <defs>
    <filter id="Trazado_904820" x="0" y="0" width="108" height="108" filterUnits="userSpaceOnUse">
      <feOffset dy="3" input="SourceAlpha"/>
      <feGaussianBlur stdDeviation="3" result="blur"/>
      <feFlood flood-opacity="0.161"/>
      <feComposite operator="in" in2="blur"/>
      <feComposite in="SourceGraphic"/>
    </filter>
  </defs>
  <g id="Grupo_1230711" data-name="Grupo 1230711" transform="translate(-200 -7080)">
    <g id="Grupo_1230566" data-name="Grupo 1230566" transform="translate(209 7086)">
      <g id="Grupo_1173585" data-name="Grupo 1173585" transform="translate(0 0)">
        <g id="Grupo_1173428" data-name="Grupo 1173428">
          <g id="Grupo_1171958" data-name="Grupo 1171958">
            <g id="Grupo_1167341" data-name="Grupo 1167341">
              <g id="Grupo_1166792" data-name="Grupo 1166792">
                <g transform="matrix(1, 0, 0, 1, -9, -6)" filter="url(#Trazado_904820)">
                  <g id="Trazado_904820-2" data-name="Trazado 904820" transform="translate(9 6)" fill="#fef7ea">
                    <path d="M 44.99999618530273 88.50002288818359 C 39.12687301635742 88.50002288818359 33.43022155761719 87.35009765625 28.06829643249512 85.08218383789062 C 22.88852119445801 82.89133453369141 18.23629570007324 79.75460815429688 14.24084663391113 75.75916290283203 C 10.24540901184082 71.76371002197266 7.108683586120605 67.11148834228516 4.917821407318115 61.93171310424805 C 2.649921178817749 56.56978607177734 1.499996185302734 50.87313461303711 1.499996185302734 45.0000114440918 C 1.499996185302734 39.12688827514648 2.649921178817749 33.43023681640625 4.917821407318115 28.06829833984375 C 7.108683586120605 22.88852310180664 10.24540901184082 18.2363109588623 14.24084663391113 14.2408618927002 C 18.23629570007324 10.24541187286377 22.88852119445801 7.108686447143555 28.06829643249512 4.917823791503906 C 33.43022155761719 2.649924039840698 39.12687301635742 1.499998927116394 44.99999618530273 1.499998927116394 C 50.87311935424805 1.499998927116394 56.56977081298828 2.649924039840698 61.93169784545898 4.917823791503906 C 67.11147308349609 7.108686447143555 71.76369476318359 10.24541187286377 75.75914764404297 14.2408618927002 C 79.75458526611328 18.2363109588623 82.89131164550781 22.88852310180664 85.08216857910156 28.06829833984375 C 87.35007476806641 33.43023681640625 88.5 39.12688827514648 88.5 45.0000114440918 C 88.5 50.87313461303711 87.35007476806641 56.56978607177734 85.08216857910156 61.93171310424805 C 82.89131164550781 67.11148834228516 79.75458526611328 71.76371002197266 75.75914764404297 75.75916290283203 C 71.76369476318359 79.75460815429688 67.11147308349609 82.89133453369141 61.93169784545898 85.08218383789062 C 56.56977081298828 87.35009765625 50.87311935424805 88.50002288818359 44.99999618530273 88.50002288818359 Z" stroke="none"/>
                    <path d="M 44.99999618530273 3 C 39.32870864868164 3 33.82865142822266 4.110054016113281 28.65262603759766 6.299339294433594 C 23.65165710449219 8.414566040039062 19.15968322753906 11.44333648681641 15.301513671875 15.30152893066406 C 11.44333648681641 19.15969848632812 8.414566040039062 23.65165710449219 6.299339294433594 28.65264129638672 C 4.110054016113281 33.82866668701172 2.999992370605469 39.3287239074707 2.999992370605469 45.0000114440918 C 2.999992370605469 50.67129898071289 4.110054016113281 56.17135620117188 6.299339294433594 61.34738159179688 C 8.414566040039062 66.34836578369141 11.44333648681641 70.84032440185547 15.301513671875 74.69849395751953 C 19.15968322753906 78.55668640136719 23.65165710449219 81.58545684814453 28.65262603759766 83.70068359375 C 33.82865142822266 85.88996887207031 39.32870864868164 87.00002288818359 44.99999618530273 87.00002288818359 C 50.67128372192383 87.00002288818359 56.17134094238281 85.88996887207031 61.34736633300781 83.70068359375 C 66.34834289550781 81.58545684814453 70.84030914306641 78.55668640136719 74.69847869873047 74.69849395751953 C 78.55665588378906 70.84032440185547 81.58542633056641 66.34836578369141 83.70065307617188 61.34738159179688 C 85.88993835449219 56.17135620117188 87 50.67129898071289 87 45.0000114440918 C 87 39.3287239074707 85.88993835449219 33.82866668701172 83.70065307617188 28.65264129638672 C 81.58542633056641 23.65165710449219 78.55665588378906 19.15969848632812 74.69847869873047 15.30152893066406 C 70.84030914306641 11.44333648681641 66.34834289550781 8.414566040039062 61.34736633300781 6.299339294433594 C 56.17134094238281 4.110054016113281 50.67128372192383 3 44.99999618530273 3 M 44.99999618530273 0 C 69.85281372070312 0 90 20.14719390869141 90 45.0000114440918 C 90 69.85282897949219 69.85281372070312 90.00002288818359 44.99999618530273 90.00002288818359 C 20.14717864990234 90.00002288818359 -7.62939453125e-06 69.85282897949219 -7.62939453125e-06 45.0000114440918 C -7.62939453125e-06 20.14719390869141 20.14717864990234 0 44.99999618530273 0 Z" stroke="none" fill="#fcba3d"/>
                  </g>
                </g>
              </g>
            </g>
          </g>
        </g>
      </g>
    </g>
    <g id="test-tube_7920384" transform="translate(226.793 7105.793)">
      <path id="Trazado_1176210" data-name="Trazado 1176210" d="M380.153,8.91V27.361a1.41,1.41,0,0,1-1.41,1.41h-8.87a1.41,1.41,0,0,1-1.41-1.41v-5.9a.587.587,0,0,0-.3-.509l-2.677-1.53a.246.246,0,0,1,.022-.438l2.6-1.152a.587.587,0,0,0,.349-.536V8.91a1.41,1.41,0,0,1,1.41-1.41h8.87A1.41,1.41,0,0,1,380.153,8.91Z" transform="translate(-326.536 -6.703)" fill="#f9f3f1"/>
      <path id="Trazado_1176211" data-name="Trazado 1176211" d="M464.419,7.5h-3.188a1.41,1.41,0,0,1,1.41,1.41V27.361a1.41,1.41,0,0,1-1.41,1.41h3.188a1.41,1.41,0,0,0,1.41-1.41V8.91A1.41,1.41,0,0,0,464.419,7.5Z" transform="translate(-412.213 -6.703)" fill="#f3eae6"/>
      <path id="Trazado_1176212" data-name="Trazado 1176212" d="M182.273,86.113H174.2a1.807,1.807,0,0,1-1.807-1.807h0A1.807,1.807,0,0,1,174.2,82.5h8.077a1.807,1.807,0,0,1,1.807,1.807h0A1.807,1.807,0,0,1,182.273,86.113Z" transform="translate(-154.068 -73.732)" fill="#99e6fc"/>
      <path id="Trazado_1176213" data-name="Trazado 1176213" d="M238.577,82.5h-3.188a1.807,1.807,0,0,1,1.807,1.807h0a1.807,1.807,0,0,1-1.807,1.807h3.188a1.807,1.807,0,0,0,1.807-1.807h0A1.807,1.807,0,0,0,238.577,82.5Z" transform="translate(-210.372 -73.732)" fill="#62dbfb"/>
      <path id="Trazado_1176214" data-name="Trazado 1176214" d="M198.254,144.451V116.5h-7.865v27.951a3.932,3.932,0,0,0,3.932,3.932h0A3.932,3.932,0,0,0,198.254,144.451Z" transform="translate(-170.155 -104.119)" fill="#c8effe"/>
      <path id="Trazado_1176215" data-name="Trazado 1176215" d="M214.727,116.5v27.951a3.932,3.932,0,0,1-2.338,3.595,3.917,3.917,0,0,0,1.594.338h0a3.932,3.932,0,0,0,3.932-3.932V116.5Z" transform="translate(-189.817 -104.119)" fill="#99e6fc"/>
      <path id="Trazado_1176216" data-name="Trazado 1176216" d="M190.389,239.269v14.9a3.932,3.932,0,0,0,3.932,3.932h0a3.932,3.932,0,0,0,3.932-3.932v-14.9Z" transform="translate(-170.155 -213.84)" fill="#fd8087"/>
      <path id="Trazado_1176217" data-name="Trazado 1176217" d="M214.727,239.269v14.9a3.932,3.932,0,0,1-2.338,3.595,3.916,3.916,0,0,0,1.594.338h0a3.932,3.932,0,0,0,3.932-3.932v-14.9Z" transform="translate(-189.817 -213.84)" fill="#fe646f"/>
      <path id="Trazado_1176218" data-name="Trazado 1176218" d="M7.5,8.91V19.431a1.41,1.41,0,0,0,1.41,1.41h8.87a1.41,1.41,0,0,0,1.41-1.41V16.575a.587.587,0,0,1,.3-.509l2.677-1.53a.246.246,0,0,0-.022-.438l-2.6-1.152a.587.587,0,0,1-.349-.536V8.91A1.41,1.41,0,0,0,17.78,7.5H8.91A1.41,1.41,0,0,0,7.5,8.91Z" transform="translate(-6.703 -6.703)" fill="#6ed5a1"/>
      <path id="Trazado_1176219" data-name="Trazado 1176219" d="M81.78,14.1l-2.6-1.152a.586.586,0,0,1-.349-.536V8.91a1.41,1.41,0,0,0-1.41-1.41H74.231a1.41,1.41,0,0,1,1.41,1.41V19.431a1.41,1.41,0,0,1-1.41,1.41h3.188a1.41,1.41,0,0,0,1.41-1.41V16.575a.587.587,0,0,1,.3-.509l2.677-1.53A.246.246,0,0,0,81.78,14.1Z" transform="translate(-66.342 -6.703)" fill="#46cc8d"/>
      <path id="Trazado_1176220" data-name="Trazado 1176220" d="M57.482,465.176H10.338A2.838,2.838,0,0,1,7.5,462.339v-1.245a.594.594,0,0,1,.594-.594H59.726a.594.594,0,0,1,.594.594v1.245A2.838,2.838,0,0,1,57.482,465.176Z" transform="translate(-6.703 -411.559)" fill="#e8ad8c"/>
      <path id="Trazado_1176221" data-name="Trazado 1176221" d="M453.232,460.5h-3.188a.594.594,0,0,1,.594.594v1.245a2.838,2.838,0,0,1-2.838,2.838h3.188a2.838,2.838,0,0,0,2.838-2.838v-1.245A.593.593,0,0,0,453.232,460.5Z" transform="translate(-400.208 -411.559)" fill="#e19974"/>
      <path id="Trazado_1176222" data-name="Trazado 1176222" d="M170.437,174.393H149.405a.425.425,0,0,1-.425-.425v-2.763a.425.425,0,0,1,.425-.425h21.032a.425.425,0,0,1,.425.425v2.763A.425.425,0,0,1,170.437,174.393Z" transform="translate(-133.147 -152.63)" fill="#e8ad8c"/>
      <path id="Trazado_1176223" data-name="Trazado 1176223" d="M324.061,170.78h-3.188a.425.425,0,0,1,.425.425v2.763a.425.425,0,0,1-.425.425h3.188a.425.425,0,0,0,.425-.425v-2.763A.425.425,0,0,0,324.061,170.78Z" transform="translate(-286.771 -152.63)" fill="#e19974"/>
      <rect id="Rectángulo_423845" data-name="Rectángulo 423845" width="3.188" height="27.207" transform="translate(31.951 21.764)" fill="#bfbfbf"/>
      <g id="Grupo_1230710" data-name="Grupo 1230710">
        <path id="Trazado_1176224" data-name="Trazado 1176224" d="M373.45,6.659a.8.8,0,0,0,.8-.8V2.207A2.21,2.21,0,0,0,372.039,0h-8.87a2.21,2.21,0,0,0-2.207,2.207v8.245l-2.476,1.1a1.043,1.043,0,0,0-.1,1.859l2.571,1.47v5.781a2.21,2.21,0,0,0,2.207,2.207h8.87a2.21,2.21,0,0,0,2.207-2.207V9.72a.8.8,0,0,0-1.594,0V20.658a.614.614,0,0,1-.613.613h-8.87a.614.614,0,0,1-.613-.613v-5.9a1.387,1.387,0,0,0-.7-1.2l-1.731-.99,1.6-.711a1.384,1.384,0,0,0,.823-1.265V2.207a.614.614,0,0,1,.613-.613h8.87a.614.614,0,0,1,.613.613V5.862A.8.8,0,0,0,373.45,6.659Z" transform="translate(-319.833)"/>
        <path id="Trazado_1176225" data-name="Trazado 1176225" d="M417.361,36.637h2.124a.8.8,0,1,0,0-1.594h-2.124a.8.8,0,1,0,0,1.594Z" transform="translate(-372.293 -31.319)"/>
        <path id="Trazado_1176226" data-name="Trazado 1176226" d="M449.459,157.831h2.124a.8.8,0,0,0,0-1.594h-2.124a.8.8,0,1,0,0,1.594Z" transform="translate(-400.979 -139.633)"/>
        <path id="Trazado_1176227" data-name="Trazado 1176227" d="M417.361,65.765h5.524a.8.8,0,1,0,0-1.594h-5.524a.8.8,0,1,0,0,1.594Z" transform="translate(-372.293 -57.351)"/>
        <path id="Trazado_1176228" data-name="Trazado 1176228" d="M417.361,93.457h5.524a.8.8,0,1,0,0-1.594h-5.524a.8.8,0,1,0,0,1.594Z" transform="translate(-372.293 -82.1)"/>
        <path id="Trazado_1176229" data-name="Trazado 1176229" d="M417.361,122.39h5.524a.8.8,0,1,0,0-1.594h-5.524a.8.8,0,1,0,0,1.594Z" transform="translate(-372.293 -107.958)"/>
        <path id="Trazado_1176230" data-name="Trazado 1176230" d="M2.207,14.935h8.87a2.21,2.21,0,0,0,2.207-2.207V9.994l2.571-1.47a1.043,1.043,0,0,0-.1-1.859l-2.476-1.1V2.207A2.21,2.21,0,0,0,11.077,0H2.207A2.21,2.21,0,0,0,0,2.207V12.728A2.21,2.21,0,0,0,2.207,14.935ZM1.594,2.207a.614.614,0,0,1,.613-.613h8.87a.614.614,0,0,1,.613.613v3.5a1.385,1.385,0,0,0,.823,1.265l1.6.711-1.731.989a1.386,1.386,0,0,0-.7,1.2v2.856a.614.614,0,0,1-.613.613H2.207a.614.614,0,0,1-.613-.613V2.207Z"/>
        <path id="Trazado_1176231" data-name="Trazado 1176231" d="M32.351,48.53a.8.8,0,0,0,.614.289h.016a.8.8,0,0,0,.618-.313l3.3-4.317a.8.8,0,0,0-1.267-.967l-2.687,3.52L31.412,44.9a.8.8,0,0,0-1.228,1.017Z" transform="translate(-26.813 -38.348)"/>
        <path id="Trazado_1176232" data-name="Trazado 1176232" d="M53.023,115.173H35.937V89.59H37.29a1.224,1.224,0,0,0,1.222-1.222V85.6a1.224,1.224,0,0,0-1.222-1.222H28.9V80.114A2.6,2.6,0,0,0,28.2,75H20.128a2.6,2.6,0,0,0-.691,5.114v4.268H16.258A1.224,1.224,0,0,0,15.036,85.6v2.763a1.224,1.224,0,0,0,1.222,1.222h3.179v9.331a.8.8,0,1,0,1.594,0V93.255H27.3v14.106a3.135,3.135,0,0,1-6.27,0v-4.55a.8.8,0,0,0-1.594,0v4.55a4.729,4.729,0,0,0,9.459,0V89.59h2.258v25.583H1.391A1.392,1.392,0,0,0,0,116.564v1.245a3.639,3.639,0,0,0,3.635,3.635H50.779a3.639,3.639,0,0,0,3.635-3.635v-1.245A1.392,1.392,0,0,0,53.023,115.173ZM19.118,77.6a1.011,1.011,0,0,1,1.01-1.01H28.2a1.01,1.01,0,1,1,0,2.019H20.128A1.011,1.011,0,0,1,19.118,77.6Zm1.913,2.6H27.3v4.175h-6.27Zm-4.4,5.769H36.918V88H16.63ZM27.3,91.661h-6.27V89.59H27.3Zm5.447-2.071h1.594v25.583H32.748ZM52.82,117.808a2.043,2.043,0,0,1-2.041,2.041H3.635a2.043,2.043,0,0,1-2.041-2.041v-1.041H31.738a.8.8,0,0,0,.214.03h3.188a.8.8,0,0,0,.214-.03H52.82Z" transform="translate(0 -67.029)"/>
      </g>
    </g>
  </g>
</svg>
