<svg xmlns="http://www.w3.org/2000/svg" xmlns:xlink="http://www.w3.org/1999/xlink" width="108" height="108" viewBox="0 0 108 108">
  <defs>
    <filter id="Trazado_904820" x="0" y="0" width="108" height="108" filterUnits="userSpaceOnUse">
      <feOffset dy="3" input="SourceAlpha"/>
      <feGaussianBlur stdDeviation="3" result="blur"/>
      <feFlood flood-opacity="0.161"/>
      <feComposite operator="in" in2="blur"/>
      <feComposite in="SourceGraphic"/>
    </filter>
  </defs>
  <g id="Grupo_1230717" data-name="Grupo 1230717" transform="translate(-200 -8877.183)">
    <g id="Grupo_1230583" data-name="Grupo 1230583" transform="translate(209 8883.183)">
      <g id="Grupo_1173585" data-name="Grupo 1173585" transform="translate(0 0)">
        <g id="Grupo_1173428" data-name="Grupo 1173428">
          <g id="Grupo_1171958" data-name="Grupo 1171958">
            <g id="Grupo_1167341" data-name="Grupo 1167341">
              <g id="Grupo_1166792" data-name="Grupo 1166792">
                <g transform="matrix(1, 0, 0, 1, -9, -6)" filter="url(#Trazado_904820)">
                  <g id="Trazado_904820-2" data-name="Trazado 904820" transform="translate(9 6)" fill="#fcebe9">
                    <path d="M 44.99999618530273 88.50002288818359 C 39.12687301635742 88.50002288818359 33.43022155761719 87.35009765625 28.06829643249512 85.08218383789062 C 22.88852119445801 82.89133453369141 18.23629570007324 79.75460815429688 14.24084663391113 75.75916290283203 C 10.24540901184082 71.76371002197266 7.108683586120605 67.11148834228516 4.917821407318115 61.93171310424805 C 2.649921178817749 56.56978607177734 1.499996185302734 50.87313461303711 1.499996185302734 45.0000114440918 C 1.499996185302734 39.12688827514648 2.649921178817749 33.43023681640625 4.917821407318115 28.06829833984375 C 7.108683586120605 22.88852310180664 10.24540901184082 18.2363109588623 14.24084663391113 14.2408618927002 C 18.23629570007324 10.24541187286377 22.88852119445801 7.108686447143555 28.06829643249512 4.917823791503906 C 33.43022155761719 2.649924039840698 39.12687301635742 1.499998927116394 44.99999618530273 1.499998927116394 C 50.87311935424805 1.499998927116394 56.56977081298828 2.649924039840698 61.93169784545898 4.917823791503906 C 67.11147308349609 7.108686447143555 71.76369476318359 10.24541187286377 75.75914764404297 14.2408618927002 C 79.75458526611328 18.2363109588623 82.89131164550781 22.88852310180664 85.08216857910156 28.06829833984375 C 87.35007476806641 33.43023681640625 88.5 39.12688827514648 88.5 45.0000114440918 C 88.5 50.87313461303711 87.35007476806641 56.56978607177734 85.08216857910156 61.93171310424805 C 82.89131164550781 67.11148834228516 79.75458526611328 71.76371002197266 75.75914764404297 75.75916290283203 C 71.76369476318359 79.75460815429688 67.11147308349609 82.89133453369141 61.93169784545898 85.08218383789062 C 56.56977081298828 87.35009765625 50.87311935424805 88.50002288818359 44.99999618530273 88.50002288818359 Z" stroke="none"/>
                    <path d="M 44.99999618530273 3 C 39.32870864868164 3 33.82865142822266 4.110054016113281 28.65262603759766 6.299339294433594 C 23.65165710449219 8.414566040039062 19.15968322753906 11.44333648681641 15.301513671875 15.30152893066406 C 11.44333648681641 19.15969848632812 8.414566040039062 23.65165710449219 6.299339294433594 28.65264129638672 C 4.110054016113281 33.82866668701172 2.999992370605469 39.3287239074707 2.999992370605469 45.0000114440918 C 2.999992370605469 50.67129898071289 4.110054016113281 56.17135620117188 6.299339294433594 61.34738159179688 C 8.414566040039062 66.34836578369141 11.44333648681641 70.84032440185547 15.301513671875 74.69849395751953 C 19.15968322753906 78.55668640136719 23.65165710449219 81.58545684814453 28.65262603759766 83.70068359375 C 33.82865142822266 85.88996887207031 39.32870864868164 87.00002288818359 44.99999618530273 87.00002288818359 C 50.67128372192383 87.00002288818359 56.17134094238281 85.88996887207031 61.34736633300781 83.70068359375 C 66.34834289550781 81.58545684814453 70.84030914306641 78.55668640136719 74.69847869873047 74.69849395751953 C 78.55665588378906 70.84032440185547 81.58542633056641 66.34836578369141 83.70065307617188 61.34738159179688 C 85.88993835449219 56.17135620117188 87 50.67129898071289 87 45.0000114440918 C 87 39.3287239074707 85.88993835449219 33.82866668701172 83.70065307617188 28.65264129638672 C 81.58542633056641 23.65165710449219 78.55665588378906 19.15969848632812 74.69847869873047 15.30152893066406 C 70.84030914306641 11.44333648681641 66.34834289550781 8.414566040039062 61.34736633300781 6.299339294433594 C 56.17134094238281 4.110054016113281 50.67128372192383 3 44.99999618530273 3 M 44.99999618530273 0 C 69.85281372070312 0 90 20.14719390869141 90 45.0000114440918 C 90 69.85282897949219 69.85281372070312 90.00002288818359 44.99999618530273 90.00002288818359 C 20.14717864990234 90.00002288818359 -7.62939453125e-06 69.85282897949219 -7.62939453125e-06 45.0000114440918 C -7.62939453125e-06 20.14719390869141 20.14717864990234 0 44.99999618530273 0 Z" stroke="none" fill="#e44b36"/>
                  </g>
                </g>
              </g>
            </g>
          </g>
        </g>
      </g>
    </g>
    <g id="tested_18594387" transform="translate(209.3 8892.497)">
      <g id="Grupo_1230716" data-name="Grupo 1230716" transform="translate(16.814 8.841)">
        <g id="Grupo_1230713" data-name="Grupo 1230713" transform="translate(0 0)">
          <path id="Trazado_1176233" data-name="Trazado 1176233" d="M22.972,22.461a.6.6,0,0,1,.544-.6A36.066,36.066,0,0,0,40.693,15H55.376a36.075,36.075,0,0,0,17.177,6.864.6.6,0,0,1,.544.6c0,3.392,0,21.349,0,21.349,0,14.131-14.342,26-25.063,28.878C37.317,69.813,22.972,57.941,22.972,43.81Z" transform="translate(-22.972 -15)" fill="#66d4f1" fill-rule="evenodd"/>
          <path id="Trazado_1176234" data-name="Trazado 1176234" d="M74.419,95.953c10.155-3.178,21.458-14,21.458-25.124V52.089a40.2,40.2,0,0,1-15.245-6.462H68.209a40.236,40.236,0,0,1-15.248,6.462v18.74C52.961,81.952,64.264,92.775,74.419,95.953Z" transform="translate(-49.357 -41.946)" fill="#4fc0e8" fill-rule="evenodd"/>
        </g>
        <g id="Grupo_1230714" data-name="Grupo 1230714" transform="translate(9.915 12.151)">
          <path id="Trazado_1176235" data-name="Trazado 1176235" d="M124.616,132.8h25.693a12.85,12.85,0,0,0-9.1-12.288V119.04a2.94,2.94,0,0,0-2.935-2.935h-1.634a2.94,2.94,0,0,0-2.935,2.935v1.469a12.851,12.851,0,0,0-9.1,12.288Z" transform="translate(-122.315 -116.105)" fill="#fdcd56" fill-rule="evenodd"/>
          <path id="Trazado_1176236" data-name="Trazado 1176236" d="M105.47,239.066a.6.6,0,0,1,.6-.6h29.094a.6.6,0,0,1,.6.6v4.076a.6.6,0,0,1-.6.6H106.071a.6.6,0,0,1-.6-.6Z" transform="translate(-105.47 -223.759)" fill="#f5b945" fill-rule="evenodd"/>
        </g>
        <g id="Grupo_1230715" data-name="Grupo 1230715" transform="translate(35.262 33.922)">
          <circle id="Elipse_14637" data-name="Elipse 14637" cx="10.225" cy="10.225" r="10.225" transform="translate(0)" fill="#c6ea94"/>
        </g>
      </g>
      <path id="Trazado_1176237" data-name="Trazado 1176237" d="M54.591,60.866a36.852,36.852,0,0,1-12.5,6.475.84.84,0,0,1-.436,0A39.147,39.147,0,0,1,24.722,56.9c-5.077-5.25-8.749-11.962-8.749-19.245v-21.9a.841.841,0,0,1,.775-.839,34.968,34.968,0,0,0,17.3-6.758A.841.841,0,0,1,34.536,8H49.218a.841.841,0,0,1,.489.157,34.967,34.967,0,0,0,17.3,6.758.841.841,0,0,1,.775.839v21.9A22.516,22.516,0,0,1,67.127,43,11.066,11.066,0,1,1,54.591,60.866ZM65.543,42.389a20.786,20.786,0,0,0,.555-4.738V16.52A36.9,36.9,0,0,1,48.95,9.683H34.8A36.9,36.9,0,0,1,17.656,16.52V37.651c0,6.848,3.5,13.138,8.276,18.075a37.559,37.559,0,0,0,15.946,9.931A35.292,35.292,0,0,0,53.484,59.6a11.087,11.087,0,0,1-1-1.619,33.442,33.442,0,0,1-10.353,5.6.842.842,0,0,1-.5,0,35.834,35.834,0,0,1-17.259-12.7,22.878,22.878,0,0,1-4.789-13.228V18.911a.841.841,0,0,1,.69-.828,39.393,39.393,0,0,0,14.927-6.331.841.841,0,0,1,.472-.145H48.091a.841.841,0,0,1,.472.145,39.359,39.359,0,0,0,14.923,6.331.841.841,0,0,1,.691.828v18.74A18.539,18.539,0,0,1,63.646,42,10.989,10.989,0,0,1,65.543,42.389ZM51.817,56.356A11.073,11.073,0,0,1,61.928,41.933a16.994,16.994,0,0,0,.566-4.281V19.606A41.249,41.249,0,0,1,47.833,13.29H35.924A41.289,41.289,0,0,1,21.26,19.606V37.651A21.2,21.2,0,0,0,25.728,49.89a34.167,34.167,0,0,0,16.149,12,32.141,32.141,0,0,0,9.94-5.536ZM62.361,43.607a9.384,9.384,0,1,0,9.383,9.384A9.388,9.388,0,0,0,62.361,43.607ZM55.7,52.423A.841.841,0,1,1,56.959,51.3l3.177,3.568L67.9,49.3a.841.841,0,0,1,.981,1.367L60.5,56.681a.841.841,0,0,1-1.119-.124Zm-.471-17.556h1.793a.841.841,0,0,1,.841.841v5.278a.841.841,0,0,1-.841.841h-30.3a.841.841,0,0,1-.841-.841V35.707a.841.841,0,0,1,.841-.841h1.793a13.714,13.714,0,0,1,8.762-9.881v-.861a3.783,3.783,0,0,1,3.776-3.776h1.634a3.783,3.783,0,0,1,3.776,3.776v.861a13.713,13.713,0,0,1,8.762,9.881Zm.952,1.683H27.57v3.6H56.183Zm-18.9-9.761a12.031,12.031,0,0,0-7.031,8.078H53.5a12.03,12.03,0,0,0-7.031-8.078v4.126a.841.841,0,1,1-1.682,0v-6.79a2.1,2.1,0,0,0-2.093-2.094H41.06a2.1,2.1,0,0,0-2.093,2.094v6.79a.841.841,0,0,1-1.683,0Z" fill-rule="evenodd"/>
    </g>
  </g>
</svg>
