<svg xmlns="http://www.w3.org/2000/svg" xmlns:xlink="http://www.w3.org/1999/xlink" width="295" height="167.246" viewBox="0 0 295 167.246">
  <defs>
    <clipPath id="clip-path">
      <rect id="Rectángulo_423846" data-name="Rectángulo 423846" width="168.597" height="167.247" fill="none"/>
    </clipPath>
    <clipPath id="clip-path-2">
      <path id="Trazado_1176362" data-name="Trazado 1176362" d="M425.916,39.266c-1.238.291-3.727,1.031-4.391,2.213l-.307.68c1.586-.918,2.873-1.523,4.744-1.041,4.762,1.229,9.087,6.86,11.479,11.006a49.077,49.077,0,0,1,4.925,12.9l3.421.07,3.171.015,5.143.519,1.31.138L455.135,63l-1.041-3.813-2-4.476c-2.609-4.47-6.356-8.808-11.343-10.6l-2.792-2.563a14.245,14.245,0,0,0-3.481-2.453,7.223,7.223,0,0,0-3.42-.772,18.042,18.042,0,0,0-5.146.944" transform="translate(-421.218 -38.322)" fill="none"/>
    </clipPath>
    <linearGradient id="linear-gradient" x1="-1.639" y1="3.949" x2="-1.635" y2="3.949" gradientUnits="objectBoundingBox">
      <stop offset="0" stop-color="#f18b24"/>
      <stop offset="1" stop-color="#ff8343"/>
    </linearGradient>
  </defs>
  <g id="Grupo_1230654" data-name="Grupo 1230654" transform="translate(-1125 -1901.881)">
    <g id="Grupo_1209827" data-name="Grupo 1209827" transform="translate(0 1630)">
      <g id="Grupo_1209771" data-name="Grupo 1209771" transform="translate(1125 309.898)">
        <rect id="Rectángulo_418976" data-name="Rectángulo 418976" width="295" height="76" rx="5" transform="translate(0 24.102)" fill="#292584"/>
        <rect id="Rectángulo_418975" data-name="Rectángulo 418975" width="255" height="110" rx="5" transform="translate(20 7.102)" fill="#fcba3d"/>
      </g>
    </g>
    <g id="Grupo_1230718" data-name="Grupo 1230718" transform="translate(1188.201 1901.881)">
      <path id="Trazado_1176238" data-name="Trazado 1176238" d="M840,780.646l.224.175.284-.284.017,1.652-.559.006Z" transform="translate(-687.138 -638.519)" fill="#e39a13"/>
      <g id="Grupo_1230719" data-name="Grupo 1230719">
        <g id="Grupo_1230718-2" data-name="Grupo 1230718" clip-path="url(#clip-path)">
          <path id="Trazado_1176239" data-name="Trazado 1176239" d="M797.6,755.964l.7.183-1,1.418-.673-.039c.088-.649.905-.855.972-1.562" transform="translate(-651.681 -618.416)" fill="#fbcf67"/>
          <path id="Trazado_1176240" data-name="Trazado 1176240" d="M837.065,771.913a1.535,1.535,0,0,1-.687-1.091l.294-.719a1.129,1.129,0,0,1,.912-.227,1.97,1.97,0,0,1,1.225.917l-1.236,1.011-.284.284Z" transform="translate(-684.199 -629.786)" fill="#fbbd24"/>
          <path id="Trazado_1176241" data-name="Trazado 1176241" d="M799.446,744.963l.364.011-1.19,1.826a2.011,2.011,0,0,1,.6,1.431l-.487.663a2.026,2.026,0,0,1-1.7.016l-.4-.383.673.039,1-1.418-.7-.183.084-.3a.717.717,0,0,0-.146-.708l.242-.344.5.62Z" transform="translate(-651.681 -609.417)" fill="#fbbd24"/>
          <path id="Trazado_1176242" data-name="Trazado 1176242" d="M801.326,756.968a1.463,1.463,0,0,1,.615.938l-.466.4-1.147.084Z" transform="translate(-654.708 -619.237)" fill="#fefefe"/>
          <path id="Trazado_1176243" data-name="Trazado 1176243" d="M771.415,789.625l.559-.006,5.092.133.024,2.658-1.835.044-2.87.052-.24-.152.11-2.135-10.248-.126c-.647-.435-4.724-.019-5.819-.219l.045-.037.013.07-.08-.056.131-.1.5-.056Z" transform="translate(-618.582 -645.948)" fill="#5ea2db"/>
          <path id="Trazado_1176244" data-name="Trazado 1176244" d="M788.266,792.219l10.248.126-.11,2.135.24.152-.406.009-9.831,0Z" transform="translate(-644.841 -648.074)" fill="#c3d1ec"/>
          <path id="Trazado_1176245" data-name="Trazado 1176245" d="M738.651,789.646l.821-.015-.5.056-.131.1.08.056-.013-.07-.045.037c1.1.2,5.172-.217,5.819.219l.141,2.424-8.581.008-.906-.06-.122-.228a5.31,5.31,0,0,1-.119-2.474l.4-.155Z" transform="translate(-601.252 -645.889)" fill="#c3d1ec"/>
          <path id="Trazado_1176246" data-name="Trazado 1176246" d="M757.318,805.249l2.87-.052-1.361,18.528-16.967-.081-1.153.085-2.739-16.956-.221-1.462.752-.043,8.581-.008,9.831,0Z" transform="translate(-603.514 -658.692)" fill="#d7413e"/>
          <path id="Trazado_1176247" data-name="Trazado 1176247" d="M752.85,819.712c1.049-.031,4.452-.351,5.183.195a3.493,3.493,0,0,1,.4,1.548c.1,1.47.02,3,.021,4.473a27.571,27.571,0,0,1-.089,4.363.921.921,0,0,1-.28.572,1.841,1.841,0,0,1-1.429.365c-1.317-.016-3.262.287-4.456-.27l-.438-1.471c-.183-1.281-1.085-8.742-.529-9.356.388-.429,1.088-.394,1.619-.42" transform="translate(-614.399 -670.466)" fill="#fa816e"/>
          <path id="Trazado_1176248" data-name="Trazado 1176248" d="M775.806,805.25l2.87-.052-1.361,18.528-16.967-.081a9.318,9.318,0,0,1,1.887-.516,14.037,14.037,0,0,0,4.6-2.058c3.8-2.691,6.458-7.5,7.742-11.927a36.052,36.052,0,0,0,.819-3.886Z" transform="translate(-622.002 -658.692)" fill="#b92d2d"/>
          <path id="Trazado_1176249" data-name="Trazado 1176249" d="M168.74,806.1l.35-.284.221,1.463,2.739,16.956,1.153-.085,16.967.081c1.042.018,4.488-.3,5.186.274l.334.62-.166.639a1.926,1.926,0,0,1-1.26.53,40.726,40.726,0,0,1-4.859-.014c-2.672-.022-5.35.03-8.022.044-10.673.057-21.348.049-32.022.045-18.139-.008-36.279-.112-54.418-.113-15.526,0-31.052.093-46.578.11-1.073,0-4.727.329-5.466-.363l-.288-.6.3-.817a1.584,1.584,0,0,1,1.052-.4c.589-.045,1.2.03,1.8.032,1.478,0,2.956,0,4.433,0q7.353-.007,14.705.006l.03-2.381a24.782,24.782,0,0,0,7.256.188c6.787-.73,13.189-2.786,19.628-4.962,2.6-.878,5.294-1.708,7.82-2.774l.4-.107,10.831-3.856,4.465-1.37a54.794,54.794,0,0,0-.867,7.476l-2.534,1.854,2.544.42.485.07,9.55,1.644.41.1,7.416,1.436,5.806,1.292.085.035.907.2.349.01a3.154,3.154,0,0,0,1.511-.343,26.106,26.106,0,0,0,2.375-1.811c1.413-1.08,2.854-2.126,4.288-3.179q2.4-1.764,4.831-3.491a20.582,20.582,0,0,0,2.7-1.98l2.131.3a16.315,16.315,0,0,0,3.214-.535l2.078-.6a10.287,10.287,0,0,0,2.312-1.875l1.089-.959a19.174,19.174,0,0,0,2.731-2.925" transform="translate(-34.856 -659.201)" fill="#354ba6"/>
          <path id="Trazado_1176250" data-name="Trazado 1176250" d="M534.808,894.523l5.806,1.292.039,1.131-6.053-.061Z" transform="translate(-437.329 -731.764)" fill="#06084d"/>
          <path id="Trazado_1176251" data-name="Trazado 1176251" d="M165.142,893.9a24.786,24.786,0,0,0,7.256.188l.039,2.194h-7.326Z" transform="translate(-135.07 -731.25)" fill="#859228"/>
          <path id="Trazado_1176252" data-name="Trazado 1176252" d="M492.541,886.63l7.416,1.436-.208,2.362L492,890.369c.154-.922.069-3.026.543-3.739" transform="translate(-402.479 -725.307)" fill="#737517"/>
          <path id="Trazado_1176253" data-name="Trazado 1176253" d="M435.4,876.68l.485.07,9.55,1.644.41.1c-.474.713-.389,2.817-.543,3.739l-.862-.014-9.139.025-.385-.072Z" transform="translate(-355.785 -717.168)" fill="#859228"/>
          <path id="Trazado_1176254" data-name="Trazado 1176254" d="M602.71,806.1l.35-.284.22,1.463,2.739,16.956-19.522-.028-12.04-.006-1.355-.718.349.01a3.155,3.155,0,0,0,1.511-.343,26.132,26.132,0,0,0,2.375-1.811c1.413-1.08,2.854-2.126,4.288-3.179q2.4-1.764,4.831-3.491a20.583,20.583,0,0,0,2.7-1.98l2.131.3a16.317,16.317,0,0,0,3.214-.535l2.078-.6a10.287,10.287,0,0,0,2.312-1.875l1.089-.959a19.18,19.18,0,0,0,2.731-2.925" transform="translate(-468.827 -659.201)" fill="#0b4f67"/>
          <path id="Trazado_1176255" data-name="Trazado 1176255" d="M646.72,830.786l1.681-.5c7.336-2.529,11.9-9.77,15.1-16.427l2.739,16.956Z" transform="translate(-529.049 -665.776)" fill="#4e86c9"/>
          <path id="Trazado_1176256" data-name="Trazado 1176256" d="M243.837,824.464l4.465-1.37a54.8,54.8,0,0,0-.867,7.476l-2.534,1.854,2.544.42-.483,5.488.385.072-4.473.017-37.678-.063-.039-2.194c6.787-.731,13.189-2.786,19.628-4.962,2.6-.878,5.294-1.708,7.82-2.774l.4-.107Z" transform="translate(-167.829 -673.332)" fill="#b1cd4c"/>
          <path id="Trazado_1176257" data-name="Trazado 1176257" d="M413.414,824.464l4.465-1.37a54.794,54.794,0,0,0-.867,7.476l-2.534,1.854,2.544.42-.483,5.488.385.072-4.473.017Z" transform="translate(-337.406 -673.332)" fill="#0f7682"/>
          <path id="Trazado_1176258" data-name="Trazado 1176258" d="M440.9,659.551a4.319,4.319,0,0,1,3.359.191l.818.583a6.2,6.2,0,0,1-.648,2.85l.5.386,3.689,3.333,1.765,1.883,2.205,2.244.459.462,1.348,1.775,1.073,1.9.182.535.092.894,4.8,4.24a2.012,2.012,0,0,1,.767-1.262,1.208,1.208,0,0,1,1.052-.081c1.417.466,5.324,5.115,5.842,5.026a31.091,31.091,0,0,1,4.864,5.616,10.287,10.287,0,0,1-2.312,1.875l-2.078.6a16.31,16.31,0,0,1-3.214.535l-2.131-.3a20.576,20.576,0,0,1-2.7,1.981q-2.43,1.725-4.831,3.491c-1.434,1.053-2.874,2.1-4.288,3.179a26.151,26.151,0,0,1-2.375,1.811,3.154,3.154,0,0,1-1.511.343l-.349-.01-.907-.2-.085-.035-5.806-1.292-7.416-1.436-.41-.1-9.55-1.644-.485-.07-2.544-.42,2.534-1.854a54.794,54.794,0,0,1,.867-7.476l.179-3.868-1.482.559-2.878-10.732.6-.27,3.29-1.39-.063-.627c1.385-1.125,2.761-3.154,4.465-3.75a27.6,27.6,0,0,0,1.709-2.424,13.645,13.645,0,0,1,3.558-3.1c.409-.257.851-.461,1.25-.732l.152-.105.368-.147,1.936-.973,1.366-.7,1.619-.782Z" transform="translate(-343.013 -539.342)" fill="#c3d1ec"/>
          <path id="Trazado_1176259" data-name="Trazado 1176259" d="M631.024,788.088l-.065-.522a2.137,2.137,0,0,1,1.247-.784,2.074,2.074,0,0,1,1.533.483l2.907,2.925c.94.916,4.849,5.648,5.183,6.682a16.3,16.3,0,0,1-3.214.535l-2.131-.3a23.748,23.748,0,0,1-1.54-2.235,41.238,41.238,0,0,1-3.92-6.777" transform="translate(-516.156 -643.608)" fill="#f9be9c"/>
          <path id="Trazado_1176260" data-name="Trazado 1176260" d="M631.315,794.064l7.591,9.318-2.131-.3a23.74,23.74,0,0,1-1.54-2.235,41.243,41.243,0,0,1-3.92-6.777" transform="translate(-516.447 -649.584)" fill="#d96e59"/>
          <path id="Trazado_1176261" data-name="Trazado 1176261" d="M645.989,771.216a2.012,2.012,0,0,1,.768-1.262,1.208,1.208,0,0,1,1.052-.081c1.417.466,5.324,5.115,5.842,5.026a31.093,31.093,0,0,1,4.864,5.616,10.287,10.287,0,0,1-2.312,1.875l-2.078.6c-.334-1.033-4.243-5.766-5.183-6.682l.378-.373c0-.185-.713-.806-.886-1a11.04,11.04,0,0,1-2.411-3.666Z" transform="translate(-528.451 -629.727)" fill="#f9be9c"/>
          <path id="Trazado_1176262" data-name="Trazado 1176262" d="M646.166,777.907c.8.341,8.138,9.506,10.181,11.122l-2.078.6c-.334-1.033-4.243-5.766-5.183-6.682l.378-.373c0-.185-.713-.806-.886-1a11.04,11.04,0,0,1-2.411-3.666" transform="translate(-528.596 -636.367)" fill="#d96e59"/>
          <path id="Trazado_1176263" data-name="Trazado 1176263" d="M451.777,751.063c.552-.373.608-.907,1.056-1.269l.251.112a8.338,8.338,0,0,0,2.709,2.613c-4.515,2.595-8.674,5.625-12.932,8.6-3.088,2.161-6.239,4.255-9.284,6.475-2.37,1.729-4.655,3.54-6.957,5.353l-.485-.07-2.544-.42,2.534-1.854a29.323,29.323,0,0,0,2.483-1.688c2.594-1.8,5.092-3.719,7.6-5.642,3.073-2.361,6.228-4.616,9.289-6.989l.976-.647.766-.675,1.007-.849,1.283-.928a2.911,2.911,0,0,0,.962-1.215l.664-.525Z" transform="translate(-346.518 -613.369)" fill="#fefefe"/>
          <path id="Trazado_1176264" data-name="Trazado 1176264" d="M438.546,769.469a11.924,11.924,0,0,1,1.857.032,13.108,13.108,0,0,0,3.31-.424,13.607,13.607,0,0,0,6.522-3.828c.8-.825,1.785-2.251,2.865-2.658a2.27,2.27,0,0,1,1.6-.082,5.314,5.314,0,0,0,1.771,3.583l.1.063.32.44c-3.061,2.373-6.216,4.628-9.289,6.99-2.5,1.924-5,3.84-7.6,5.642a29.357,29.357,0,0,1-2.483,1.688,54.789,54.789,0,0,1,.867-7.476l.179-3.868Z" transform="translate(-357.912 -623.677)" fill="#859228"/>
          <path id="Trazado_1176265" data-name="Trazado 1176265" d="M440.9,659.551a4.319,4.319,0,0,1,3.359.191l.818.583a6.2,6.2,0,0,1-.648,2.85l.5.386,3.689,3.333,1.765,1.883,2.205,2.244.459.462,1.348,1.775,1.073,1.9.182.535.092.894-.294.983a3.108,3.108,0,0,1-2.1,1.094l-1.066-.174a8.337,8.337,0,0,1-2.709-2.613l-.251-.112c-.448.362-.5.9-1.056,1.269l-.628.384-.664.525a2.91,2.91,0,0,1-.962,1.215l-1.283.928-1.007.849-.766.675-.976.647-.32-.44-.1-.063a5.314,5.314,0,0,1-1.771-3.583,2.271,2.271,0,0,0-1.6.082c-1.079.407-2.062,1.833-2.865,2.658a13.607,13.607,0,0,1-6.522,3.828,13.108,13.108,0,0,1-3.31.424,11.916,11.916,0,0,0-1.857-.032l.02.1-1.482.559-2.878-10.732.6-.27,3.29-1.39-.063-.627c1.385-1.125,2.761-3.154,4.465-3.75a27.6,27.6,0,0,0,1.709-2.424,13.645,13.645,0,0,1,3.558-3.1c.409-.257.851-.461,1.25-.732l.152-.105.368-.147,1.936-.973,1.366-.7,1.619-.782Z" transform="translate(-343.013 -539.342)" fill="#f9be9c"/>
          <path id="Trazado_1176266" data-name="Trazado 1176266" d="M572.753,752.032l.839.862-.628.384-.465-.883Z" transform="translate(-468.332 -615.199)" fill="#ad6967"/>
          <path id="Trazado_1176267" data-name="Trazado 1176267" d="M552,742.515l2.426.187.157.249-.516,1.409Z" transform="translate(-451.562 -607.414)" fill="#a8a422"/>
          <path id="Trazado_1176268" data-name="Trazado 1176268" d="M563.359,746.323l.516-1.408,1.4,1.295-.254.363.465.883-.664.525-.2-.137Z" transform="translate(-460.856 -609.377)" fill="#06084d"/>
          <path id="Trazado_1176269" data-name="Trazado 1176269" d="M570.708,754.027l.465.883-.664.525-.2-.137a1.943,1.943,0,0,1,.4-1.271" transform="translate(-466.541 -616.831)" fill="#d96e59"/>
          <path id="Trazado_1176270" data-name="Trazado 1176270" d="M440.357,716.494c1.385-1.125,2.761-3.154,4.465-3.75-.961,1.555-2.662,3.664-4.4,4.377Z" transform="translate(-360.234 -583.06)" fill="#a8a422"/>
          <path id="Trazado_1176271" data-name="Trazado 1176271" d="M538,659.551a4.319,4.319,0,0,1,3.359.191l.818.583a6.2,6.2,0,0,1-.648,2.85,6.25,6.25,0,0,0-2.834-.773,3.5,3.5,0,0,0,1.887-1l.079-.342c-.226-.923-1.836-1.054-2.537-1.439Z" transform="translate(-440.109 -539.342)" fill="#fa816e"/>
          <path id="Trazado_1176272" data-name="Trazado 1176272" d="M505.612,733.417c-3.526-1.76-4.847-1.637-8.66-.791-.341.076-1.334.4-1.545.183l-.112.106.855-.254c.775-.189,1.529-.541,2.31-.751a10.569,10.569,0,0,1,8.245.674l1.333,1.021Z" transform="translate(-405.176 -598.316)" fill="#d96e59"/>
          <path id="Trazado_1176273" data-name="Trazado 1176273" d="M505.3,676.338a6.25,6.25,0,0,1,2.834.773l.5.386,3.689,3.333,1.765,1.883c-2.28-.551-4.73-4.207-7.833-5.041-3.065-.824-6.483,1.291-9.08,2.778a17.657,17.657,0,0,1,8.122-4.112" transform="translate(-406.717 -553.278)" fill="#d96e59"/>
          <path id="Trazado_1176274" data-name="Trazado 1176274" d="M515.391,711.386a9.278,9.278,0,0,1-1.165-1.46,19.145,19.145,0,0,0-5.764-4.7,3.83,3.83,0,0,0-1.6-.374c-1.626.019-4.948,1.411-6.506,2l-.014-.09c1.928-1.05,4.923-2.8,7.158-2.745,3.329.082,5.767,2.643,7.928,4.849a1.571,1.571,0,0,0-.268,1.449Z" transform="translate(-409.301 -575.923)" fill="#d96e59"/>
          <path id="Trazado_1176275" data-name="Trazado 1176275" d="M585.21,723.707l.459.462,1.348,1.775,1.073,1.9.182.535.092.894-.294.983a3.108,3.108,0,0,1-2.1,1.094l-1.066-.174a8.337,8.337,0,0,1-2.709-2.613l-.05-.467-.425-.608-.235-1.065a1.57,1.57,0,0,1,.268-1.449l.751.7a5.686,5.686,0,0,1,2.706-1.973" transform="translate(-475.63 -592.028)" fill="#f8a988"/>
          <path id="Trazado_1176276" data-name="Trazado 1176276" d="M592.76,740.558a2.8,2.8,0,0,1,1.131.729c.026.32-.07.4-.229.672a2.44,2.44,0,0,1-.9-1.4" transform="translate(-484.907 -605.813)" fill="#a05e7c"/>
          <path id="Trazado_1176277" data-name="Trazado 1176277" d="M590.087,723.707l.459.462a4.056,4.056,0,0,0-2.685,1.745l-.082.142-.4-.376a5.685,5.685,0,0,1,2.706-1.973" transform="translate(-480.507 -592.028)" fill="#d96e59"/>
          <path id="Trazado_1176278" data-name="Trazado 1176278" d="M601.84,749.406l.092.894-.294.982-.751.274a3.7,3.7,0,0,1-2.882-.83c.659-.277,1.559.081,2.284-.184.62-.227.889-.819,1.424-1.08Z" transform="translate(-489.199 -613.051)" fill="#f9be9c"/>
          <path id="Trazado_1176279" data-name="Trazado 1176279" d="M585.411,747.844l1.722,1.043.445.5.125.065a3.7,3.7,0,0,0,2.882.83l.751-.274a3.108,3.108,0,0,1-2.1,1.094l-1.066-.174a8.337,8.337,0,0,1-2.709-2.613Z" transform="translate(-478.895 -611.774)" fill="#fa816e"/>
          <path id="Trazado_1176280" data-name="Trazado 1176280" d="M581.753,730.679l.751.7.4.376.58.717a2.439,2.439,0,0,0,.9,1.4l-.517.967-1.722-1.043-.425-.608-.235-1.065a1.571,1.571,0,0,1,.268-1.449" transform="translate(-475.63 -597.732)" fill="#715698"/>
          <path id="Trazado_1176281" data-name="Trazado 1176281" d="M443.161,765.843l.184-.8c.176-.4,1.2-.425,1.592-.5a21.141,21.141,0,0,0,8.583-3.836,16.291,16.291,0,0,1,3.506-2.315,8.3,8.3,0,0,1,5.914.261c.88.361,1.717.837,2.593,1.215l-1.283.928-1.007.849-.766.675-.976.647-.32-.44-.1-.063a5.314,5.314,0,0,1-1.771-3.583,2.271,2.271,0,0,0-1.6.082c-1.079.407-2.062,1.833-2.865,2.658a13.607,13.607,0,0,1-6.522,3.828,13.1,13.1,0,0,1-3.31.424,11.924,11.924,0,0,0-1.857-.032" transform="translate(-362.528 -620.052)" fill="#fa816e"/>
          <path id="Trazado_1176282" data-name="Trazado 1176282" d="M531.93,763.021l3.53.981.4.264,1.007.671-1.007.849-.766.675-.976.647-.32-.44-.1-.063a5.314,5.314,0,0,1-1.771-3.583" transform="translate(-435.145 -624.189)" fill="#fabcb6"/>
          <path id="Trazado_1176283" data-name="Trazado 1176283" d="M542.2,778.761l.279-.54.511-.416.462.225.044.525-.976.647Z" transform="translate(-443.549 -636.283)" fill="#dacdc9"/>
          <path id="Trazado_1176284" data-name="Trazado 1176284" d="M549.493,768.413l.4.264,1.007.671-1.007.849-.766.675-.044-.525Z" transform="translate(-449.178 -628.6)" fill="#06084d"/>
          <path id="Trazado_1176285" data-name="Trazado 1176285" d="M553.537,769.862l1.007.671-1.007.849Z" transform="translate(-452.821 -629.785)" fill="#072572"/>
          <path id="Trazado_1176286" data-name="Trazado 1176286" d="M138.553,321.152l.145-.054c.194,2.387,3.2,7.36,4.686,9.248a20.1,20.1,0,0,0,2.848,2.923,35.751,35.751,0,0,0,5.748,3.778l3.482,1.391c.79.238,3.066,1.109,3.747.993l-.013-.243c2.566.687,6.5,2.979,8.807,4.36a26.434,26.434,0,0,0,2.624,1.595l.825.65.224,1.312.491,4.524c.645,9.583.715,18.425-1.018,27.92a48.967,48.967,0,0,1-1.766,7.344l-.5-.386a6.2,6.2,0,0,0,.648-2.85l-.818-.583a4.318,4.318,0,0,0-3.359-.191l-1.342.519-1.619.782-1.366.7-1.936.973-.368.147-.152.105c-.4.271-.841.475-1.25.732a13.647,13.647,0,0,0-3.558,3.1,27.6,27.6,0,0,1-1.709,2.424c-1.7.6-3.08,2.625-4.465,3.75l.063.627-3.29,1.39-.6.27,2.878,10.732,1.482-.559-.179,3.868-4.465,1.37-10.831,3.856-.4.107c-2.526,1.066-5.223,1.9-7.82,2.774-6.439,2.176-12.841,4.232-19.628,4.962a24.785,24.785,0,0,1-7.256-.188,19.106,19.106,0,0,1-11.782-7.249,16.489,16.489,0,0,1-2.923-6.282c-.9-4.168.09-13.583.765-17.951.4-1.674.585-4.153.86-5.917.579-3.7,1.272-7.385,1.995-11.062l.192-.681c.851-5.3,2.881-10.716,4.627-15.783l.58-1.649c.74-1.338,1.219-2.906,1.871-4.3a47.831,47.831,0,0,1,8.291-12.915l1.414-1.612c.9-.626,6.673-2.237,8.112-2.7l9.287-2.713,2.787-.851.016-.233c.773-1.032,4.8-2.615,6.161-3.339l5.588-1.859c1.126-2.339,2.5-4.54,3.176-7.069" transform="translate(-67.464 -262.674)" fill="#b1cd4c"/>
          <path id="Trazado_1176287" data-name="Trazado 1176287" d="M191.3,424.522c6.916,7.074,10.087,16.258,12.053,25.776a61.566,61.566,0,0,1,1.359,8.6l-2.789-.591c-.19-1.1-.255-2.239-.39-3.345-.249-2.027-.548-4.043-.917-6.052l-1.353-6.251c-1.159-4.561-3.7-11.326-6.984-14.734a11.038,11.038,0,0,0-2.391-1.794Z" transform="translate(-155.334 -347.28)" fill="#859228"/>
          <path id="Trazado_1176288" data-name="Trazado 1176288" d="M256.032,610.219l2.789.591.31.048,23.052,4.19-.846,7.264L259.51,618.9l-.025-.044-3.235-.594a65.1,65.1,0,0,0-.218-8.038" transform="translate(-209.447 -499.189)" fill="#fefefe"/>
          <path id="Trazado_1176289" data-name="Trazado 1176289" d="M256.032,610.219l2.789.591.31.048-.229.063.584,7.931-3.235-.594a65.1,65.1,0,0,0-.218-8.038" transform="translate(-209.447 -499.189)" fill="#dacdc9"/>
          <path id="Trazado_1176290" data-name="Trazado 1176290" d="M328.233,733.964l14.926-2.629,1.344,2.655,2.878,10.732,1.482-.559-.179,3.868-4.465,1.37-10.831,3.856-.4.107-.892-4.658c-.41-1.63-.692-3.294-1.1-4.927a86.129,86.129,0,0,0-3.125-9.754Z" transform="translate(-268.209 -598.268)" fill="#0f7682"/>
          <path id="Trazado_1176291" data-name="Trazado 1176291" d="M401.97,790.527l.993-.149a1.247,1.247,0,0,1,.757.756,1.608,1.608,0,0,1-.016,1.245.906.906,0,0,1-.618.512l-1.154-.21-.158-.174a1.539,1.539,0,0,1-.33-1.133,1.211,1.211,0,0,1,.527-.847" transform="translate(-328.391 -646.568)" fill="#06084d"/>
          <path id="Trazado_1176292" data-name="Trazado 1176292" d="M403.825,792.351a1.017,1.017,0,0,1,.882-.308l.538.421a1.063,1.063,0,0,1,.034.9l-.492.4a1.29,1.29,0,0,1-.924-.147,2.09,2.09,0,0,1-.038-1.27" transform="translate(-330.283 -647.914)" fill="#0f7682"/>
          <path id="Trazado_1176293" data-name="Trazado 1176293" d="M327.864,745.847l.369-.061a72.764,72.764,0,0,1,4.283,14.665l.87,4.627-.4.107-.892-4.657c-.41-1.63-.692-3.294-1.1-4.927a86.132,86.132,0,0,0-3.125-9.754" transform="translate(-268.209 -610.09)" fill="#06084d"/>
          <path id="Trazado_1176294" data-name="Trazado 1176294" d="M379.1,796.569l.815.023a1.684,1.684,0,0,1,1.175.755,1.6,1.6,0,0,1,.093,1.317,2.461,2.461,0,0,1-1.351,1.432l-1.058-.053a1.664,1.664,0,0,1-.987-.856,1.742,1.742,0,0,1-.024-1.35,2.275,2.275,0,0,1,1.337-1.268" transform="translate(-308.93 -651.633)" fill="#06084d"/>
          <path id="Trazado_1176295" data-name="Trazado 1176295" d="M381.151,799.023l.668.036a1.239,1.239,0,0,1,.8.489l.133.842a2.092,2.092,0,0,1-1.123,1.3l-.7.025a1.139,1.139,0,0,1-.727-.536,1.454,1.454,0,0,1-.074-1.163,1.654,1.654,0,0,1,1.027-.994" transform="translate(-310.89 -653.64)" fill="#0f7682"/>
          <path id="Trazado_1176296" data-name="Trazado 1176296" d="M369.779,801.837,369.6,805.7l-4.465,1.37L354.3,810.931l-.87-4.627L368.3,802.4Z" transform="translate(-289.126 -655.942)" fill="#0b4f67"/>
          <path id="Trazado_1176297" data-name="Trazado 1176297" d="M323.534,321.152l.145-.054c.194,2.387,3.2,7.36,4.686,9.248a20.1,20.1,0,0,0,2.848,2.923,35.749,35.749,0,0,0,5.748,3.778,46.042,46.042,0,0,1-2.625,6.117c-.942,1.7-2.734,5.273-4.653,5.829l-.17.045-.363-.021-.241.6-7.013,7.155-5.766,5.684c-2.14-7-3.914-14.167-5.664-21.271-.224-.909-1.552-7.124-1.872-7.534l.016-.233c.773-1.032,4.8-2.615,6.161-3.339l5.588-1.859c1.126-2.339,2.5-4.54,3.176-7.069" transform="translate(-252.444 -262.674)" fill="#0f7682"/>
          <path id="Trazado_1176298" data-name="Trazado 1176298" d="M362.054,368.346a10.249,10.249,0,0,0,.409,2.567c.772,2.218,2.926,4.249,4.68,5.756a23.949,23.949,0,0,0,9.429,5.146c-.942,1.7-2.734,5.273-4.653,5.829l-.17.045-.363-.021-.722-.164c-2.227-.844-7.245-8.27-8.595-10.474a34.641,34.641,0,0,1-1.846-3.441,21.018,21.018,0,0,1,1.83-5.243" transform="translate(-294.681 -301.325)" fill="#f9be9c"/>
          <path id="Trazado_1176299" data-name="Trazado 1176299" d="M374,321.152l.145-.054c.194,2.387,3.2,7.36,4.686,9.248a20.1,20.1,0,0,0,2.848,2.923,35.751,35.751,0,0,0,5.748,3.778,46.05,46.05,0,0,1-2.625,6.117,23.949,23.949,0,0,1-9.429-5.146c-1.755-1.507-3.908-3.538-4.681-5.756a10.252,10.252,0,0,1-.409-2.567l.54-1.473c1.126-2.339,2.5-4.54,3.176-7.069" transform="translate(-302.91 -262.674)" fill="#fa816e"/>
          <path id="Trazado_1176300" data-name="Trazado 1176300" d="M396.769,408.755l3.482,1.391c.79.238,3.066,1.109,3.747.993l-.013-.243c2.566.687,6.5,2.979,8.807,4.36a26.438,26.438,0,0,0,2.624,1.595l.825.65.224,1.312.491,4.524c.645,9.583.715,18.425-1.018,27.92a48.965,48.965,0,0,1-1.766,7.344l-.5-.387a6.2,6.2,0,0,0,.648-2.85l-.818-.583a4.318,4.318,0,0,0-3.359-.191l-1.342.519-1.619.782-1.366.7-1.936.972-.368.147-.152.105c-.4.271-.841.475-1.25.732a13.647,13.647,0,0,0-3.558,3.1,27.6,27.6,0,0,1-1.709,2.424c-1.7.6-3.08,2.625-4.465,3.75l.063.627-3.29,1.39c.015-3.178.058-6.354.044-9.532a43.113,43.113,0,0,0-.117-4.8c-.372-3.169-1.8-7.681-2.7-10.857-1.276-4.512-2.491-9.039-3.857-13.525l-.813-2.642,7.013-7.155.241-.6.363.021.17-.045c1.919-.556,3.711-4.131,4.653-5.829a46.05,46.05,0,0,0,2.625-6.117" transform="translate(-312.252 -334.382)" fill="#b1cd4c"/>
          <path id="Trazado_1176301" data-name="Trazado 1176301" d="M493.19,629.391l13.074-.438-.744,6.544-.818-.583a4.319,4.319,0,0,0-3.359-.191l-1.342.519Z" transform="translate(-403.454 -514.515)" fill="#fefefe"/>
          <path id="Trazado_1176302" data-name="Trazado 1176302" d="M452.926,609.1l4.8,4.049L464.537,619l-1.619.782-1.366.7-1.937.972-8.785-7.725-.992-.934,1.1-1.255.91-1.028.534-.625Z" transform="translate(-367.99 -498.277)" fill="#072572"/>
          <path id="Trazado_1176303" data-name="Trazado 1176303" d="M455.9,617.877l.91-1.028,11.067,9.274-1.366.7a72.037,72.037,0,0,1-6-5.034c-1.525-1.32-3.132-2.533-4.609-3.908" transform="translate(-372.946 -504.613)" fill="#3b6eb6"/>
          <path id="Trazado_1176304" data-name="Trazado 1176304" d="M450.94,622.5c1.477,1.376,3.084,2.589,4.609,3.908a72.026,72.026,0,0,0,6,5.033l-1.937.973-8.785-7.725-.992-.934Z" transform="translate(-367.99 -509.235)" fill="#072572"/>
          <path id="Trazado_1176305" data-name="Trazado 1176305" d="M430.983,408.755l3.482,1.391c.792,2.633,1.718,5.176,2.332,7.867,1.053,4.612,1.59,9.341,2.42,14l-7.1-4.557-.7,2.936a24.448,24.448,0,0,1-2.557-2.115c-1.459-1.247-2.928-2.468-4.494-3.582-.212-.151-.4-.365-.668-.32l-.172-3.424.008-.2.17-.045c1.919-.556,3.711-4.131,4.653-5.829a46.042,46.042,0,0,0,2.625-6.117" transform="translate(-346.466 -334.382)" fill="#0f7682"/>
          <path id="Trazado_1176306" data-name="Trazado 1176306" d="M423.527,475.764l8.591,6.5-.7,2.936a24.448,24.448,0,0,1-2.557-2.115c-1.459-1.247-2.928-2.468-4.494-3.582-.212-.151-.4-.365-.668-.32Z" transform="translate(-346.466 -389.199)" fill="#063054"/>
          <path id="Trazado_1176307" data-name="Trazado 1176307" d="M388.957,474.543l.363.021-.008.2.172,3.424c.264-.045.456.169.668.32,1.565,1.114,3.035,2.334,4.494,3.582a24.441,24.441,0,0,0,2.557,2.115l-2.915,13.774,2.358,1.831-.534.625-.91,1.028-1.1,1.255.992.934,8.785,7.725-.368.147-.152.105c-.4.271-.841.475-1.25.732a13.648,13.648,0,0,0-3.558,3.1,27.609,27.609,0,0,1-1.709,2.424c-1.7.6-3.08,2.625-4.465,3.75l.063.627-3.29,1.39c.015-3.178.058-6.354.044-9.532a43.113,43.113,0,0,0-.117-4.8c-.372-3.169-1.8-7.681-2.7-10.857-1.276-4.512-2.491-9.039-3.857-13.525L381.7,482.3l7.013-7.155Z" transform="translate(-312.252 -388.2)" fill="#0f7682"/>
          <path id="Trazado_1176308" data-name="Trazado 1176308" d="M429.243,614.894l.236-1.2,1.066,13.6-.078-.038c-.382-4.118-1.066-8.228-1.223-12.368" transform="translate(-351.142 -502.034)" fill="#063054"/>
          <path id="Trazado_1176309" data-name="Trazado 1176309" d="M420.487,474.543l.363.021-.008.2.172,3.424c.128,2.105.785,17.176,1.085,17.816l.043.285-.134.376.11,3.2-.236,1.2-.316-5.231L420.5,478.206l-.251-3.063Z" transform="translate(-343.782 -388.2)" fill="#06084d"/>
          <path id="Trazado_1176310" data-name="Trazado 1176310" d="M430.432,592.315a.806.806,0,0,1,.716.123l3,1.852,2.358,1.831-.534.625-.91,1.028-1.1,1.255-.444-.283a14.049,14.049,0,0,0-.943-1.8,24.756,24.756,0,0,1-2.1-4.346Z" transform="translate(-352.115 -484.51)" fill="#f9be9c"/>
          <path id="Trazado_1176311" data-name="Trazado 1176311" d="M388.716,477.839l.251,3.063a77.507,77.507,0,0,0-6.451,6.734l-.813-2.642Z" transform="translate(-312.252 -390.896)" fill="#063054"/>
          <path id="Trazado_1176312" data-name="Trazado 1176312" d="M424.47,494.556c.264-.045.456.169.668.32,1.565,1.114,3.035,2.334,4.494,3.582a24.441,24.441,0,0,0,2.557,2.115l-2.915,13.774-3-1.852a.806.806,0,0,0-.716-.123c-.3-.639-.957-15.711-1.085-17.816" transform="translate(-347.238 -404.566)" fill="#0f7682"/>
          <path id="Trazado_1176313" data-name="Trazado 1176313" d="M439.813,627.842l.444.283.992.934,8.785,7.725-.368.147-.152.105c-.4.271-.841.475-1.25.732a13.647,13.647,0,0,0-3.558,3.1A27.606,27.606,0,0,1,443,643.29c-1.7.6-3.08,2.625-4.465,3.75-.125-.834-.134-1.726-.194-2.57a34.316,34.316,0,0,1-.162-5.156c.451-2.595.641-5.285.995-7.9a22.369,22.369,0,0,1,.643-3.571" transform="translate(-358.409 -513.606)" fill="#b1cd4c"/>
          <path id="Trazado_1176314" data-name="Trazado 1176314" d="M449.168,642.836l1.114-8.306,8.785,7.725-.368.147Z" transform="translate(-367.442 -519.077)" fill="#fefefe"/>
          <path id="Trazado_1176315" data-name="Trazado 1176315" d="M102.013,433.384a11.039,11.039,0,0,1,2.391,1.794c3.289,3.408,5.825,10.173,6.984,14.734l1.353,6.251c.369,2.009.668,4.025.917,6.052.136,1.106.2,2.249.39,3.345a65.105,65.105,0,0,1,.218,8.038l3.235.594.025.044a59.383,59.383,0,0,1-1.568,17.787c3.73-.448,7.486-.94,11.16-1.736a86.123,86.123,0,0,1,3.125,9.754c.412,1.633.694,3.3,1.1,4.927l.892,4.658c-2.526,1.066-5.223,1.9-7.82,2.774-6.439,2.176-12.841,4.232-19.628,4.962a24.784,24.784,0,0,1-7.256-.188,19.106,19.106,0,0,1-11.782-7.249,16.489,16.489,0,0,1-2.923-6.282c-.9-4.168.09-13.583.765-17.951.4-1.674.585-4.153.86-5.917.579-3.7,1.272-7.385,1.995-11.062l.192-.68c.851-5.3,2.881-10.716,4.627-15.783l.58-1.649c.74-1.338,1.219-2.906,1.871-4.3a47.831,47.831,0,0,1,8.291-12.915" transform="translate(-67.464 -354.53)" fill="#0f7682"/>
          <path id="Trazado_1176316" data-name="Trazado 1176316" d="M155.022,755.059l.253-.017.087.119c1.143.428,2.536-.135,3.617.623l-4.853.726a17.5,17.5,0,0,0-9.746,5.636,20.645,20.645,0,0,0-1.41,2.151l.179-.521c1.349-3.616,4.912-6.28,8.419-7.615,1.069-.407,2.31-.56,3.331-1.041Z" transform="translate(-116.957 -617.662)" fill="#063054"/>
          <path id="Trazado_1176317" data-name="Trazado 1176317" d="M102.013,433.384a11.039,11.039,0,0,1,2.391,1.794c3.289,3.408,5.825,10.173,6.984,14.734l1.353,6.251c.369,2.009.668,4.025.917,6.052.136,1.106.2,2.249.39,3.345a65.105,65.105,0,0,1,.218,8.038l3.235.594.025.044a59.383,59.383,0,0,1-1.568,17.787l-4.366.481-2.106.148c-1.081-.757-2.475-.194-3.617-.623l-.087-.119-.253.017-1.12-.024-.086.011c-1.237.147-2.489.1-3.725.283a24.292,24.292,0,0,0-5.16,1.388c-.764.3-1.5.665-2.276.937,4.537-3.211,8.522-3.434,13.8-3.888,3.363-12.956,5.7-26.178,3.283-39.531a34.358,34.358,0,0,0-3.834-11.3l-2.812-3.924a41.412,41.412,0,0,0-3.633,5.256c-6.923,12.538-10.987,32.593-11.123,46.783a52.518,52.518,0,0,0,.3,7.348c.527,4.045,1.916,8.059,5.257,10.625,5.369,4.123,12.731,3.788,19.079,2.921,3.285-.449,6.5-1.13,9.739-1.844,2.727-.6,5.458-1.2,8.135-2l.892,4.658c-2.526,1.066-5.223,1.9-7.82,2.774-6.439,2.176-12.841,4.232-19.628,4.962a24.784,24.784,0,0,1-7.256-.188,19.106,19.106,0,0,1-11.782-7.249,16.489,16.489,0,0,1-2.923-6.282c-.9-4.168.09-13.583.765-17.951.4-1.674.585-4.153.86-5.917.579-3.7,1.272-7.385,1.995-11.062l.192-.68c.851-5.3,2.881-10.716,4.627-15.783l.58-1.649c.74-1.338,1.219-2.906,1.871-4.3a47.831,47.831,0,0,1,8.291-12.915" transform="translate(-67.464 -354.53)" fill="#0b4f67"/>
          <path id="Trazado_1176318" data-name="Trazado 1176318" d="M211.385,558.574c.369,2.009.668,4.025.917,6.052.136,1.106.2,2.249.39,3.345a65.1,65.1,0,0,1,.218,8.038l3.235.594.025.044a59.382,59.382,0,0,1-1.568,17.787l-4.366.481-2.106.148c-1.081-.757-2.475-.194-3.617-.623l-.087-.119-.253.017-1.12-.024a15.028,15.028,0,0,1,4.049-.152,32.83,32.83,0,0,0,1.989-7.288,118.2,118.2,0,0,0,2.033-19.654c.039-1.6.109-3.2.106-4.8a31.5,31.5,0,0,1-.024-3.437.753.753,0,0,1,.179-.414" transform="translate(-166.107 -456.941)" fill="#063054"/>
          <path id="Trazado_1176319" data-name="Trazado 1176319" d="M245.2,654.4l3.235.594.025.044A59.383,59.383,0,0,1,246.9,672.82l-4.366.481A85.78,85.78,0,0,0,245.2,654.4" transform="translate(-198.402 -535.328)" fill="#859228"/>
          <path id="Trazado_1176320" data-name="Trazado 1176320" d="M539.7,49.461c-.011-.972-.327-2.889.425-3.629.7-.689,4.2-.51,5.252-.453l1.053.142.73.98.014,4.72a22.187,22.187,0,0,1,6.233,2.432c.727-.721,2.569-2.921,3.616-2.876,1.187.05,3.762,2.5,4.521,3.428a2.1,2.1,0,0,1,.572,1.466c-.1,1.054-1.961,2.943-2.669,3.773a23.882,23.882,0,0,1,3.095,5.469c1.347-.187,3.444-.771,4.609.155l.332.3c.427,1.152,1.152,4.359.66,5.43a1.68,1.68,0,0,1-1.113.91l-1.394.39c1.549,2.41,3.1,4.89,4.455,7.414,9.689,18.077,13.168,38.2,8.769,58.349-2.355,10.788-7.8,22.554-14.976,31a28.768,28.768,0,0,1-3.5,3.7l-.116.067-.364-.011-1.162,1.269-.5-.62-.243.344-.365.185-.2-.1c-.618.1-1.587,1.132-2.148,1.489a48.17,48.17,0,0,1-5.79,3.2,7.807,7.807,0,0,1,.047,2.445l-3.158-.1-.4.155a5.31,5.31,0,0,0,.119,2.474l.122.228.906.06-.752.043-.35.284A19.175,19.175,0,0,1,543.3,186.9l-1.089.959a31.093,31.093,0,0,0-4.864-5.616c-.518.089-4.426-4.56-5.842-5.026a1.208,1.208,0,0,0-1.052.081,2.012,2.012,0,0,0-.767,1.262l-4.8-4.24-.092-.894-.182-.535-1.073-1.9-1.348-1.775-.458-.462-2.205-2.244-1.765-1.883-3.689-3.333a48.968,48.968,0,0,0,1.766-7.344c1.733-9.5,1.663-18.337,1.018-27.92l-.491-4.524-.224-1.312-.825-.65a26.443,26.443,0,0,1-2.624-1.595c-2.3-1.38-6.241-3.673-8.807-4.36l-.064-.216,1.172-.243c2.093-.5,3.5-2.862,4.585-4.515a22.99,22.99,0,0,0,1.971-3.866,27.187,27.187,0,0,0,2.574-7.731,6.465,6.465,0,0,0,3.548-1.887,6.868,6.868,0,0,0,1.914-4.779,6.365,6.365,0,0,0-2.441-4.555,3.591,3.591,0,0,1,1.052-.182,4.53,4.53,0,0,0,2.906-1.459,8.058,8.058,0,0,0,1-2.03c.883-.183,1.821-.2,2.717-.357a18,18,0,0,0,8.668-3.953l.524-.524.633-1.582.015-.351a4.389,4.389,0,0,0-2.171-1.5,73.244,73.244,0,0,0-9.5-2.371l-.276-2.762-1.041-3.813-2-4.476c.573-1.07,1.455-3.277,2.578-3.772,1.048-.462,4.1,1.371,5.266,1.842a30.619,30.619,0,0,1,3.024-2.969c-.385-1.178-2.412-3.817-2.381-4.773a2.02,2.02,0,0,1,.826-1.331c.835-.708,3.957-2.6,5.091-2.356.986.209,2.768,3.574,3.369,4.533l2.251-.46Z" transform="translate(-412.146 -37.071)" fill="#4e86c9"/>
          <path id="Trazado_1176321" data-name="Trazado 1176321" d="M798.5,745.912c.033-.381-.09-.761.156-1.074l.359-.035.295.677-.242.344-.365.185Z" transform="translate(-653.209 -609.286)" fill="#e39a13"/>
          <path id="Trazado_1176322" data-name="Trazado 1176322" d="M801.341,744.8l1.961.029L802.14,746.1l-.5-.62Z" transform="translate(-655.537 -609.286)" fill="#fefefe"/>
          <path id="Trazado_1176323" data-name="Trazado 1176323" d="M509.572,393.043l1.4.044,1.445,4.185a11.9,11.9,0,0,1,5.03-.31l1.488-3.949,5.4,2.346-1.643,3.584a14.492,14.492,0,0,1,3.215,3.015l3.183-1.742a53.257,53.257,0,0,1,2.517,5.656,15.233,15.233,0,0,1-3.856,1.1,10.949,10.949,0,0,1-.134,4.272l3.211,1.94-2.694,4.775a14.064,14.064,0,0,0-3.5-1.919l-3.007-5.634a18.735,18.735,0,0,0-5.485-5.788l-.825-.65a26.435,26.435,0,0,1-2.624-1.595c-2.3-1.38-6.241-3.673-8.807-4.36l-.064-.216,1.172-.243c2.093-.5,3.5-2.862,4.585-4.515" transform="translate(-412.146 -321.504)" fill="#5ea2db"/>
          <path id="Trazado_1176324" data-name="Trazado 1176324" d="M566.994,452.837a5.3,5.3,0,0,1,4.092.9,5.8,5.8,0,0,1,2.326,3.7,4.7,4.7,0,0,1-.109,1.841,18.734,18.734,0,0,0-5.485-5.788Z" transform="translate(-463.829 -370.369)" fill="#4e86c9"/>
          <path id="Trazado_1176325" data-name="Trazado 1176325" d="M562.227,456.819a18.735,18.735,0,0,1,5.485,5.788l3.007,5.634c4.049,9.751,6.6,21.662,8.1,32.122l.078.069-9.276,7.184-1.348-1.775-.458-.462-2.205-2.244-1.765-1.883-3.689-3.333a48.969,48.969,0,0,0,1.766-7.344c1.733-9.5,1.663-18.337,1.018-27.92l-.491-4.524Z" transform="translate(-458.238 -373.701)" fill="#0b4f67"/>
          <path id="Trazado_1176326" data-name="Trazado 1176326" d="M571.526,456.819a18.735,18.735,0,0,1,5.485,5.788l3.007,5.634c4.049,9.751,6.6,21.662,8.1,32.122l-.3.054a.823.823,0,0,1-.41-.588,28.718,28.718,0,0,1-.551-3.189c-.3-1.774-.645-3.555-1.044-5.309-1.919-8.439-4.636-18.651-8.76-26.228-.811-1.489-3.835-6.537-5.308-6.972Z" transform="translate(-467.537 -373.701)" fill="#063054"/>
          <path id="Trazado_1176327" data-name="Trazado 1176327" d="M562.943,488.9a1.237,1.237,0,0,1,.768.7,19.013,19.013,0,0,1,1.7,6.03c1.4,7.894.786,15.839-.331,23.727-.254,1.791-.566,3.575-.85,5.361a25.541,25.541,0,0,0-.38,2.775l-3.689-3.333a48.969,48.969,0,0,0,1.766-7.344c1.733-9.5,1.663-18.337,1.018-27.92" transform="translate(-458.238 -399.941)" fill="#063054"/>
          <path id="Trazado_1176328" data-name="Trazado 1176328" d="M621.458,664.22c1.473-1.272,3.072-2.388,4.551-3.65,1.339-1.142,2.445-2.733,4.028-3.533,4.256,1.205,8.541,2.324,12.823,3.431a51.539,51.539,0,0,1,6.116,1.615,1.648,1.648,0,0,1,.784.683,1.416,1.416,0,0,1,.127,1.141l-.6.888c-2.766,2.363-5.644,4.587-8.5,6.844a27.972,27.972,0,0,1-3.646,2.8l1,4.357a7.807,7.807,0,0,1,.047,2.445l-3.158-.1-.4.155a5.311,5.311,0,0,0,.119,2.474l.122.228.906.06-.752.043-.35.284a19.185,19.185,0,0,1-2.731,2.925l-1.089.959A31.1,31.1,0,0,0,626,682.661c-.518.089-4.426-4.56-5.842-5.026a1.208,1.208,0,0,0-1.052.081,2.012,2.012,0,0,0-.767,1.262l-4.8-4.24-.092-.894-.182-.535-1.073-1.9Z" transform="translate(-500.795 -537.489)" fill="#c3d1ec"/>
          <path id="Trazado_1176329" data-name="Trazado 1176329" d="M717.2,731.374a22.508,22.508,0,0,0,.387,2.485c.241.644,1.042,2.3.763,2.909l-.054.1-1-2.682a3.683,3.683,0,0,1-.093-2.816" transform="translate(-586.513 -598.3)" fill="#f8a988"/>
          <path id="Trazado_1176330" data-name="Trazado 1176330" d="M718.262,724.081a2.984,2.984,0,0,1,1.234-1.526,1.407,1.407,0,0,1,1.161.069c1.572.732,2.7,3.551,3.206,5.1l.06.24,1,4.357a7.809,7.809,0,0,1,.047,2.445l-3.158-.1-2.167-4.506-.29-.581.054-.1c.279-.605-.523-2.265-.763-2.909a22.52,22.52,0,0,1-.387-2.485" transform="translate(-587.574 -591.007)" fill="#f9be9c"/>
          <path id="Trazado_1176331" data-name="Trazado 1176331" d="M666.246,733.3a3.334,3.334,0,0,1,.925.56,41.971,41.971,0,0,1,3.977,4.432,29.605,29.605,0,0,1,2.05,2.458l2.559-1.723,2.167,4.506-.4.155a5.311,5.311,0,0,0,.119,2.474l.122.228.906.06-.752.043-.35.284a19.176,19.176,0,0,1-2.731,2.925l-1.089.959a31.1,31.1,0,0,0-4.864-5.616l1.311-.722c-.841-1.137-1.576-2.4-2.347-3.591-.883-1.363-1.869-2.728-2.614-4.17a6.428,6.428,0,0,1-.579-1.516,1.2,1.2,0,0,1,.174-1.054,2.519,2.519,0,0,1,1.418-.694" transform="translate(-543.684 -599.879)" fill="#f9be9c"/>
          <path id="Trazado_1176332" data-name="Trazado 1176332" d="M714.372,764.781l2.167,4.506-.4.155a5.31,5.31,0,0,0,.119,2.474l.122.228.906.06-.752.043-.35.284-4.369-6.028Z" transform="translate(-582.298 -625.629)" fill="#d96e59"/>
          <path id="Trazado_1176333" data-name="Trazado 1176333" d="M664.854,742.912a16.158,16.158,0,0,1,2.1,2.783c1.121,1.555,2.279,3.084,3.332,4.687,1.509,2.3,3.14,5.033,4.747,7.186l-1.089.959a31.093,31.093,0,0,0-4.864-5.616l1.311-.722c-.841-1.137-1.576-2.4-2.347-3.591-.883-1.363-1.869-2.728-2.614-4.17a6.429,6.429,0,0,1-.579-1.516" transform="translate(-543.884 -607.739)" fill="#d96e59"/>
          <path id="Trazado_1176334" data-name="Trazado 1176334" d="M621.458,664.22c1.473-1.272,3.072-2.388,4.551-3.65,1.339-1.142,2.445-2.733,4.028-3.533,4.256,1.205,8.541,2.324,12.823,3.431a51.539,51.539,0,0,1,6.116,1.615,1.648,1.648,0,0,1,.784.683,1.416,1.416,0,0,1,.127,1.141l-.6.888c-1.732-.3-3.441-.792-5.146-1.219-4.518-1.13-9-2.45-13.528-3.531-1.735,1.277-3.334,2.763-5.037,4.089-2.507,1.953-5.109,3.772-7.63,5.7-1.327,1.016-3.23,2.821-4.691,3.473l-1.073-1.9Z" transform="translate(-500.795 -537.489)" fill="#fefefe"/>
          <path id="Trazado_1176335" data-name="Trazado 1176335" d="M609.828,251.976a20.589,20.589,0,0,0,5.584,6.192l-1.719,4.139.114.207a2.785,2.785,0,0,0,1.256,1.446c.914.575,3.549,1.933,4.531,1.673,1.191-.314,2.314-2.737,2.951-3.775a26.6,26.6,0,0,0,6.583,0c.654,1.153,1.6,3.5,2.78,4.139a2.776,2.776,0,0,0,1.87-.056c1.348-.37,3.737-1.073,4.435-2.379.474-.888-.789-4.013-1.107-5.023a22.612,22.612,0,0,0,4.654-4.249c1.35.412,3.386,1.643,4.724,1.541a2.145,2.145,0,0,0,1.56-.944.808.808,0,0,1-.022.772,8.025,8.025,0,0,1-1.255,1.758,34.335,34.335,0,0,1-6.423,5.759c.693.959,1.055,3.6,1.614,4.927a12.1,12.1,0,0,1,6.658,2.793,9.937,9.937,0,0,0,2.7-.944c1.434,1.094,3.245,4.382,3.854,6.151l-2.239,1.864a10.308,10.308,0,0,1-.219,5.4l4.272,2.938a16.078,16.078,0,0,1-2.285,5.509,15.61,15.61,0,0,1-4.211-.6l-1.064.924a17.567,17.567,0,0,0-9.589-5.017,15.351,15.351,0,0,0-2.786-.336,17.952,17.952,0,0,0-12.561,5.242,16.338,16.338,0,0,0-2.441,3.384c-1.031-.46-5.7-1.975-6.179-2.715l-.077-.507a1.317,1.317,0,0,1,.6-.89c.415-.224,4.457,1.02,5.251,1.227l1.736-1.5-.716-1.3a5.668,5.668,0,0,1-.242-4.753,3.949,3.949,0,0,0-1.01-1.7c-.289-1.823,1.954-7.742,2.551-9.829l3.925,1.289,2.024-3.142-.339-3.261c-1.45.05-2.9.277-4.349.279a30.222,30.222,0,0,1-10.776-2.236,2.1,2.1,0,0,1-1.226-1.087c-.2-.634.357-1.517.618-2.067l-.4-.448c-1.975-1.4-7.632-5.875-8.319-8,1.735-.531,3.176-1.854,4.7-2.8" transform="translate(-495.021 -206.129)" fill="#3b6eb6"/>
          <path id="Trazado_1176336" data-name="Trazado 1176336" d="M758.833,359.976a13.387,13.387,0,0,1,2.863.172l-.279,1.6,1.477.722,1.022-1.412,1.988,1.553-1.166,1.284.937,1.028,1.456-.719.852,2.6-.107.005-1.141.145a1.083,1.083,0,0,0-.586.676l.177.614c.428.583,1.012.6,1.671.7l-.787,2.3c-.388-.22-.888-.574-1.361-.452-.5.13-.811.8-1.059,1.216l1.171.979-2.289,1.733-.828-1.589-1.533.467.214,1.677-3.054-.316.094-1.475-1.591-.613c-.19.383-.409,1.217-.813,1.388-.83-.08-1.887-1.2-2.465-1.755l1.324-1.045-.863-1.327-1.63.648a11.5,11.5,0,0,1-.664-2.687,3.132,3.132,0,0,0,1.669-.214,2.631,2.631,0,0,0,.268-1.292,5.081,5.081,0,0,0-1.722-.777,7.317,7.317,0,0,1,1.092-2.324l1.375.887.922-1.037-.859-1.358a6.653,6.653,0,0,1,2-1.222l.623,1.25,1.487-.277Z" transform="translate(-615.063 -294.47)" fill="#a9e9f6"/>
          <path id="Trazado_1176337" data-name="Trazado 1176337" d="M782.716,386.555a3.656,3.656,0,0,1,1.737.236,2.92,2.92,0,0,1,1.609,1.664,2.665,2.665,0,0,1-.119,2.076,2.957,2.957,0,0,1-4.211,1.358,2.965,2.965,0,0,1-1.433-1.807,2.771,2.771,0,0,1,.26-2.105,3.25,3.25,0,0,1,2.158-1.421" transform="translate(-638.242 -316.211)" fill="#3b6eb6"/>
          <path id="Trazado_1176338" data-name="Trazado 1176338" d="M688.53,451.923a16.344,16.344,0,0,1,2.441-3.384,17.953,17.953,0,0,1,12.561-5.242,15.348,15.348,0,0,1,2.785.336,17.568,17.568,0,0,1,9.589,5.017,18.677,18.677,0,0,1,1.831,2.245,17.281,17.281,0,0,1,2.622,9.906,17.076,17.076,0,0,1-5.52,11.927,17.863,17.863,0,0,1-12.874,4.405,16.6,16.6,0,0,1-15.52-18.075,19.306,19.306,0,0,1,2.084-7.135" transform="translate(-561.503 -362.639)" fill="#7bd2f8"/>
          <path id="Trazado_1176339" data-name="Trazado 1176339" d="M777.625,445.63l.071,0a1.363,1.363,0,0,1,1.086.435l.053.593a1.664,1.664,0,0,1-.861.8l-.713-.117a1.125,1.125,0,0,1-.544-.747l.182-.651Z" transform="translate(-635.395 -364.547)" fill="#4e86c9"/>
          <path id="Trazado_1176340" data-name="Trazado 1176340" d="M773.956,616l.432.042a1.087,1.087,0,0,1,.742.534l.012.679c-.159.406-.495.555-.858.74l-.43-.037a1.107,1.107,0,0,1-.725-.572l-.008-.7c.152-.4.475-.52.835-.684" transform="translate(-632.451 -503.922)" fill="#4e86c9"/>
          <path id="Trazado_1176341" data-name="Trazado 1176341" d="M851.212,569.438l.32-.019a1.367,1.367,0,0,1,1.071.394l.211.65c-.056.414-.337.6-.645.835l-.427.067a1.082,1.082,0,0,1-.854-.391l-.229-.8c.04-.375.276-.525.552-.736" transform="translate(-695.882 -465.812)" fill="#4e86c9"/>
          <path id="Trazado_1176342" data-name="Trazado 1176342" d="M703.32,483.935l.361.008a1.138,1.138,0,0,1,.79.445,1.008,1.008,0,0,1,.172.832,1.4,1.4,0,0,1-.75.89l-.2.017a1.075,1.075,0,0,1-.908-.3l-.207-.691a1.657,1.657,0,0,1,.74-1.2" transform="translate(-574.745 -395.883)" fill="#4e86c9"/>
          <path id="Trazado_1176343" data-name="Trazado 1176343" d="M847.786,486.427a1.562,1.562,0,0,1,1.307.422.932.932,0,0,1,.263.763,1.378,1.378,0,0,1-.728.953l-.464.048-.719-.317-.272-.775a1.437,1.437,0,0,1,.612-1.093" transform="translate(-693.03 -397.921)" fill="#4e86c9"/>
          <path id="Trazado_1176344" data-name="Trazado 1176344" d="M698,568.939h.076a1.457,1.457,0,0,1,1.147.53l.216.841c-.063.542-.407.791-.821,1.094l-.5-.031a1.36,1.36,0,0,1-.764-.646,1.263,1.263,0,0,1,.643-1.789" transform="translate(-570.352 -465.42)" fill="#4e86c9"/>
          <path id="Trazado_1176345" data-name="Trazado 1176345" d="M715.449,459.342l.176-.024a13.769,13.769,0,0,1,9.731,3,14.14,14.14,0,0,1,1.953,20.187,14.922,14.922,0,0,1-9.747,5.055l-.1.015a14.181,14.181,0,0,1-9.561-2.855,14.222,14.222,0,0,1,7.545-25.381" transform="translate(-574.585 -375.699)" fill="#5ea2db"/>
          <path id="Trazado_1176346" data-name="Trazado 1176346" d="M717.316,461.05l.11-.013a14.028,14.028,0,0,1,9.455,3.205,14.362,14.362,0,0,1,4.875,9.555,14.073,14.073,0,0,1-3.465,10.145,14.48,14.48,0,0,1-9.448,4.721l-.37.044a13.657,13.657,0,0,1-9.354-3.111,13.887,13.887,0,0,1,8.2-24.547" transform="translate(-575.981 -377.132)" fill="#7bd2f8"/>
          <path id="Trazado_1176347" data-name="Trazado 1176347" d="M759.065,512.964a4.51,4.51,0,0,1,2.81.565,4.382,4.382,0,0,1,1.978,2.753,4.184,4.184,0,0,1-.562,3.269,4.441,4.441,0,0,1-6.191,1.316,4.155,4.155,0,0,1-1.748-2.653,4.409,4.409,0,0,1,.677-3.311,4.716,4.716,0,0,1,3.037-1.938" transform="translate(-617.849 -419.605)" fill="#5ea2db"/>
          <path id="Trazado_1176348" data-name="Trazado 1176348" d="M610.966,49.461c-.011-.972-.327-2.889.425-3.629.7-.689,4.2-.51,5.252-.453l1.053.142.73.98.014,4.72a22.187,22.187,0,0,1,6.233,2.432c.727-.721,2.569-2.921,3.616-2.876,1.187.05,3.762,2.5,4.521,3.428a2.1,2.1,0,0,1,.572,1.466c-.1,1.054-1.961,2.943-2.668,3.773a23.881,23.881,0,0,1,3.095,5.469c1.347-.187,3.444-.771,4.609.155l.332.3c.426,1.152,1.152,4.359.66,5.43a1.68,1.68,0,0,1-1.113.91l-1.394.39-1.813.465a18.2,18.2,0,0,1-.958,5.418c.849.607,4.053,2.47,4.257,3.245.221.84-1.508,3.717-1.956,4.6a2.145,2.145,0,0,1-1.56.944c-1.338.1-3.373-1.13-4.724-1.541a22.613,22.613,0,0,1-4.654,4.249c.318,1.009,1.581,4.135,1.107,5.023-.7,1.306-3.086,2.009-4.435,2.379a2.776,2.776,0,0,1-1.87.056c-1.179-.636-2.126-2.986-2.78-4.139a26.6,26.6,0,0,1-6.583,0c-.637,1.038-1.76,3.461-2.951,3.775-.982.259-3.618-1.1-4.531-1.673a2.784,2.784,0,0,1-1.256-1.446l-.114-.207L603.8,89.11a20.587,20.587,0,0,1-5.584-6.192c-1.529.945-2.97,2.268-4.7,2.8l-1.152-1.566a8.059,8.059,0,0,0,1-2.03c.883-.183,1.821-.2,2.717-.357a18,18,0,0,0,8.669-3.953l.524-.524.633-1.582.015-.351a4.389,4.389,0,0,0-2.171-1.5,73.245,73.245,0,0,0-9.5-2.371l-.276-2.762-1.041-3.813-2-4.476c.573-1.07,1.455-3.277,2.578-3.772,1.048-.462,4.1,1.371,5.266,1.842a30.618,30.618,0,0,1,3.024-2.969c-.385-1.178-2.412-3.817-2.381-4.773a2.02,2.02,0,0,1,.826-1.331c.835-.708,3.957-2.6,5.091-2.356.986.209,2.768,3.574,3.369,4.533l2.251-.46Z" transform="translate(-483.41 -37.071)" fill="#fa816e"/>
          <path id="Trazado_1176349" data-name="Trazado 1176349" d="M601.908,153l2.025,1.154a5.242,5.242,0,0,1-.984,2.659Z" transform="translate(-492.391 -125.158)" fill="#4e86c9"/>
          <path id="Trazado_1176350" data-name="Trazado 1176350" d="M661.292,144.886c-.12-3.622.36-6.573,2.923-9.338a10.344,10.344,0,0,1,7.533-3.4,10.584,10.584,0,0,1,10.919,10.364,10.544,10.544,0,0,1-2.971,7.576,10.718,10.718,0,0,1-7.619,3.273,10.587,10.587,0,0,1-7.657-3.2l-1.6-1.842.633-1.582.015-.351a4.389,4.389,0,0,0-2.171-1.5" transform="translate(-540.956 -108.102)" fill="#4e86c9"/>
          <path id="Trazado_1176351" data-name="Trazado 1176351" d="M695.754,162.1a5.533,5.533,0,0,1,3.243.759,5.439,5.439,0,0,1,2.44,3.445,5.267,5.267,0,0,1-.752,4.018,5.477,5.477,0,0,1-3.79,2.334,5.639,5.639,0,0,1-3.825-1.059,5.247,5.247,0,0,1-2.1-3.473,5.469,5.469,0,0,1,1.064-4.047,5.362,5.362,0,0,1,3.717-1.976" transform="translate(-565.209 -132.596)" fill="#fa816e"/>
          <path id="Trazado_1176352" data-name="Trazado 1176352" d="M16.132,131.163c-4.922-5.616-9.392-14.689-11.757-21.743a82.643,82.643,0,0,1,51.893-105,87.587,87.587,0,0,1,10.4-2.855,85.91,85.91,0,0,1,48.468,4.759,88.628,88.628,0,0,1,8.141,3.711c1.442.755,2.823,1.627,4.278,2.356l-.012,1.684-2.251.46c-.6-.959-2.384-4.324-3.369-4.533-1.134-.241-4.256,1.648-5.091,2.356a2.02,2.02,0,0,0-.826,1.331c-.031.956,2,3.6,2.381,4.773a30.621,30.621,0,0,0-3.024,2.969c-1.162-.471-4.218-2.3-5.266-1.842-1.124.5-2.005,2.7-2.578,3.772l2,4.476,1.041,3.813.276,2.762a73.245,73.245,0,0,1,9.5,2.371,4.389,4.389,0,0,1,2.171,1.5l-.015.351-.633,1.582-.524.524a18,18,0,0,1-8.668,3.953c-.9.162-1.834.174-2.717.357a8.058,8.058,0,0,1-1,2.03,4.53,4.53,0,0,1-2.906,1.459,3.592,3.592,0,0,0-1.052.182,6.365,6.365,0,0,1,2.441,4.555,6.868,6.868,0,0,1-1.914,4.779,6.465,6.465,0,0,1-3.548,1.887A27.188,27.188,0,0,1,99.4,67.674a22.993,22.993,0,0,1-1.971,3.866c-1.084,1.654-2.492,4.017-4.585,4.515l-1.172.243.064.216.013.243c-.682.116-2.957-.754-3.747-.993l-3.482-1.391A35.751,35.751,0,0,1,78.769,70.6a20.1,20.1,0,0,1-2.848-2.923c-1.484-1.888-4.492-6.86-4.686-9.248l-.145.054c-.678,2.529-2.05,4.73-3.176,7.069l-5.588,1.859c-1.358.724-5.388,2.307-6.161,3.339l-.016.233-2.787.851-9.287,2.713c-1.439.463-7.216,2.074-8.112,2.7l-1.414,1.612A47.831,47.831,0,0,0,26.258,91.77c-.652,1.4-1.132,2.963-1.871,4.3l-.58,1.649c-1.746,5.067-3.776,10.482-4.627,15.783l-.192.68c-.723,3.677-1.416,7.359-1.995,11.062-.276,1.764-.457,4.243-.86,5.917" transform="translate(0 0)" fill="#4e86c9"/>
          <path id="Trazado_1176353" data-name="Trazado 1176353" d="M105.5,259.575c.644.53,4.369,2.449,4.451,2.848l.01.583-3.779-.7a1.319,1.319,0,0,1-.836-.67,3.189,3.189,0,0,1,.154-2.059" transform="translate(-86.083 -212.345)" fill="#3b6eb6"/>
          <path id="Trazado_1176354" data-name="Trazado 1176354" d="M58.3,464.4c.117-3.1.027-6.235.031-9.34q.012-9.162.007-18.324c0-.774.02-6.981-.028-7.026-.218-.2-.546-.11-.79-.382l.155-.322,9.448-.041.114,18.021-.58,1.649c-.326-.762-.147-16.82-.151-19.039l-7.529-.025-.01,34.855,3.062-.009-.192.68-8.509,0q-.063-8.371-.074-16.744c0-1.7.2-9.605-.077-10.435l-.119.068-.516.261-.134-.1-.029-.252c.167-.561.879-1.017,1.316-1.38l1.209,1.183-.025.423-.818-.243-.1,26.552Z" transform="translate(-42.85 -350.915)" fill="#fefefe"/>
          <path id="Trazado_1176355" data-name="Trazado 1176355" d="M91.652,287.561l2.856.556c-.837.5-3.547,1.935-3.813,2.847-.254.874.946,4.031,1.494,4.79a1.278,1.278,0,0,0,.936.636l4.829-.3,1.527,1.942c-.364.987-2.275,4.864-1.944,5.549.522,1.079,3.579,2.853,4.74,3.217l-.738,2.023L87.381,304.8c.385-1.45.607-2.98.9-4.454.483-2.419,1-4.83,1.524-7.241a24.747,24.747,0,0,1,1.207-4.637,3.415,3.415,0,0,1,.638-.909" transform="translate(-71.482 -235.239)" fill="#3b6eb6"/>
          <path id="Trazado_1176356" data-name="Trazado 1176356" d="M88.593,432.3l7.529.025c0,2.219-.175,18.277.151,19.039-1.746,5.067-3.776,10.482-4.627,15.783l-3.062.009Z" transform="translate(-72.465 -353.64)" fill="#4e86c9"/>
          <path id="Trazado_1176357" data-name="Trazado 1176357" d="M341.067,39.267c2.68-.822,5.959-1.551,8.566-.172a14.255,14.255,0,0,1,3.481,2.453l2.792,2.563c4.986,1.794,8.734,6.131,11.343,10.6l2,4.476L370.286,63l.276,2.762-1.31-.138c-1.748.035-3.5-.073-5.245-.091-2.59-.027-5.187.025-7.775.124-3.946.152-7.868.564-11.789,1.013-4.869.558-9.687,1.207-14.51,2.091a67.791,67.791,0,0,0-7.991,1.914c-1.228.383-3.382,1.336-4.447,1.5l.276-.687.029-.365c.44-.59,1.324-6.637,1.577-7.878.266-1.3.568-2.595.931-3.875a26.206,26.206,0,0,1,2.743-6.208c3.211-4.866,7.465-8.741,13.107-10.511l.209-.5.307-.68c.664-1.182,3.153-1.922,4.391-2.213" transform="translate(-259.728 -31.35)" fill="#fbbd24"/>
          <path id="Trazado_1176358" data-name="Trazado 1176358" d="M375.141,92.67l1.065.317a1.212,1.212,0,0,1,.561.8,2.642,2.642,0,0,1-.521,1.812,4.966,4.966,0,0,1-2.847,2.338l-1.186-.287a1.3,1.3,0,0,1-.618-.819,3.056,3.056,0,0,1,.68-2.235,4.292,4.292,0,0,1,2.867-1.924" transform="translate(-303.95 -75.809)" fill="#fefefe"/>
          <path id="Trazado_1176359" data-name="Trazado 1176359" d="M352.973,121.494a2.486,2.486,0,0,1,1.378.2,1.588,1.588,0,0,1,.762.968c.326,1.118-.473,2.939-.988,3.932a2.491,2.491,0,0,1-1.6,1.448l-1.243-.162a1.569,1.569,0,0,1-.882-.833,4.129,4.129,0,0,1,.326-2.867,4.333,4.333,0,0,1,2.251-2.683" transform="translate(-286.515 -99.375)" fill="#fefefe"/>
          <path id="Trazado_1176360" data-name="Trazado 1176360" d="M336.369,53.966c1.586-.918,2.873-1.523,4.744-1.041,4.762,1.229,9.087,6.86,11.479,11.006a49.074,49.074,0,0,1,4.925,12.9l3.421.07,3.171.015,5.143.519c-1.748.035-3.5-.073-5.245-.091-2.59-.027-5.187.025-7.775.124-3.946.152-7.868.564-11.789,1.013-4.869.558-9.687,1.207-14.51,2.091a67.793,67.793,0,0,0-7.991,1.914c-1.228.383-3.382,1.336-4.447,1.5l.276-.687.029-.365c.44-.59,1.324-6.637,1.577-7.878.266-1.3.568-2.595.931-3.875.279.447.886,5.923,1,6.794,5.494-1.6,12.439-2.3,18.162-2.7l-.023-.137c-.715-4.585,2.189-9.172,4.823-12.7a42.905,42.905,0,0,1,6.175,13.769l4.861-.792a44.287,44.287,0,0,0-5.354-12.58c-2-3.079-5.865-7.209-9.472-8.271-1.212-.357-2.314-.163-3.222-.388l-.163-.045-.936.33Z" transform="translate(-259.728 -43.156)" fill="#fd8433"/>
          <path id="Trazado_1176361" data-name="Trazado 1176361" d="M336.369,53.966c1.586-.918,2.873-1.523,4.744-1.041,4.762,1.229,9.087,6.86,11.479,11.006a49.074,49.074,0,0,1,4.925,12.9l3.421.07,3.171.015,5.143.519c-1.748.035-3.5-.073-5.245-.091-2.59-.027-5.187.025-7.775.124-3.946.152-7.868.564-11.789,1.013-4.869.558-9.687,1.207-14.51,2.091a67.793,67.793,0,0,0-7.991,1.914c-1.228.383-3.382,1.336-4.447,1.5l.276-.687c7.562-3.47,19.975-4.85,28.37-5.676,3.338-.328,6.731-.725,10.086-.718l.573-.077.193-.222a4.45,4.45,0,0,0-.408-1.349,47.169,47.169,0,0,0-4.94-11.842c-2.3-3.743-6.357-8.9-10.817-9.927a4.853,4.853,0,0,0-3.734.644l-.936.33Z" transform="translate(-259.728 -43.156)" fill="#c44708"/>
        </g>
      </g>
      <g id="Grupo_1230721" data-name="Grupo 1230721" transform="translate(76.641 6.973)">
        <g id="Grupo_1230720" data-name="Grupo 1230720" clip-path="url(#clip-path-2)">
          <rect id="Rectángulo_423847" data-name="Rectángulo 423847" width="43.823" height="42.498" transform="translate(-13.192 9.951) rotate(-37.028)" fill="url(#linear-gradient)"/>
        </g>
      </g>
      <g id="Grupo_1230723" data-name="Grupo 1230723">
        <g id="Grupo_1230722" data-name="Grupo 1230722" clip-path="url(#clip-path)">
          <path id="Trazado_1176363" data-name="Trazado 1176363" d="M447.038,39.267c2.68-.822,5.959-1.551,8.566-.172a14.254,14.254,0,0,1,3.481,2.453c.26.732,1.872,2.237,2.456,3.042a37.641,37.641,0,0,1,7.135,16.448,1.572,1.572,0,0,1-.129,1.214c-.329-.073-.452-.32-.6-.607-.294-.564-.459-1.195-.7-1.784-.323-.794-.686-1.583-1.029-2.369a55.462,55.462,0,0,0-4.865-8.867c-2.27-3.329-6.3-7.61-10.2-8.755-1.369-.4-2.735-.341-4.11-.6" transform="translate(-365.699 -31.35)" fill="#fbcf67"/>
          <path id="Trazado_1176364" data-name="Trazado 1176364" d="M528.591,70.129c4.986,1.794,8.734,6.131,11.343,10.6l2,4.476,1.041,3.813.276,2.762-1.31-.138-5.143-.519a29.567,29.567,0,0,0-.558-3.774A42.923,42.923,0,0,0,529.9,71.822Z" transform="translate(-432.414 -57.369)" fill="#fbbd24"/>
          <path id="Trazado_1176365" data-name="Trazado 1176365" d="M528.591,70.129c4.986,1.794,8.734,6.131,11.343,10.6l2,4.476,1.041,3.813.276,2.762-1.31-.138a35.706,35.706,0,0,0-4.756-11.065c-1.05-1.624-5.769-8.434-7.282-8.758Z" transform="translate(-432.414 -57.369)" fill="#fbcf67"/>
          <path id="Trazado_1176366" data-name="Trazado 1176366" d="M130.057,120.429l.684-.969a1.076,1.076,0,0,1,.625-.181c1.217-.063,2.465.009,3.685.018,2.12.015,4.241.006,6.362,0q2.471,0,4.942,0a17.09,17.09,0,0,1,2.747.074,26.206,26.206,0,0,0-2.743,6.208c-.363,1.28-.665,2.571-.931,3.875-.253,1.241-1.137,7.288-1.577,7.878l-.029.365-.276.687-.039,2.3c-.291,1.512.583,3.079,1.4,4.29l1.145,1.4a38.844,38.844,0,0,0-4.536,2.771,5.771,5.771,0,0,0-1.954,4.117,5.321,5.321,0,0,0,.414,1.943,8.335,8.335,0,0,0,.775,1.162c.728.877,2.281,2.138,1.912,3.4-.234.8-1.011,1.255-1.643,1.717-.318,1.028,1.822,3.714,1.382,4.965a2.765,2.765,0,0,1-1.043,1.078c-.757.535-1.883.962-2.547,1.533l-.767.259c-1.518-.739-2.654-2.25-4.072-3.167l-2.3.709-1.175,4.8-.772.364c-1.043.295-4.092.337-5.023-.212a1.733,1.733,0,0,1-.729-.929c-.354-.952-.507-2.965-.837-4.171l-2.509-.947-4.057,3.342c-1.161-.364-4.218-2.137-4.74-3.217-.332-.685,1.58-4.562,1.944-5.549l-1.527-1.942-4.829.3a1.278,1.278,0,0,1-.936-.636c-.548-.759-1.748-3.916-1.494-4.79.265-.913,2.976-2.345,3.813-2.847l.875-.586-.021-1.632-.01-.583c-.082-.4-3.807-2.317-4.451-2.848l-.333-.65a10.322,10.322,0,0,1,1.323-4.266,1.975,1.975,0,0,1,1.082-.617c.824-.184,3.815-.088,4.965-.156l1.41-2.035-2.881-4.218a1.6,1.6,0,0,1,.35-1.252c.654-.982,2.873-3.15,3.988-3.339,1.028-.174,4.353,3.045,5.376,3.771l2.708-1.074.817-4.268a2.2,2.2,0,0,1,.926-1.533c.841-.511,4.176-.469,5.192-.211Z" transform="translate(-85.777 -97.555)" fill="#a9e9f6"/>
          <path id="Trazado_1176367" data-name="Trazado 1176367" d="M243.364,120.429l.684-.969a1.076,1.076,0,0,1,.625-.181c1.217-.063,2.465.009,3.685.018,2.12.015,4.241.006,6.362,0q2.471,0,4.942,0a17.091,17.091,0,0,1,2.747.074,26.206,26.206,0,0,0-2.743,6.208c-.363,1.28-.665,2.571-.931,3.875-.253,1.241-1.137,7.288-1.577,7.878l-1.561.209-.555-1.155,1.459-3.752a1.8,1.8,0,0,0,.052-1.393,10.69,10.69,0,0,0-3.835-3.011.952.952,0,0,0-.576,0c-1.074.385-3.2,2.351-4.39,3.069l-2.3-.713c-.587-1.566-.82-4.582-2.021-5.648Z" transform="translate(-199.084 -97.555)" fill="#3b6eb6"/>
          <path id="Trazado_1176368" data-name="Trazado 1176368" d="M178.757,221.142a8.808,8.808,0,0,1-1.328,2.229,14.355,14.355,0,0,1-9.594,5.283,13.762,13.762,0,0,1-10.067-3,15.011,15.011,0,0,1-5.433-9.783,14.586,14.586,0,0,1,3.129-10.552,14.8,14.8,0,0,1,9.7-5.413,14.05,14.05,0,0,1,10.133,3.12,13.75,13.75,0,0,1,4.7,8.239c.192,1.259.184,2.551.3,3.819a5.77,5.77,0,0,0-1.954,4.117,5.321,5.321,0,0,0,.414,1.943" transform="translate(-124.556 -163.484)" fill="#7bd2f8"/>
          <path id="Trazado_1176369" data-name="Trazado 1176369" d="M198.786,238.951a6.8,6.8,0,0,1,4.839,1.342,7,7,0,0,1,2.752,4.713,6.9,6.9,0,0,1-1.364,5.124A7.189,7.189,0,0,1,200.1,252.8a7.6,7.6,0,0,1-4.945-1.4,6.823,6.823,0,0,1-2.686-4.441,7.016,7.016,0,0,1,6.316-8.01" transform="translate(-157.389 -195.429)" fill="#4e86c9"/>
          <path id="Trazado_1176370" data-name="Trazado 1176370" d="M299.6,194.488c1.065-.167,3.218-1.12,4.447-1.5a67.793,67.793,0,0,1,7.991-1.914c4.823-.884,9.641-1.533,14.51-2.091,3.921-.449,7.843-.862,11.789-1.013,2.588-.1,5.185-.151,7.775-.124,1.748.018,3.5.126,5.245.091l1.31.138a73.244,73.244,0,0,1,9.5,2.371,4.389,4.389,0,0,1,2.171,1.5l-.015.351-.633,1.582-.524.524a18,18,0,0,1-8.668,3.953c-.9.162-1.834.174-2.717.357a8.057,8.057,0,0,1-1,2.03,4.53,4.53,0,0,1-2.906,1.459,3.591,3.591,0,0,0-1.052.182,6.365,6.365,0,0,1,2.441,4.555,6.868,6.868,0,0,1-1.914,4.779A6.466,6.466,0,0,1,343.8,213.6a27.188,27.188,0,0,1-2.574,7.731,22.992,22.992,0,0,1-1.971,3.866c-1.084,1.654-2.492,4.017-4.585,4.515l-1.172.243.064.216.013.243c-.682.116-2.957-.754-3.747-.993l-3.482-1.391a35.753,35.753,0,0,1-5.748-3.778,20.1,20.1,0,0,1-2.848-2.923c-1.484-1.888-4.492-6.86-4.686-9.248l-.145.054c-.678,2.529-2.05,4.73-3.176,7.069l-5.587,1.859.3-2.878a6.567,6.567,0,0,1-3.8,1.242,4.989,4.989,0,0,1-3.584-1.834c.633-.463,1.409-.92,1.643-1.717.37-1.261-1.184-2.521-1.912-3.4a8.339,8.339,0,0,1-.775-1.162,5.32,5.32,0,0,1-.414-1.943,5.77,5.77,0,0,1,1.954-4.117,38.84,38.84,0,0,1,4.536-2.771l-1.145-1.4c-.82-1.211-1.693-2.778-1.4-4.29Z" transform="translate(-241.827 -153.659)" fill="#06084d"/>
          <path id="Trazado_1176371" data-name="Trazado 1176371" d="M328.221,281.967l-.2,2.462a10.485,10.485,0,0,0,2.444,6.533c.533.62,1.175,1.12,1.743,1.7l-.116.094-1.2-.07a5.851,5.851,0,0,1-2.3-.919,5.283,5.283,0,0,1-2.134-3.435,8.235,8.235,0,0,1,1.763-6.369" transform="translate(-266.964 -230.663)" fill="#072572"/>
          <path id="Trazado_1176372" data-name="Trazado 1176372" d="M561.313,270.255a5.936,5.936,0,0,1,2.044,4.233,5.77,5.77,0,0,1-1.706,4.182,6.436,6.436,0,0,1-3.263,1.778l-.128-.915c.681-2.39,3.222-3.876,3.524-6.679.1-.929-.51-1.639-.477-2.511Z" transform="translate(-456.684 -221.082)" fill="#7bd2f8"/>
          <path id="Trazado_1176373" data-name="Trazado 1176373" d="M328.551,222.974c2.672-1.319,5.747-1.637,8.636-2.193,3.656-.7,7.216-1.526,10.965-1.417a9.135,9.135,0,0,0-3.062,4.96l-.568,2.139c-1.728-.652-3.215-1.94-5.049-2.4l-.825-3.322a12.458,12.458,0,0,0-7.655,6.143,6.468,6.468,0,0,1-1.062,1.741l-.167-.1a12.632,12.632,0,0,1-1.212-5.559" transform="translate(-268.771 -179.443)" fill="#072572"/>
          <path id="Trazado_1176374" data-name="Trazado 1176374" d="M536.744,276.878l-1.6-.059a3.863,3.863,0,0,1-2.491-1.782,6.543,6.543,0,0,1-.671-4.747,5.941,5.941,0,0,1,2.624-3.682,4.533,4.533,0,0,1,3.39-.6l1.639.587.04.094-.005.088c-.034.872.577,1.582.477,2.511-.3,2.8-2.844,4.289-3.524,6.679Z" transform="translate(-435.04 -217.512)" fill="#fefefe"/>
          <path id="Trazado_1176375" data-name="Trazado 1176375" d="M563.043,266.513l1.639.587c-.144,1.355-1.225,5.151-2.114,6.094l-.14.032c.444-1.6,1.5-3.182,1.31-4.912a2.666,2.666,0,0,0-1.195-1.739Z" transform="translate(-460.094 -218.021)" fill="#f7e8cd"/>
          <path id="Trazado_1176376" data-name="Trazado 1176376" d="M545.7,281.785l.689.259.262.772a3.177,3.177,0,0,1-.829,2.13.911.911,0,0,1-.758-.209l-.235-.764a3.27,3.27,0,0,1,.872-2.188" transform="translate(-445.698 -230.514)" fill="#06084d"/>
          <path id="Trazado_1176377" data-name="Trazado 1176377" d="M559.937,269.74l.04.094-.005.088c-.034.872.577,1.582.477,2.511-.3,2.8-2.844,4.289-3.524,6.679l-.3-.042c.447-.939.194-2.508,1.055-3.2l.14-.032c.89-.943,1.97-4.739,2.114-6.094" transform="translate(-455.349 -220.661)" fill="#d3e3d4"/>
          <path id="Trazado_1176378" data-name="Trazado 1176378" d="M460.166,269.716a6.831,6.831,0,0,1-2.433.411,5.434,5.434,0,0,1-3.864-1.778,5.954,5.954,0,0,1-1.57-4.336,5.88,5.88,0,0,1,1.97-4.037,5.7,5.7,0,0,1,8.778,1.506,5.937,5.937,0,0,1,.6,4.328,6.884,6.884,0,0,1-1.508,2.624Z" transform="translate(-369.995 -211.543)" fill="#dacdc9"/>
          <path id="Trazado_1176379" data-name="Trazado 1176379" d="M479.152,258.755a6.186,6.186,0,0,1,4.015,2.86,5.937,5.937,0,0,1,.6,4.328l-.976-.833c-.77.968-1.629,2.162-2.889,2.494a1.978,1.978,0,0,1-1.548-.22A3.115,3.115,0,0,1,477,265.454c-.565-2.271.992-4.866,2.148-6.7" transform="translate(-390.115 -211.674)" fill="#fefefe"/>
          <path id="Trazado_1176380" data-name="Trazado 1176380" d="M485.79,277.721a.875.875,0,0,1,.711.327,1.977,1.977,0,0,1,.3,1.548,2.119,2.119,0,0,1-.866,1.577l-.169.02-.608-.207-.278-.9a3.364,3.364,0,0,1,.911-2.363" transform="translate(-396.656 -227.19)" fill="#06084d"/>
          <path id="Trazado_1176381" data-name="Trazado 1176381" d="M423.7,212.044c3.447.432,6.8,1.305,10.232,1.828a41.213,41.213,0,0,0,10.081.187l1.631,1.893a2.238,2.238,0,0,1,.53,1.511l-.116,2.005a3.83,3.83,0,0,0-1.991-2.557,4.823,4.823,0,0,0-3.225-.2,1.878,1.878,0,0,0-1.12,1.06l0,.878a1.863,1.863,0,0,0,1.167.882c1.606.545,3.32.648,4.947,1.235l-.445,1.331-.974-.625a4.845,4.845,0,0,0-3.811.1,6.877,6.877,0,0,0-3.537,4.126l-2.207-.153-.536-1.977a6,6,0,0,0-3.441-3.3,6.224,6.224,0,0,0-4.829.066,6.375,6.375,0,0,0-3.445,3.779l-6.287-3.63.568-2.139a8.886,8.886,0,0,0,3.787-1.3,5.712,5.712,0,0,0,2.749-3.769Z" transform="translate(-340.574 -173.463)" fill="#f9be9c"/>
          <path id="Trazado_1176382" data-name="Trazado 1176382" d="M473.012,227.6l.223-.009c1.385-.011,3.421.225,4.425,1.279a1.754,1.754,0,0,1,.544,1.28,1.1,1.1,0,0,1-.422.767c-.834.684-2.217.552-3.224.481l-4.368.249-.622-.385a2.368,2.368,0,0,1,.427-1.787,4.679,4.679,0,0,1,3.018-1.874" transform="translate(-384.101 -186.181)" fill="#06084d"/>
          <path id="Trazado_1176383" data-name="Trazado 1176383" d="M455.638,212.044c3.446.432,6.8,1.305,10.232,1.828a41.213,41.213,0,0,0,10.081.187l1.631,1.893a72.868,72.868,0,0,1-16.022-1.328c-2.055-.388-4.112-1.144-6.19-1.348Z" transform="translate(-372.514 -173.463)" fill="#c44708"/>
          <path id="Trazado_1176384" data-name="Trazado 1176384" d="M317.319,194.488c1.065-.167,3.218-1.12,4.447-1.5a67.8,67.8,0,0,1,7.991-1.914c4.823-.884,9.641-1.533,14.51-2.091,3.921-.449,7.843-.862,11.789-1.013,2.588-.1,5.185-.151,7.775-.124,1.748.018,3.5.126,5.245.091l1.31.138a73.244,73.244,0,0,1,9.5,2.371,4.389,4.389,0,0,1,2.171,1.5l-.015.351-.633,1.582-.524.524a18,18,0,0,1-8.668,3.953c-.9.162-1.834.174-2.717.357l.132-.474a5.557,5.557,0,0,0-.7-4.433l-.353-.273-5.588.725a41.213,41.213,0,0,1-10.081-.187c-3.429-.522-6.785-1.4-10.232-1.828-6.483-.906-15.463.91-21.6,3a16.738,16.738,0,0,0-3.791,1.554Z" transform="translate(-259.551 -153.659)" fill="#fbbd24"/>
          <path id="Trazado_1176385" data-name="Trazado 1176385" d="M630.633,211.24c1.7-.617,5.971-.413,7.749-.131l-.633,1.582-.524.524a1.584,1.584,0,0,0-.51-1.1c-.858-.735-2.61-.753-3.7-.693a5.518,5.518,0,0,1-2.387-.182" transform="translate(-515.889 -172.475)" fill="#d5740c"/>
          <path id="Trazado_1176386" data-name="Trazado 1176386" d="M604.918,213.053a5.518,5.518,0,0,0,2.387.182c1.085-.06,2.837-.042,3.7.693a1.584,1.584,0,0,1,.51,1.1,18,18,0,0,1-8.668,3.953c-.9.162-1.833.174-2.717.357l.132-.474a5.556,5.556,0,0,0-.7-4.433l-.353-.273Z" transform="translate(-490.174 -174.288)" fill="#c44708"/>
          <path id="Trazado_1176387" data-name="Trazado 1176387" d="M604.918,213.053a5.518,5.518,0,0,0,2.387.182l-7.754,1.2-.353-.273Z" transform="translate(-490.174 -174.288)" fill="#b92d2d"/>
          <path id="Trazado_1176388" data-name="Trazado 1176388" d="M359.039,264.14a6.43,6.43,0,0,1-4.129-2.3c-1.508-1.551-2.985-3.649-2.912-5.913a4.411,4.411,0,0,1,1.486-3.239,5.039,5.039,0,0,1,4.193-1.209,10.444,10.444,0,0,0,1.548.3h.176l.516-.045,3.471,1.8,6.459,3.588a6.673,6.673,0,0,0,1.064,5.118,6.148,6.148,0,0,0,4.061,2.519,6.336,6.336,0,0,0,3.992-.727l1-.713a6.209,6.209,0,0,0,2.29-4.239l.068-.654,1.936.273a6.768,6.768,0,0,0,1.1,5.193,4.585,4.585,0,0,0,3.136,1.75l1.425-.043a27.189,27.189,0,0,1-2.574,7.731,23,23,0,0,1-1.971,3.866c-1.084,1.654-2.492,4.017-4.585,4.515l-1.172.243.064.216.013.243c-.682.116-2.957-.754-3.747-.993l-3.482-1.391a35.753,35.753,0,0,1-5.748-3.778,20.1,20.1,0,0,1-2.848-2.923c-1.484-1.888-4.492-6.86-4.686-9.248Z" transform="translate(-287.95 -205.662)" fill="#f9be9c"/>
          <path id="Trazado_1176389" data-name="Trazado 1176389" d="M390.066,289.175a4.139,4.139,0,0,1,.7-2.085l.094,1.1-.136.624Z" transform="translate(-319.093 -234.854)" fill="#fa816e"/>
          <path id="Trazado_1176390" data-name="Trazado 1176390" d="M361.441,265.774a1.836,1.836,0,0,1,.661-.9,3.091,3.091,0,0,1,2.4-.5,3.5,3.5,0,0,1,2.244,1.35l-.221.119-.453-.3a3.562,3.562,0,0,0-2.614-.81c-1.53.09-1.305.77-2.012,1.042" transform="translate(-295.677 -216.226)" fill="#c44708"/>
          <path id="Trazado_1176391" data-name="Trazado 1176391" d="M514.187,329.911l3.822.332.054.068.121-.011-.1-.074.2.059.068-.027.079.344a1.808,1.808,0,0,1-.9.844l-1.265.241a4.256,4.256,0,0,1-2.887-.669l-.061-.329c.123-.387.551-.59.878-.777" transform="translate(-419.912 -269.884)" fill="#d96e59"/>
          <path id="Trazado_1176392" data-name="Trazado 1176392" d="M392.7,253.281l.516-.045,3.471,1.8-.022.092c-.331,1.428-.235,3.278-1.663,4.137a2.583,2.583,0,0,1-1.7.162l-.288-.119-.005-.636Z" transform="translate(-321.246 -207.16)" fill="#072572"/>
          <path id="Trazado_1176393" data-name="Trazado 1176393" d="M360.912,267.6c.706-.271.482-.952,2.012-1.042a3.562,3.562,0,0,1,2.614.81l.453.3.221-.119.135,1.024.056.872.5.118.005.636-.085.087a4.139,4.139,0,0,0-.7,2.085,3.676,3.676,0,0,0,.59,1.571,1,1,0,0,1,.113.886l-.405.163a2.05,2.05,0,0,1-1.486-.657,4.1,4.1,0,0,1-1.357-2.765,1.878,1.878,0,0,1,.626-1.376l.348-.434-.349-.21c-.46-.463-.231-1.3-.369-1.869l-.349-.371a1.194,1.194,0,0,0-1,0,2.554,2.554,0,0,0-1.381,1.645l-.165-.35a1.056,1.056,0,0,1-.02-1.007" transform="translate(-295.147 -218.049)" fill="#d96e59"/>
          <path id="Trazado_1176394" data-name="Trazado 1176394" d="M378.974,275.064l1.667.089c.3.025.394.182.579.386l.056.872-2.118-.042Z" transform="translate(-310.02 -225.016)" fill="#fd8433"/>
          <path id="Trazado_1176395" data-name="Trazado 1176395" d="M391.505,321.1l.255.055c.639,1.012,1.1,2.118,1.761,3.131,2.291,3.507,5.9,6.853,10.1,7.779a4.856,4.856,0,0,0,3.891-.578c1.94-1.3,3.687-5.322,6.186-4.9a2.026,2.026,0,0,1,1.316.863c.851,1.19.795,2.914,2.576,3.308a2.859,2.859,0,0,0,1.929-.336l.147-.069a22.988,22.988,0,0,1-1.971,3.866c-1.084,1.654-2.492,4.017-4.585,4.516l-1.172.243.064.216.013.243c-.682.116-2.957-.754-3.747-.993l-3.482-1.391a35.752,35.752,0,0,1-5.748-3.778,20.1,20.1,0,0,1-2.848-2.923c-1.484-1.888-4.492-6.86-4.686-9.248" transform="translate(-320.271 -262.674)" fill="#072572"/>
          <path id="Trazado_1176396" data-name="Trazado 1176396" d="M515.837,375.361l1.473.478c-.164.479-.335,1.2-.783,1.485l-1.694-.158Z" transform="translate(-421.159 -307.064)" fill="#f9be9c"/>
        </g>
      </g>
    </g>
  </g>
</svg>
