<svg xmlns="http://www.w3.org/2000/svg" xmlns:xlink="http://www.w3.org/1999/xlink" width="108" height="108" viewBox="0 0 108 108">
  <defs>
    <filter id="Trazado_904820" x="0" y="0" width="108" height="108" filterUnits="userSpaceOnUse">
      <feOffset dy="3" input="SourceAlpha"/>
      <feGaussianBlur stdDeviation="3" result="blur"/>
      <feFlood flood-opacity="0.161"/>
      <feComposite operator="in" in2="blur"/>
      <feComposite in="SourceGraphic"/>
    </filter>
  </defs>
  <g id="Grupo_1230525" data-name="Grupo 1230525" transform="translate(9 6)">
    <g id="Grupo_1173585" data-name="Grupo 1173585" transform="translate(0 0)">
      <g id="Grupo_1173428" data-name="Grupo 1173428">
        <g id="Grupo_1171958" data-name="Grupo 1171958">
          <g id="Grupo_1167341" data-name="Grupo 1167341">
            <g id="Grupo_1166792" data-name="Grupo 1166792">
              <g transform="matrix(1, 0, 0, 1, -9, -6)" filter="url(#Trazado_904820)">
                <g id="Trazado_904820-2" data-name="Trazado 904820" transform="translate(9 6)" fill="#fcebe9">
                  <path d="M 44.99999618530273 88.50002288818359 C 39.12687301635742 88.50002288818359 33.43022155761719 87.35009765625 28.06829643249512 85.08218383789062 C 22.88852119445801 82.89133453369141 18.23629570007324 79.75460815429688 14.24084663391113 75.75916290283203 C 10.24540901184082 71.76371002197266 7.108683586120605 67.11148834228516 4.917821407318115 61.93171310424805 C 2.649921178817749 56.56978607177734 1.499996185302734 50.87313461303711 1.499996185302734 45.0000114440918 C 1.499996185302734 39.12688827514648 2.649921178817749 33.43023681640625 4.917821407318115 28.06829833984375 C 7.108683586120605 22.88852310180664 10.24540901184082 18.2363109588623 14.24084663391113 14.2408618927002 C 18.23629570007324 10.24541187286377 22.88852119445801 7.108686447143555 28.06829643249512 4.917823791503906 C 33.43022155761719 2.649924039840698 39.12687301635742 1.499998927116394 44.99999618530273 1.499998927116394 C 50.87311935424805 1.499998927116394 56.56977081298828 2.649924039840698 61.93169784545898 4.917823791503906 C 67.11147308349609 7.108686447143555 71.76369476318359 10.24541187286377 75.75914764404297 14.2408618927002 C 79.75458526611328 18.2363109588623 82.89131164550781 22.88852310180664 85.08216857910156 28.06829833984375 C 87.35007476806641 33.43023681640625 88.5 39.12688827514648 88.5 45.0000114440918 C 88.5 50.87313461303711 87.35007476806641 56.56978607177734 85.08216857910156 61.93171310424805 C 82.89131164550781 67.11148834228516 79.75458526611328 71.76371002197266 75.75914764404297 75.75916290283203 C 71.76369476318359 79.75460815429688 67.11147308349609 82.89133453369141 61.93169784545898 85.08218383789062 C 56.56977081298828 87.35009765625 50.87311935424805 88.50002288818359 44.99999618530273 88.50002288818359 Z" stroke="none"/>
                  <path d="M 44.99999618530273 3 C 39.32870864868164 3 33.82865142822266 4.110054016113281 28.65262603759766 6.299339294433594 C 23.65165710449219 8.414566040039062 19.15968322753906 11.44333648681641 15.301513671875 15.30152893066406 C 11.44333648681641 19.15969848632812 8.414566040039062 23.65165710449219 6.299339294433594 28.65264129638672 C 4.110054016113281 33.82866668701172 2.999992370605469 39.3287239074707 2.999992370605469 45.0000114440918 C 2.999992370605469 50.67129898071289 4.110054016113281 56.17135620117188 6.299339294433594 61.34738159179688 C 8.414566040039062 66.34836578369141 11.44333648681641 70.84032440185547 15.301513671875 74.69849395751953 C 19.15968322753906 78.55668640136719 23.65165710449219 81.58545684814453 28.65262603759766 83.70068359375 C 33.82865142822266 85.88996887207031 39.32870864868164 87.00002288818359 44.99999618530273 87.00002288818359 C 50.67128372192383 87.00002288818359 56.17134094238281 85.88996887207031 61.34736633300781 83.70068359375 C 66.34834289550781 81.58545684814453 70.84030914306641 78.55668640136719 74.69847869873047 74.69849395751953 C 78.55665588378906 70.84032440185547 81.58542633056641 66.34836578369141 83.70065307617188 61.34738159179688 C 85.88993835449219 56.17135620117188 87 50.67129898071289 87 45.0000114440918 C 87 39.3287239074707 85.88993835449219 33.82866668701172 83.70065307617188 28.65264129638672 C 81.58542633056641 23.65165710449219 78.55665588378906 19.15969848632812 74.69847869873047 15.30152893066406 C 70.84030914306641 11.44333648681641 66.34834289550781 8.414566040039062 61.34736633300781 6.299339294433594 C 56.17134094238281 4.110054016113281 50.67128372192383 3 44.99999618530273 3 M 44.99999618530273 0 C 69.85281372070312 0 90 20.14719390869141 90 45.0000114440918 C 90 69.85282897949219 69.85281372070312 90.00002288818359 44.99999618530273 90.00002288818359 C 20.14717864990234 90.00002288818359 -7.62939453125e-06 69.85282897949219 -7.62939453125e-06 45.0000114440918 C -7.62939453125e-06 20.14719390869141 20.14717864990234 0 44.99999618530273 0 Z" stroke="none" fill="#e44b36"/>
                </g>
              </g>
            </g>
          </g>
        </g>
      </g>
    </g>
    <g id="blood_205916" transform="translate(-61.655 15.843)">
      <path id="Trazado_1176206" data-name="Trazado 1176206" d="M133.727,48.156c0-9.96-18.034-37.957-18.034-37.957s-18.034,28-18.034,37.957a18.034,18.034,0,0,0,36.069,0Z" transform="translate(-9.037 -9.037)" fill="#f2484b"/>
      <path id="Trazado_1176207" data-name="Trazado 1176207" d="M106.655,58.314a19.218,19.218,0,0,1-19.2-19.2c0-10.185,17.475-37.431,18.219-38.586a1.162,1.162,0,0,1,1.953,0c.744,1.155,18.219,28.4,18.219,38.586A19.218,19.218,0,0,1,106.655,58.314Zm0-54.978c-1.57,2.51-4.8,7.783-8,13.638-5.8,10.61-8.868,18.268-8.868,22.144a16.873,16.873,0,1,0,33.745,0c0-3.878-3.069-11.54-8.875-22.156C111.453,11.11,108.223,5.844,106.655,3.336Z"/>
      <path id="Trazado_1176208" data-name="Trazado 1176208" d="M295.917,347.733a1.162,1.162,0,0,1-.475-2.222,12.519,12.519,0,0,0,7.394-11.41,1.162,1.162,0,0,1,2.323,0,14.845,14.845,0,0,1-8.768,13.53A1.155,1.155,0,0,1,295.917,347.733Z" transform="translate(-183.686 -295.019)"/>
      <path id="Trazado_1176209" data-name="Trazado 1176209" d="M246.963,454.265a1.162,1.162,0,1,1,0-2.323,12.686,12.686,0,0,0,1.638-.106,1.162,1.162,0,0,1,.3,2.3A15.021,15.021,0,0,1,246.963,454.265Z" transform="translate(-140.308 -400.365)"/>
    </g>
  </g>
</svg>
