<svg xmlns="http://www.w3.org/2000/svg" xmlns:xlink="http://www.w3.org/1999/xlink" width="1009" height="490.622" viewBox="0 0 1009 490.622">
  <defs>
    <filter id="circle5602" x="388.822" y="0" width="133.408" height="133.408" filterUnits="userSpaceOnUse">
      <feOffset dy="3" input="SourceAlpha"/>
      <feGaussianBlur stdDeviation="3" result="blur"/>
      <feFlood flood-opacity="0.161"/>
      <feComposite operator="in" in2="blur"/>
      <feComposite in="SourceGraphic"/>
    </filter>
    <filter id="circle5604" x="243.259" y="87.159" width="133.43" height="133.422" filterUnits="userSpaceOnUse">
      <feOffset dy="3" input="SourceAlpha"/>
      <feGaussianBlur stdDeviation="3" result="blur-2"/>
      <feFlood flood-opacity="0.161"/>
      <feComposite operator="in" in2="blur-2"/>
      <feComposite in="SourceGraphic"/>
    </filter>
    <filter id="circle5606" x="234" y="237.437" width="133.422" height="133.422" filterUnits="userSpaceOnUse">
      <feOffset dy="3" input="SourceAlpha"/>
      <feGaussianBlur stdDeviation="3" result="blur-3"/>
      <feFlood flood-opacity="0.161"/>
      <feComposite operator="in" in2="blur-3"/>
      <feComposite in="SourceGraphic"/>
    </filter>
    <filter id="circle5610" x="535.83" y="87.159" width="133.422" height="133.422" filterUnits="userSpaceOnUse">
      <feOffset dy="3" input="SourceAlpha"/>
      <feGaussianBlur stdDeviation="3" result="blur-4"/>
      <feFlood flood-opacity="0.161"/>
      <feComposite operator="in" in2="blur-4"/>
      <feComposite in="SourceGraphic"/>
    </filter>
    <filter id="path3427" x="539.623" y="237.437" width="133.43" height="133.426" filterUnits="userSpaceOnUse">
      <feOffset dy="3" input="SourceAlpha"/>
      <feGaussianBlur stdDeviation="3" result="blur-5"/>
      <feFlood flood-opacity="0.161"/>
      <feComposite operator="in" in2="blur-5"/>
      <feComposite in="SourceGraphic"/>
    </filter>
    <clipPath id="clip-path">
      <rect id="Rectángulo_423264" data-name="Rectángulo 423264" width="305.292" height="407.798" transform="translate(0 0.337) rotate(-0.063)" fill="none"/>
    </clipPath>
  </defs>
  <g id="Grupo_1230577" data-name="Grupo 1230577" transform="translate(-346 -7845.418)">
    <path id="Trazado_1175938" data-name="Trazado 1175938" d="M1118.205,2792.942H997.451L925.719,2720" transform="translate(61.392 5299.388)" fill="none" stroke="#292584" stroke-linecap="round" stroke-width="2"/>
    <path id="Trazado_1175939" data-name="Trazado 1175939" d="M1101.8,2764.2H987.587l-61.868-38.766" transform="translate(77.792 5447.627)" fill="none" stroke="#292584" stroke-linecap="round" stroke-width="2"/>
    <text id="Consideración_de_factores_modificadores_individuales_y_poblacionales" data-name="Consideración de factores modificadores
 individuales y poblacionales" transform="translate(1065 8174.921)" fill="#212429" font-size="16" font-family="Helvetica" letter-spacing="0em"><tspan x="0" y="0">Consideración de factores modificadores</tspan><tspan x="0" y="19" xml:space="preserve"> individuales y poblacionales</tspan></text>
    <text id="Evaluación_de_efectos_crónicos_subcrónicos_y_reproductivos" data-name="Evaluación de efectos crónicos, 
subcrónicos y reproductivos" transform="translate(1070.448 8054.921)" fill="#212429" font-size="16" font-family="Helvetica" letter-spacing="0em"><tspan x="0" y="0">Evaluación de efectos crónicos, </tspan><tspan x="0" y="19">subcrónicos y reproductivos</tspan></text>
    <ellipse id="Elipse_14633" data-name="Elipse 14633" cx="6" cy="6" rx="6" ry="6" transform="translate(1176 8206.25)" fill="#5c2c88"/>
    <g id="Elipse_14632" data-name="Elipse 14632" transform="translate(1176 8086.25)" fill="#292584" stroke="#292584" stroke-width="1">
      <ellipse cx="6" cy="6" rx="6" ry="6" stroke="none"/>
      <ellipse cx="6" cy="6" rx="5.5" ry="5.5" fill="none"/>
    </g>
    <rect id="Rectángulo_423261" data-name="Rectángulo 423261" width="4" height="18" rx="2" transform="translate(1057.104 8160.25)" fill="#41a599"/>
    <rect id="Rectángulo_423260" data-name="Rectángulo 423260" width="4" height="18" rx="2" transform="translate(1060.552 8040.25)" fill="#41a599"/>
    <g id="_7100310" data-name="7100310" transform="translate(589.003 7851.418)">
      <g id="BACKGROUND" transform="translate(-0.003)">
        <g id="layer2">
          <path id="path18415" d="M213.233,42.31a184.4,184.4,0,0,0-184.4,184.4h0a184.4,184.4,0,0,0,184.4,184.4h0a184.4,184.4,0,0,0,184.4-184.4h0a184.4,184.4,0,0,0-184.4-184.4h0Zm0,15.9a168.5,168.5,0,1,1-168.5,168.5A168.5,168.5,0,0,1,213.233,58.215Z" transform="translate(-2.951 -4.334)" fill="#284e70"/>
          <g transform="matrix(1, 0, 0, 1, -243, -6)" filter="url(#circle5602)">
            <path id="circle5602-2" data-name="circle5602" d="M230.194,0a57.7,57.7,0,1,1-57.7,57.7A57.7,57.7,0,0,1,230.194,0Z" transform="translate(225.33 6)" fill="#ffe3c0"/>
          </g>
          <g transform="matrix(1, 0, 0, 1, -243, -6)" filter="url(#circle5604)">
            <path id="circle5604-2" data-name="circle5604" d="M18.056,125.966a57.7,57.7,0,1,1,21.12,78.823,57.7,57.7,0,0,1-21.12-78.823Z" transform="translate(241.95 -3.95)" fill="#fee9c3"/>
          </g>
          <g transform="matrix(1, 0, 0, 1, -243, -6)" filter="url(#circle5606)">
            <path id="circle5606-2" data-name="circle5606" d="M7.737,351.1A57.7,57.7,0,1,1,86.56,372.219,57.7,57.7,0,0,1,7.737,351.1Z" transform="translate(243 -21.1)" fill="#fee9c3"/>
          </g>
          <g transform="matrix(1, 0, 0, 1, -243, -6)" filter="url(#circle5610)">
            <path id="circle5610-2" data-name="circle5610" d="M443.96,125.966a57.7,57.7,0,1,1-78.823-21.119A57.7,57.7,0,0,1,443.96,125.966Z" transform="translate(208.55 -3.95)" fill="#fee9c3"/>
          </g>
          <g transform="matrix(1, 0, 0, 1, -243, -6)" filter="url(#path3427)">
            <path id="path3427-2" data-name="path3427" d="M448.189,351.1a57.7,57.7,0,1,1-21.119-78.823A57.695,57.695,0,0,1,448.189,351.1Z" transform="translate(208.12 -21.1)" fill="#fee9c3"/>
          </g>
        </g>
      </g>
    </g>
    <path id="Trazado_1054039" data-name="Trazado 1054039" d="M925.719,2792.942h120.754L1118.2,2720" transform="translate(-513.316 5299.388)" fill="none" stroke="#292584" stroke-linecap="round" stroke-width="2"/>
    <path id="Trazado_1054040" data-name="Trazado 1054040" d="M925.719,2764.2h114.218l61.868-38.766" transform="translate(-513.316 5447.627)" fill="none" stroke="#292584" stroke-linecap="round" stroke-width="2"/>
    <text id="Estudios_toxicológicos_en_animales_y_humanos_" data-name="Estudios toxicológicos 
en animales y humanos " transform="translate(355.896 8174.921)" fill="#212429" font-size="16" font-family="Helvetica" letter-spacing="0em"><tspan x="0" y="0">Estudios toxicológicos </tspan><tspan x="0" y="19">en animales y humanos </tspan></text>
    <text id="Datos_epidemiológicos_de_exposiciones_laborales" data-name="Datos epidemiológicos de 
exposiciones laborales" transform="translate(355.896 8054.921)" fill="#212429" font-size="16" font-family="Helvetica" letter-spacing="0em"><tspan x="0" y="0">Datos epidemiológicos de </tspan><tspan x="0" y="19">exposiciones laborales</tspan></text>
    <circle id="Elipse_14630" data-name="Elipse 14630" cx="6" cy="6" r="6" transform="translate(404 8206.25)" fill="#5c2c88"/>
    <g id="Elipse_14631" data-name="Elipse 14631" transform="translate(404 8086.25)" fill="#292584" stroke="#292584" stroke-width="1">
      <circle cx="6" cy="6" r="6" stroke="none"/>
      <circle cx="6" cy="6" r="5.5" fill="none"/>
    </g>
    <rect id="Rectángulo_423258" data-name="Rectángulo 423258" width="4" height="18" rx="2" transform="translate(348 8160.25)" fill="#41a599"/>
    <rect id="Rectángulo_423259" data-name="Rectángulo 423259" width="4" height="18" rx="2" transform="translate(346 8040.25)" fill="#41a599"/>
    <g id="Grupo_1208263" data-name="Grupo 1208263" transform="translate(585.647 8165.698)">
      <path id="Trazado_1043527" data-name="Trazado 1043527" d="M6.361,12.723a6.361,6.361,0,1,1,6.361-6.361A6.361,6.361,0,0,1,6.361,12.723Z" transform="translate(0 0)" fill="#bdbcd9"/>
      <g id="Grupo_1181473" data-name="Grupo 1181473" transform="matrix(-0.998, 0.07, -0.07, -0.998, 11.838, 11.121)">
        <g id="Elipse_12494" data-name="Elipse 12494" transform="translate(0.131 0.131)" fill="#48396f" stroke="#292584" stroke-width="1">
          <circle cx="5" cy="5" r="5" stroke="none"/>
          <circle cx="5" cy="5" r="4.5" fill="none"/>
        </g>
        <g id="Trazado_1043525" data-name="Trazado 1043525" transform="translate(0)" fill="#fff">
          <path d="M 5.130859375 9.761719703674316 C 2.577399492263794 9.761719703674316 0.4999993741512299 7.684319496154785 0.4999993741512299 5.130859375 C 0.4999993741512299 2.577399492263794 2.577399492263794 0.4999993741512299 5.130859375 0.4999993741512299 C 7.684319496154785 0.4999993741512299 9.761719703674316 2.577399492263794 9.761719703674316 5.130859375 C 9.761719703674316 7.684319496154785 7.684319496154785 9.761719703674316 5.130859375 9.761719703674316 Z" stroke="none"/>
          <path d="M 5.130859375 0.9999990463256836 C 2.853099346160889 0.9999990463256836 0.9999990463256836 2.853099346160889 0.9999990463256836 5.130859375 C 0.9999990463256836 7.408619403839111 2.853099346160889 9.261719703674316 5.130859375 9.261719703674316 C 7.408619403839111 9.261719703674316 9.261719703674316 7.408619403839111 9.261719703674316 5.130859375 C 9.261719703674316 2.853099346160889 7.408619403839111 0.9999990463256836 5.130859375 0.9999990463256836 M 5.130859375 -9.5367431640625e-07 C 7.964559555053711 -9.5367431640625e-07 10.26171970367432 2.297159194946289 10.26171970367432 5.130859375 C 10.26171970367432 7.964559555053711 7.964559555053711 10.26171970367432 5.130859375 10.26171970367432 C 2.297159194946289 10.26171970367432 -9.5367431640625e-07 7.964559555053711 -9.5367431640625e-07 5.130859375 C -9.5367431640625e-07 2.297159194946289 2.297159194946289 -9.5367431640625e-07 5.130859375 -9.5367431640625e-07 Z" stroke="none" fill="#292584"/>
        </g>
        <g id="Trazado_1043526" data-name="Trazado 1043526" transform="translate(0)" fill="#fff">
          <path d="M 5.130859375 9.761719703674316 C 2.577399492263794 9.761719703674316 0.4999993741512299 7.684319496154785 0.4999993741512299 5.130859375 C 0.4999993741512299 2.577399492263794 2.577399492263794 0.4999993741512299 5.130859375 0.4999993741512299 C 7.684319496154785 0.4999993741512299 9.761719703674316 2.577399492263794 9.761719703674316 5.130859375 C 9.761719703674316 7.684319496154785 7.684319496154785 9.761719703674316 5.130859375 9.761719703674316 Z" stroke="none"/>
          <path d="M 5.130859375 0.9999990463256836 C 2.853099346160889 0.9999990463256836 0.9999990463256836 2.853099346160889 0.9999990463256836 5.130859375 C 0.9999990463256836 7.408619403839111 2.853099346160889 9.261719703674316 5.130859375 9.261719703674316 C 7.408619403839111 9.261719703674316 9.261719703674316 7.408619403839111 9.261719703674316 5.130859375 C 9.261719703674316 2.853099346160889 7.408619403839111 0.9999990463256836 5.130859375 0.9999990463256836 M 5.130859375 -9.5367431640625e-07 C 7.964559555053711 -9.5367431640625e-07 10.26171970367432 2.297159194946289 10.26171970367432 5.130859375 C 10.26171970367432 7.964559555053711 7.964559555053711 10.26171970367432 5.130859375 10.26171970367432 C 2.297159194946289 10.26171970367432 -9.5367431640625e-07 7.964559555053711 -9.5367431640625e-07 5.130859375 C -9.5367431640625e-07 2.297159194946289 2.297159194946289 -9.5367431640625e-07 5.130859375 -9.5367431640625e-07 Z" stroke="none" fill="#292584"/>
        </g>
      </g>
    </g>
    <g id="Grupo_1230570" data-name="Grupo 1230570" transform="translate(997.331 8165.698)">
      <path id="Trazado_1043527-2" data-name="Trazado 1043527" d="M6.361,12.723a6.361,6.361,0,1,1,6.361-6.361A6.361,6.361,0,0,1,6.361,12.723Z" transform="translate(0 0)" fill="#bdbcd9"/>
      <g id="Grupo_1181473-2" data-name="Grupo 1181473" transform="matrix(-0.998, 0.07, -0.07, -0.998, 11.838, 11.121)">
        <g id="Elipse_12494-2" data-name="Elipse 12494" transform="translate(0.131 0.131)" fill="#48396f" stroke="#292584" stroke-width="1">
          <circle cx="5" cy="5" r="5" stroke="none"/>
          <circle cx="5" cy="5" r="4.5" fill="none"/>
        </g>
        <g id="Trazado_1043525-2" data-name="Trazado 1043525" transform="translate(0)" fill="#fff">
          <path d="M 5.130859375 9.761719703674316 C 2.577399492263794 9.761719703674316 0.4999993741512299 7.684319496154785 0.4999993741512299 5.130859375 C 0.4999993741512299 2.577399492263794 2.577399492263794 0.4999993741512299 5.130859375 0.4999993741512299 C 7.684319496154785 0.4999993741512299 9.761719703674316 2.577399492263794 9.761719703674316 5.130859375 C 9.761719703674316 7.684319496154785 7.684319496154785 9.761719703674316 5.130859375 9.761719703674316 Z" stroke="none"/>
          <path d="M 5.130859375 0.9999990463256836 C 2.853099346160889 0.9999990463256836 0.9999990463256836 2.853099346160889 0.9999990463256836 5.130859375 C 0.9999990463256836 7.408619403839111 2.853099346160889 9.261719703674316 5.130859375 9.261719703674316 C 7.408619403839111 9.261719703674316 9.261719703674316 7.408619403839111 9.261719703674316 5.130859375 C 9.261719703674316 2.853099346160889 7.408619403839111 0.9999990463256836 5.130859375 0.9999990463256836 M 5.130859375 -9.5367431640625e-07 C 7.964559555053711 -9.5367431640625e-07 10.26171970367432 2.297159194946289 10.26171970367432 5.130859375 C 10.26171970367432 7.964559555053711 7.964559555053711 10.26171970367432 5.130859375 10.26171970367432 C 2.297159194946289 10.26171970367432 -9.5367431640625e-07 7.964559555053711 -9.5367431640625e-07 5.130859375 C -9.5367431640625e-07 2.297159194946289 2.297159194946289 -9.5367431640625e-07 5.130859375 -9.5367431640625e-07 Z" stroke="none" fill="#292584"/>
        </g>
        <g id="Trazado_1043526-2" data-name="Trazado 1043526" transform="translate(0)" fill="#fff">
          <path d="M 5.130859375 9.761719703674316 C 2.577399492263794 9.761719703674316 0.4999993741512299 7.684319496154785 0.4999993741512299 5.130859375 C 0.4999993741512299 2.577399492263794 2.577399492263794 0.4999993741512299 5.130859375 0.4999993741512299 C 7.684319496154785 0.4999993741512299 9.761719703674316 2.577399492263794 9.761719703674316 5.130859375 C 9.761719703674316 7.684319496154785 7.684319496154785 9.761719703674316 5.130859375 9.761719703674316 Z" stroke="none"/>
          <path d="M 5.130859375 0.9999990463256836 C 2.853099346160889 0.9999990463256836 0.9999990463256836 2.853099346160889 0.9999990463256836 5.130859375 C 0.9999990463256836 7.408619403839111 2.853099346160889 9.261719703674316 5.130859375 9.261719703674316 C 7.408619403839111 9.261719703674316 9.261719703674316 7.408619403839111 9.261719703674316 5.130859375 C 9.261719703674316 2.853099346160889 7.408619403839111 0.9999990463256836 5.130859375 0.9999990463256836 M 5.130859375 -9.5367431640625e-07 C 7.964559555053711 -9.5367431640625e-07 10.26171970367432 2.297159194946289 10.26171970367432 5.130859375 C 10.26171970367432 7.964559555053711 7.964559555053711 10.26171970367432 5.130859375 10.26171970367432 C 2.297159194946289 10.26171970367432 -9.5367431640625e-07 7.964559555053711 -9.5367431640625e-07 5.130859375 C -9.5367431640625e-07 2.297159194946289 2.297159194946289 -9.5367431640625e-07 5.130859375 -9.5367431640625e-07 Z" stroke="none" fill="#292584"/>
        </g>
      </g>
    </g>
    <g id="Grupo_1230571" data-name="Grupo 1230571" transform="translate(990.331 8021.698)">
      <path id="Trazado_1043527-3" data-name="Trazado 1043527" d="M6.361,12.723a6.361,6.361,0,1,1,6.361-6.361A6.361,6.361,0,0,1,6.361,12.723Z" transform="translate(0 0)" fill="#bdbcd9"/>
      <g id="Grupo_1181473-3" data-name="Grupo 1181473" transform="matrix(-0.998, 0.07, -0.07, -0.998, 11.838, 11.121)">
        <g id="Elipse_12494-3" data-name="Elipse 12494" transform="translate(0.131 0.131)" fill="#48396f" stroke="#292584" stroke-width="1">
          <circle cx="5" cy="5" r="5" stroke="none"/>
          <circle cx="5" cy="5" r="4.5" fill="none"/>
        </g>
        <g id="Trazado_1043525-3" data-name="Trazado 1043525" transform="translate(0)" fill="#fff">
          <path d="M 5.130859375 9.761719703674316 C 2.577399492263794 9.761719703674316 0.4999993741512299 7.684319496154785 0.4999993741512299 5.130859375 C 0.4999993741512299 2.577399492263794 2.577399492263794 0.4999993741512299 5.130859375 0.4999993741512299 C 7.684319496154785 0.4999993741512299 9.761719703674316 2.577399492263794 9.761719703674316 5.130859375 C 9.761719703674316 7.684319496154785 7.684319496154785 9.761719703674316 5.130859375 9.761719703674316 Z" stroke="none"/>
          <path d="M 5.130859375 0.9999990463256836 C 2.853099346160889 0.9999990463256836 0.9999990463256836 2.853099346160889 0.9999990463256836 5.130859375 C 0.9999990463256836 7.408619403839111 2.853099346160889 9.261719703674316 5.130859375 9.261719703674316 C 7.408619403839111 9.261719703674316 9.261719703674316 7.408619403839111 9.261719703674316 5.130859375 C 9.261719703674316 2.853099346160889 7.408619403839111 0.9999990463256836 5.130859375 0.9999990463256836 M 5.130859375 -9.5367431640625e-07 C 7.964559555053711 -9.5367431640625e-07 10.26171970367432 2.297159194946289 10.26171970367432 5.130859375 C 10.26171970367432 7.964559555053711 7.964559555053711 10.26171970367432 5.130859375 10.26171970367432 C 2.297159194946289 10.26171970367432 -9.5367431640625e-07 7.964559555053711 -9.5367431640625e-07 5.130859375 C -9.5367431640625e-07 2.297159194946289 2.297159194946289 -9.5367431640625e-07 5.130859375 -9.5367431640625e-07 Z" stroke="none" fill="#292584"/>
        </g>
        <g id="Trazado_1043526-3" data-name="Trazado 1043526" transform="translate(0)" fill="#fff">
          <path d="M 5.130859375 9.761719703674316 C 2.577399492263794 9.761719703674316 0.4999993741512299 7.684319496154785 0.4999993741512299 5.130859375 C 0.4999993741512299 2.577399492263794 2.577399492263794 0.4999993741512299 5.130859375 0.4999993741512299 C 7.684319496154785 0.4999993741512299 9.761719703674316 2.577399492263794 9.761719703674316 5.130859375 C 9.761719703674316 7.684319496154785 7.684319496154785 9.761719703674316 5.130859375 9.761719703674316 Z" stroke="none"/>
          <path d="M 5.130859375 0.9999990463256836 C 2.853099346160889 0.9999990463256836 0.9999990463256836 2.853099346160889 0.9999990463256836 5.130859375 C 0.9999990463256836 7.408619403839111 2.853099346160889 9.261719703674316 5.130859375 9.261719703674316 C 7.408619403839111 9.261719703674316 9.261719703674316 7.408619403839111 9.261719703674316 5.130859375 C 9.261719703674316 2.853099346160889 7.408619403839111 0.9999990463256836 5.130859375 0.9999990463256836 M 5.130859375 -9.5367431640625e-07 C 7.964559555053711 -9.5367431640625e-07 10.26171970367432 2.297159194946289 10.26171970367432 5.130859375 C 10.26171970367432 7.964559555053711 7.964559555053711 10.26171970367432 5.130859375 10.26171970367432 C 2.297159194946289 10.26171970367432 -9.5367431640625e-07 7.964559555053711 -9.5367431640625e-07 5.130859375 C -9.5367431640625e-07 2.297159194946289 2.297159194946289 -9.5367431640625e-07 5.130859375 -9.5367431640625e-07 Z" stroke="none" fill="#292584"/>
        </g>
      </g>
    </g>
    <g id="Grupo_1208262" data-name="Grupo 1208262" transform="translate(598.527 8013.026)">
      <path id="Trazado_1043527-4" data-name="Trazado 1043527" d="M6.361,12.723a6.361,6.361,0,1,1,6.361-6.361A6.361,6.361,0,0,1,6.361,12.723Z" transform="translate(0 0)" fill="#bdbcd9"/>
      <g id="Grupo_1181473-4" data-name="Grupo 1181473" transform="matrix(-0.998, 0.07, -0.07, -0.998, 11.838, 11.121)">
        <g id="Elipse_12494-4" data-name="Elipse 12494" transform="translate(0.131 0.131)" fill="#48396f" stroke="#292584" stroke-width="1">
          <circle cx="5" cy="5" r="5" stroke="none"/>
          <circle cx="5" cy="5" r="4.5" fill="none"/>
        </g>
        <g id="Trazado_1043525-4" data-name="Trazado 1043525" transform="translate(0)" fill="#fff">
          <path d="M 5.130859375 9.761719703674316 C 2.577399492263794 9.761719703674316 0.4999993741512299 7.684319496154785 0.4999993741512299 5.130859375 C 0.4999993741512299 2.577399492263794 2.577399492263794 0.4999993741512299 5.130859375 0.4999993741512299 C 7.684319496154785 0.4999993741512299 9.761719703674316 2.577399492263794 9.761719703674316 5.130859375 C 9.761719703674316 7.684319496154785 7.684319496154785 9.761719703674316 5.130859375 9.761719703674316 Z" stroke="none"/>
          <path d="M 5.130859375 0.9999990463256836 C 2.853099346160889 0.9999990463256836 0.9999990463256836 2.853099346160889 0.9999990463256836 5.130859375 C 0.9999990463256836 7.408619403839111 2.853099346160889 9.261719703674316 5.130859375 9.261719703674316 C 7.408619403839111 9.261719703674316 9.261719703674316 7.408619403839111 9.261719703674316 5.130859375 C 9.261719703674316 2.853099346160889 7.408619403839111 0.9999990463256836 5.130859375 0.9999990463256836 M 5.130859375 -9.5367431640625e-07 C 7.964559555053711 -9.5367431640625e-07 10.26171970367432 2.297159194946289 10.26171970367432 5.130859375 C 10.26171970367432 7.964559555053711 7.964559555053711 10.26171970367432 5.130859375 10.26171970367432 C 2.297159194946289 10.26171970367432 -9.5367431640625e-07 7.964559555053711 -9.5367431640625e-07 5.130859375 C -9.5367431640625e-07 2.297159194946289 2.297159194946289 -9.5367431640625e-07 5.130859375 -9.5367431640625e-07 Z" stroke="none" fill="#292584"/>
        </g>
        <g id="Trazado_1043526-4" data-name="Trazado 1043526" transform="translate(0)" fill="#fff">
          <path d="M 5.130859375 9.761719703674316 C 2.577399492263794 9.761719703674316 0.4999993741512299 7.684319496154785 0.4999993741512299 5.130859375 C 0.4999993741512299 2.577399492263794 2.577399492263794 0.4999993741512299 5.130859375 0.4999993741512299 C 7.684319496154785 0.4999993741512299 9.761719703674316 2.577399492263794 9.761719703674316 5.130859375 C 9.761719703674316 7.684319496154785 7.684319496154785 9.761719703674316 5.130859375 9.761719703674316 Z" stroke="none"/>
          <path d="M 5.130859375 0.9999990463256836 C 2.853099346160889 0.9999990463256836 0.9999990463256836 2.853099346160889 0.9999990463256836 5.130859375 C 0.9999990463256836 7.408619403839111 2.853099346160889 9.261719703674316 5.130859375 9.261719703674316 C 7.408619403839111 9.261719703674316 9.261719703674316 7.408619403839111 9.261719703674316 5.130859375 C 9.261719703674316 2.853099346160889 7.408619403839111 0.9999990463256836 5.130859375 0.9999990463256836 M 5.130859375 -9.5367431640625e-07 C 7.964559555053711 -9.5367431640625e-07 10.26171970367432 2.297159194946289 10.26171970367432 5.130859375 C 10.26171970367432 7.964559555053711 7.964559555053711 10.26171970367432 5.130859375 10.26171970367432 C 2.297159194946289 10.26171970367432 -9.5367431640625e-07 7.964559555053711 -9.5367431640625e-07 5.130859375 C -9.5367431640625e-07 2.297159194946289 2.297159194946289 -9.5367431640625e-07 5.130859375 -9.5367431640625e-07 Z" stroke="none" fill="#292584"/>
        </g>
      </g>
    </g>
    <g id="Grupo_1230576" data-name="Grupo 1230576" transform="translate(-0.001 -749.889)">
      <g id="Grupo_1230575" data-name="Grupo 1230575" transform="translate(641.112 8677.09)">
        <g id="Grupo_1230574" data-name="Grupo 1230574" transform="translate(0 0)" clip-path="url(#clip-path)">
          <path id="Trazado_1175941" data-name="Trazado 1175941" d="M215.7,252.876c-5,23.108-8.927,35.358-15.028,76.365l126.118-.173c-.329-42.616-6.1-69.53-6.1-69.53Z" transform="translate(-63.469 30.56)" fill="#263238"/>
          <path id="Trazado_1175942" data-name="Trazado 1175942" d="M243.057,301.342c4.509,38.126,80.4,239.214,101.127,313.372,22.179,4.429,59.433-8.253,59.433-8.253C394.2,474.2,363.292,451.427,360.5,436.69s-23.981-123.759-48.675-179.781Z" transform="translate(-54.44 31.419)" fill="#263238"/>
          <path id="Trazado_1175943" data-name="Trazado 1175943" d="M216.409,252.876c-23.37,44.76-19.473,162.477-17.563,222.417s10.518,141.685,10.518,141.685S237.68,627.113,263,618.815c3.045-131.843,7.889-297.6,7.889-297.6Z" transform="translate(-64.175 30.56)" fill="#263238"/>
          <path id="Trazado_1175944" data-name="Trazado 1175944" d="M247.583,289.6l-.013.007h0l.015-.008" transform="translate(-53.479 38.383)" fill="#38474f"/>
          <path id="Trazado_1175945" data-name="Trazado 1175945" d="M204.1,292.689a36.818,36.818,0,0,0,11.977-12.065,36.17,36.17,0,0,0,4.772-12.021c2.3-.079,4.611-.237,6.851-.281,4.269-.086,8.537-.158,12.806-.26,1.7-.041,3.4-.1,5.106-.141a154.258,154.258,0,0,0,3.109,18.61,1.263,1.263,0,0,0,.587.8,3.029,3.029,0,0,0,1.8,2.889,4.567,4.567,0,0,0,3.939-.17c2.433-1.22,2.8-4.084,2.512-6.513-.639-5.317-1.465-10.607-2.393-15.88,3.652-.1,7.3-.188,10.956-.3l7.915-.246a2.34,2.34,0,0,0-.415,1.5c.26,4.1,1.926,8.356,2.98,12.322q1.536,5.784,3.073,11.567,3.146,11.767,6.9,23.375c5.044,15.618,9.307,31.41,13.768,47.2a.858.858,0,0,0,1.659-.437c-3.878-15.945-7.928-31.8-11.213-47.875q-2.436-11.936-5.48-23.751-1.5-5.792-3.01-11.583c-1.031-3.969-1.678-8.5-3.466-12.2a2.717,2.717,0,0,0-.158-.258q10.653-.331,21.3-.714a3.7,3.7,0,0,0,.286,2.289,44.8,44.8,0,0,0,10.926,14.561,45.325,45.325,0,0,0,16.042,8.9,2.165,2.165,0,0,0,2.618-1.534,2.213,2.213,0,0,0-1.534-2.618c-9.961-3.805-18.193-12.2-22.554-21.812q6-.244,12.008-.533c2.631-.13,2.649-4.062-.006-4.1-17.361-.271-34.718-.165-52.081-.115q-12.806.038-25.613.164c-4.27.046-8.538.115-12.807.173-4.5.062-9.178-.238-13.633.418a3.221,3.221,0,0,0-2.374,3.569,3.32,3.32,0,0,0,3.21,2.841c.7.079,1.417.1,2.129.129a35.7,35.7,0,0,1-4.895,9.354,35.007,35.007,0,0,1-10.707,9.3c-3.458,2.094-.393,7.472,3.107,5.454m45.019-24.864c1.05-.027,2.1-.057,3.151-.085.125,3.944.309,7.881.6,11.817q.118,1.63.238,3.258a8.6,8.6,0,0,1,.042,2.425c.01-.041-.112.361-.17.536h0v0l-.011,0h0l-.027.006-.021,0c-.186-.084-.365-.178-.551-.261a2.511,2.511,0,0,0-.943-.217,158.552,158.552,0,0,0-2.3-17.484" transform="translate(-63.724 32.338)" fill="#38474f"/>
          <path id="Trazado_1175946" data-name="Trazado 1175946" d="M223.525,313.326c.161-6.727.638-13.473,1.078-20.187q.335-5.1.668-10.2c.22-3.338.182-7.095,1.6-10.184a2.277,2.277,0,0,1,4.168.232c.918,3.236.371,6.868.078,10.169q-.451,5.077-.9,10.153c-.613,6.879-1.086,13.851-2.089,20.686-.983,6.708-1.935,13.4-2.745,20.135-.843,7.006-1.936,14-2.536,21.034-.025.295-.468.2-.449-.082.958-13.877.795-27.863,1.127-41.757" transform="translate(-58.841 34.529)" fill="#38474f"/>
          <path id="Trazado_1175947" data-name="Trazado 1175947" d="M314.721,116.743c-20.98-4.767-55.81,9.578-55.81,9.578s-43.122,11.48-57.258,20.792,5.725,99.322,5.852,131.4l117.288,3.422c8.2-72.016,25.387-157.132-10.072-165.188" transform="translate(-64.341 1.355)" fill="#ebebeb"/>
          <path id="Trazado_1175948" data-name="Trazado 1175948" d="M233.448,278.572s-.068-59.686,1.225-80.536c1.669-26.895,4.43-56.5,4.43-56.5l25.231-1.931c-7.287,25.7-11.587,140.187-11.587,140.187Z" transform="translate(-56.487 6.433)" fill="#a6cce4"/>
          <path id="Trazado_1175949" data-name="Trazado 1175949" d="M245.017,242.149s-5.184,96.4-7.971,115.921c-2.763,19.516-11.462,22.144-51.744,2.928,2.763-19.89,6.1-40.307,9.521-59.605.37-2.022.719-4.022,1.09-6.023,9.42-52.134,19.118-94.688,19.118-94.688Z" transform="translate(-66.743 19.442)" fill="#ebebeb"/>
          <path id="Trazado_1175950" data-name="Trazado 1175950" d="M244.261,235S262.8,354.539,275.14,375.683s85.4-12.555,85.4-12.555C347.836,304.411,308,176.027,308,176.027Z" transform="translate(-54.184 14.19)" fill="#ebebeb"/>
          <path id="Trazado_1175951" data-name="Trazado 1175951" d="M346.388,341.5q-2.216.908-4.432,1.793c-1.816-8.356-4.18-16.627-6.305-24.874-2.9-11.276-5.858-22.545-9.061-33.739s-6.355-22.407-9.392-33.653-6.572-22.349-9.709-33.568a.463.463,0,0,0-.9.237c2.673,11.342,4.939,22.768,7.715,34.093s5.426,22.654,8.031,34.011,5.461,22.647,8.364,33.923c2.171,8.432,4.13,17.009,6.655,25.376a203.493,203.493,0,0,1-29.135,9.124c-11.692,2.6-24.492,5.494-36.1,1.427a1.492,1.492,0,0,0-1.657,2.16c3.409,5.326,9.931,5.867,15.675,5.5a129.276,129.276,0,0,0,20.982-3.384,155.137,155.137,0,0,0,31.523-10.745q.693,2.109,1.453,4.192a1.855,1.855,0,0,0,3.585-.945c-.274-1.773-.6-3.541-.941-5.306,1.759-.927,3.5-1.889,5.194-2.908,1.778-1.067.257-3.456-1.547-2.716" transform="translate(-48.643 22.944)" fill="#dbdbdb"/>
          <path id="Trazado_1175952" data-name="Trazado 1175952" d="M228.4,328.767a71.458,71.458,0,0,1-26.587-5.075c-1.336-.556-2.649-1.171-3.94-1.826a25.948,25.948,0,0,0-4.559-2.231,2.819,2.819,0,0,0-2.682,4.689c2.3,2.256,6.1,3.47,9.052,4.62a52.964,52.964,0,0,0,9.52,2.8,56.018,56.018,0,0,0,19.623.3c1.9-.318,1.417-3.265-.427-3.275" transform="translate(-65.778 44.759)" fill="#dbdbdb"/>
          <path id="Trazado_1175953" data-name="Trazado 1175953" d="M312.05,276.418c-2.979-1.51-6.863.79-9.749,1.783-3,1.031-6.019,2.009-9.048,2.938s-6.087,1.741-9.144,2.552a88.714,88.714,0,0,1-9.834,2.375c-1.708.25-1.333,3.137.392,3.006,3.356-.255,6.723-.182,10.074-.531,3.379-.351,6.716-.91,10.045-1.588a92.593,92.593,0,0,0,9.844-2.578c3.1-1,7.371-1.783,8.623-5.112a2.539,2.539,0,0,0-1.2-2.846" transform="translate(-48.026 35.468)" fill="#dbdbdb"/>
          <path id="Trazado_1175954" data-name="Trazado 1175954" d="M252.915,99.3l24.773,7.329,8.161,13.614-49.264,13.927-5.312-16.219Z" transform="translate(-56.95 -2.154)" fill="#a6cce4"/>
          <path id="Trazado_1175955" data-name="Trazado 1175955" d="M168.813,262.484c14.845-11.476,75.559-51.586,83.263-94.032,5.672-31.25-17.56-43.118-41.07-22.238s-78.7,73.074-78.7,73.074Z" transform="translate(-78.031 5.61)" fill="#ebebeb"/>
          <path id="Trazado_1175956" data-name="Trazado 1175956" d="M99.007,158.843l16.356,60.731a35.9,35.9,0,0,0,50.4,22.93l4.1-2-55.714-81.7Z" transform="translate(-85.125 10.522)" fill="#ac635b"/>
          <path id="Trazado_1175957" data-name="Trazado 1175957" d="M116.294,143.845l8.731-18a3.551,3.551,0,0,0-5.708-4.059L106.225,134.9Z" transform="translate(-83.588 2.413)" fill="#824645"/>
          <path id="Trazado_1175958" data-name="Trazado 1175958" d="M120.019,139.807c5.808,23.442,3.916,38.385-15.539,39.461l-9.156-28.981Z" transform="translate(-85.91 6.475)" fill="#ac635b"/>
          <path id="Trazado_1175959" data-name="Trazado 1175959" d="M158.412,110.578l-20.074-.517-29.554,21.457a2.986,2.986,0,1,0,3.644,4.728l26.9-22.381,19.133-1.983a.654.654,0,0,0-.051-1.3" transform="translate(-83.303 0.138)" fill="#263238"/>
          <path id="Trazado_1175960" data-name="Trazado 1175960" d="M147.551,119.108c-2.119-3.133-2.357-8.578-1.454-12.175.87-3.47,4.578-7.686,7.863-5.237,2.469,1.841.506,5.711.739,8.2.269,2.869,3.292,5.848,1.821,8.769-1.782,3.535-6.885,3.519-8.968.438" transform="translate(-75.2 -1.799)" fill="#a6cce4"/>
          <path id="Trazado_1175961" data-name="Trazado 1175961" d="M148.916,112.776a9.875,9.875,0,0,1-1.158-2.141,6.637,6.637,0,0,1-.5-2.374,11.088,11.088,0,0,1,.307-2.583c.067-.279-.359-.48-.486-.2a7.684,7.684,0,0,0-.67,2.572c-.04.463,0,.923-.018,1.386a8.871,8.871,0,0,0,.057,1.469,9.1,9.1,0,0,0,.808,2.732,11.7,11.7,0,0,0,.672,1.206c.409.631.862,1.132,1.678.984a.956.956,0,0,0,.694-.694c.235-1.036-.869-1.61-1.383-2.361" transform="translate(-75.033 -0.866)" fill="#90b9d1"/>
          <path id="Trazado_1175962" data-name="Trazado 1175962" d="M152.4,114.627a.819.819,0,0,0-.149-.289c0-.006,0-.013-.006-.018l-.008-.01c-.016-.021-.017-.049-.035-.067a.822.822,0,0,0-.163-.148c-.034-.03-.053-.076-.092-.1-.012-.011-.03-.011-.042-.022s-.017-.019-.029-.027l-.107-.042a.812.812,0,0,0-.206-.107l-.28-.035a1.12,1.12,0,0,0-.547.144l-.235.181a1.114,1.114,0,0,0-.289.5l-.036.186a.84.84,0,0,0-.017.421.828.828,0,0,0,.126.406l.181.235a.832.832,0,0,0,.37.234.553.553,0,0,0,.273.072.827.827,0,0,0,.421-.018l.266-.109a1.1,1.1,0,0,0,.416-.416l.084-.144a1.245,1.245,0,0,0,.107-.827" transform="translate(-74.233 0.926)" fill="#90b9d1"/>
          <path id="Trazado_1175963" data-name="Trazado 1175963" d="M157.255,108.14l-20.083-.006-29,22.2a2.986,2.986,0,1,0,3.764,4.635l26.324-23.057,19.077-2.47a.653.653,0,0,0-.082-1.3" transform="translate(-83.42 -0.272)" fill="#38474f"/>
          <path id="Trazado_1175964" data-name="Trazado 1175964" d="M122.6,116.865l-15.9,2.847a4.737,4.737,0,0,0-3.372,2.483L94.894,145.1a11.813,11.813,0,0,0-.05,8.033l10.911,30.785c.86-4.088,9.958-5.32,12.518-15.718,3.624-10.915-6.4-31.9-6.4-31.9l.541-8.917,11.957-4.9a2.957,2.957,0,0,0,1.75-3.433,3.03,3.03,0,0,0-3.517-2.18" transform="translate(-86.157 1.577)" fill="#ac635b"/>
          <path id="Trazado_1175965" data-name="Trazado 1175965" d="M110.178,130.432c8.376-.137,12.083,4.532,9.8,8.9,1.932,4.476.912,7.435-2.461,9.845,5.688-.989,6.71,4.406,5.389,6.839s-10.55,7.725-10.55,7.725L99.228,141.358Z" transform="translate(-85.078 4.477)" fill="#ac635b"/>
          <path id="Trazado_1175966" data-name="Trazado 1175966" d="M108.417,130.571a6.489,6.489,0,0,0-2.966.325,10.955,10.955,0,0,0-2.8,1.454,21.367,21.367,0,0,0-4.546,4.11c-.228.285.252.678.5.409a15.013,15.013,0,0,1,4.64-3.564c.852-.394,1.735-.733,2.6-1.088a26.884,26.884,0,0,0,2.663-1.234.221.221,0,0,0-.1-.412" transform="translate(-85.329 4.497)" fill="#824645"/>
          <path id="Trazado_1175967" data-name="Trazado 1175967" d="M116.633,136.442a8.792,8.792,0,0,1-1.1-.207,9.054,9.054,0,0,0-.993-.033,13.679,13.679,0,0,0-2,.256,13.229,13.229,0,0,0-4.015,1.36,14.359,14.359,0,0,0-5.708,5.937.313.313,0,0,0,.534.328,14.527,14.527,0,0,1,5.787-5.118,17.382,17.382,0,0,1,3.548-1.423,14.239,14.239,0,0,1,1.85-.317c.325-.039.649-.084.975-.114a4.094,4.094,0,0,1,1.041-.135c.405.081.46-.554.081-.534" transform="translate(-84.322 5.706)" fill="#824645"/>
          <path id="Trazado_1175968" data-name="Trazado 1175968" d="M114.348,144.42a2.811,2.811,0,0,0-.98.16,8.751,8.751,0,0,0-1.026.366,7.131,7.131,0,0,0-1.743,1.09,28.821,28.821,0,0,0-3.053,2.82.325.325,0,0,0,.444.475,21.1,21.1,0,0,1,3.364-2.24,15.215,15.215,0,0,0,1.765-1.06,5.768,5.768,0,0,0,1.457-1.2.276.276,0,0,0-.227-.415" transform="translate(-83.327 7.456)" fill="#824645"/>
          <path id="Trazado_1175969" data-name="Trazado 1175969" d="M114.136,155.978a3.615,3.615,0,0,0-2.009,3.44c0,1.744.923,3.347.917,5.1a7.344,7.344,0,0,1-1.252,4.061,6.763,6.763,0,0,1-1.42,1.52c-.6.471-1.526.764-1.843,1.488a.839.839,0,0,0,.648,1.149c.781.159,1.531-.52,2.065-1.013a9.375,9.375,0,0,0,1.429-1.645,10.367,10.367,0,0,0,1.684-4.043,9.754,9.754,0,0,0-.416-4.537c-.41-1.376-1.146-3.817.526-4.7.495-.261.21-1.052-.329-.825" transform="translate(-83.112 9.911)" fill="#824645"/>
          <path id="Trazado_1175970" data-name="Trazado 1175970" d="M231.732,114.677l-3.432,7.3,3.475,24.885,19.087-17.441Z" transform="translate(-57.584 1.122)" fill="#a6cce4"/>
          <path id="Trazado_1175971" data-name="Trazado 1175971" d="M176.779,255.2c-18.192,13.7-46.336,9.568-81.864-56.319l29.454-28.955,51.015,68.533Z" transform="translate(-85.997 12.891)" fill="#ebebeb"/>
          <path id="Trazado_1175972" data-name="Trazado 1175972" d="M262.392,48.267c-12.537-11.422-24.521-19.981-39.1-8.384s-17.6,13.5-17.6,13.5-10.861,18.9,1.662,35.18Z" transform="translate(-63.33 -15.986)" fill="#263238"/>
          <path id="Trazado_1175973" data-name="Trazado 1175973" d="M239.158,46.583c32.609-14.531,54.019,22.441,30.3,56.7Z" transform="translate(-55.271 -14.075)" fill="#263238"/>
          <path id="Trazado_1175974" data-name="Trazado 1175974" d="M273.364,135.194c.012,8.614-23.289,23.536-23.289,23.536S240.991,147.1,239.4,138.185l-7.257-36.752L270.175,85.67l3.144,48.4c.022.374.045.747.045,1.121" transform="translate(-56.766 -5.057)" fill="#ac635b"/>
          <path id="Trazado_1175975" data-name="Trazado 1175975" d="M264.415,97.528c.022,15.988-10.084,31.28-26.492,31.3l-4.892-23.89-.3-2.974Z" transform="translate(-56.639 -2.531)" fill="#263238"/>
          <path id="Trazado_1175976" data-name="Trazado 1175976" d="M210.056,115.158c4.794,8.97,13.082,16.456,23.023,18.511,13.776,2.872,27.89-5.112,36.622-16.149a52.814,52.814,0,0,0,10.137-21.681c3.715-17.019-1.015-35.386-17.05-45.212-10.971-6.726-30.254-7.842-43.551-1.407-5.22,2.512-9.525,6.185-12.037,11.159-7.971,15.8-5.257,39.626,2.855,54.78" transform="translate(-63.097 -13.733)" fill="#ac635b"/>
          <path id="Trazado_1175977" data-name="Trazado 1175977" d="M269.321,73.974c4.152-2.273,9.819-2.689,13.6.11,3.153,2.333,4.352,6.311,4.543,10.056a21.288,21.288,0,0,1-3.884,13.767,17.683,17.683,0,0,1-12.9,7.13c-5.167.3-10.557-2.2-12.971-6.487-4.63-8.223,4.149-20.49,11.609-24.576" transform="translate(-51.593 -7.943)" fill="#ac635b"/>
          <path id="Trazado_1175978" data-name="Trazado 1175978" d="M212.26,51.315c8.574,7.371,28.413,10.65,39.6,9.037,1.716,5.565,7.7,12.028,11.16,13.2a132.737,132.737,0,0,0,5.317,23.044c4.2-3.871,10.91-16.963,10.91-16.963-2.681-31.194-43.106-46.511-66.99-28.315" transform="translate(-61 -14.038)" fill="#263238"/>
          <path id="Trazado_1175979" data-name="Trazado 1175979" d="M269.344,83.117c-3.492,2.663-4.971,7.541-2.088,8.4,1.6.473,2.2-1.612,2.96-3.829,1.72-4.994,5-5.4,5.041-6.122.048-.776-2.8-.821-5.913,1.555" transform="translate(-49.611 -6.034)" fill="#263238"/>
          <path id="Trazado_1175980" data-name="Trazado 1175980" d="M209.255,87.445c-.192,2.142.9,4.049,2.433,4.258s2.931-1.357,3.121-3.5-.9-4.049-2.433-4.258-2.931,1.357-3.121,3.5" transform="translate(-61.645 -5.429)" fill="#263238"/>
          <path id="Trazado_1175981" data-name="Trazado 1175981" d="M217.379,97.022c1.167-5.326,2.606-10.55,4.1-15.786.144-.508.93-.391.822.148-.865,4.351-1.767,8.652-2.829,12.965-.513,2.086-1.338,4.378-1.038,6.551.251,1.817,1.667,2.974,3.173,3.787a.54.54,0,0,1-.052.987c-1.611.511-3.287-.682-3.974-2.1-.986-2.037-.666-4.428-.2-6.552" transform="translate(-60.005 -6.071)" fill="#263238"/>
          <path id="Trazado_1175982" data-name="Trazado 1175982" d="M249.1,73.066c-1.35-4.005-12.545-4.418-14.7-.756-3.742,6.361,17.022,7.644,14.7.756" transform="translate(-56.381 -8.439)" fill="#263238"/>
          <path id="Trazado_1175983" data-name="Trazado 1175983" d="M215.1,72.884c-1.4-3.388-11.11-3.1-12.763.192-2.872,5.721,15.17,5.636,12.763-.192" transform="translate(-63.179 -8.295)" fill="#263238"/>
          <path id="Trazado_1175984" data-name="Trazado 1175984" d="M243.057,89.5a27.238,27.238,0,0,0-6-1.456c-.853-.131-1.712-.178-2.564-.275a34.683,34.683,0,0,1,8.439-3.758.73.73,0,0,0-.262-1.436c-4.027.717-9.715,2.2-12.573,5.334a1.512,1.512,0,0,0-.148.205.975.975,0,0,0-.152.308,1.116,1.116,0,0,0-.055.193c0,.006,0,.01,0,.016s0,.025,0,.038a.948.948,0,0,0,.159.639c.018.028.053.03.074.056a.984.984,0,0,0,.421.313.928.928,0,0,0,.268.069c.013,0,.024.01.038.01a118.093,118.093,0,0,1,12.113.916.605.605,0,0,0,.244-1.171" transform="translate(-57.278 -5.721)" fill="#263238"/>
          <path id="Trazado_1175985" data-name="Trazado 1175985" d="M238.73,100.8a16,16,0,0,1-3.086,3.267,9.206,9.206,0,0,1-4.628,1.915c-.543,0-.537.747-.047.93a6.41,6.41,0,0,0,5.969-.932,5.8,5.8,0,0,0,2.6-4.919.462.462,0,0,0-.8-.262" transform="translate(-57.093 -1.867)" fill="#263238"/>
          <path id="Trazado_1175986" data-name="Trazado 1175986" d="M223.644,53.851a15.874,15.874,0,0,1,.016,5.843,15.449,15.449,0,0,0,.046,5.841,6.543,6.543,0,0,0,4.068,4.518,4.287,4.287,0,0,1,1.246-3.137c.735-.867,1.676-1.608,2.472-2.442a9.238,9.238,0,0,0,2.4-9.146Z" transform="translate(-58.627 -11.835)" fill="#263238"/>
          <path id="Trazado_1175987" data-name="Trazado 1175987" d="M221.317,48.579c-1.538-2.363-4.953-2.767-7.629-1.88s-4.9,2.741-7.345,4.151-5.443,2.385-8.057,1.328c1.641,5.362,8.041,9.475,13.552,8.443,4.743-.887,8.725-4.69,13.548-4.821Z" transform="translate(-63.977 -13.451)" fill="#263238"/>
          <path id="Trazado_1175988" data-name="Trazado 1175988" d="M268.954,111.964,252.73,131.446l14.906,16.442,13.643-30.341Z" transform="translate(-52.38 0.544)" fill="#a6cce4"/>
          <path id="Trazado_1175989" data-name="Trazado 1175989" d="M228.3,120.7l14.464,30.128,7.593,18.471,19.861-29.974-12.284-9.736,1.81,12.53-8.855,5.451-10.182-14.776Z" transform="translate(-57.584 2.404)" fill="#a6cce4"/>
          <path id="Trazado_1175990" data-name="Trazado 1175990" d="M252.745,152.341a2.153,2.153,0,0,0-.534-1.385l-.405-.326a1.457,1.457,0,0,0-.707-.239.964.964,0,0,0-.491-.012,1.456,1.456,0,0,0-.718.2l-.421.306a1.92,1.92,0,0,0-.528.866c-.073.258-.15.514-.23.77a3.751,3.751,0,0,0-.092.383c-.013.064-.027.129-.039.194a2.172,2.172,0,0,0-.028,1.1l0,.028c0,.039.01.078.013.116.065.172.131.344.2.517a1.609,1.609,0,0,0,.558.642,1.054,1.054,0,0,0,.475.289,1.6,1.6,0,0,0,.791.194l.542-.056.517-.2a1.617,1.617,0,0,0,.642-.558,1.586,1.586,0,0,0,.4-.728,5.258,5.258,0,0,0,.057-2.106" transform="translate(-53.282 8.721)" fill="#90b9d1"/>
          <path id="Trazado_1175991" data-name="Trazado 1175991" d="M250.94,178.143a2.234,2.234,0,0,0-.549-1.428,1.511,1.511,0,0,0-.656-.44,1.5,1.5,0,0,0-.742-.181l-.508.052a1.986,1.986,0,0,0-.919.5c-.113.139-.224.279-.336.419a1.984,1.984,0,0,0-.285.98q-.075.791-.147,1.582a2.164,2.164,0,0,0,2.052,2.158l.535-.055a2.1,2.1,0,0,0,.969-.524l.353-.44a2.1,2.1,0,0,0,.3-1.032q-.033-.793-.067-1.588" transform="translate(-53.644 14.204)" fill="#90b9d1"/>
          <path id="Trazado_1175992" data-name="Trazado 1175992" d="M247.024,148.135c-3.461,31.718-5.543,63.693-6.065,95.6-.148,8.99-.2,18.012.073,27a1.812,1.812,0,0,0,3.622,0c.155-31.912-.046-63.789,1.608-95.672q.7-13.466,1.621-26.92c.036-.559-.8-.537-.859,0" transform="translate(-54.913 8.161)" fill="#90b9d1"/>
          <path id="Trazado_1175993" data-name="Trazado 1175993" d="M223,154.4c20.654,34.606,72.941,103.917,72.941,103.917l-.913.156c-32.956,5.647-56.934-15.448-67.046-47.32l-28.681-48.17Z" transform="translate(-63.76 9.583)" fill="#ac635b"/>
          <path id="Trazado_1175994" data-name="Trazado 1175994" d="M215.583,142.371c-.016-.018-3.521-5.051-6.366-9.134a8.3,8.3,0,0,0-9.5-3.108l-13.177,4.506,5.26,9.6,9.092-1.568Z" transform="translate(-66.479 4.318)" fill="#ac635b"/>
          <path id="Trazado_1175995" data-name="Trazado 1175995" d="M199.818,142.37l-24.49.087a2.838,2.838,0,0,1-2.848-2.828l-.016-4.6a2.836,2.836,0,0,1,2.828-2.847l24.49-.087a2.836,2.836,0,0,1,2.847,2.826l.017,4.606a2.838,2.838,0,0,1-2.828,2.847" transform="translate(-69.477 4.831)" fill="#ac635b"/>
          <rect id="Rectángulo_423263" data-name="Rectángulo 423263" width="6.128" height="44.637" transform="matrix(0.966, -0.258, 0.258, 0.966, 116.446, 126.826)" fill="#263238"/>
          <path id="Trazado_1175996" data-name="Trazado 1175996" d="M212.348,132.708a147.345,147.345,0,0,1,16.5,26.427l-5.75,13.628-33.191-18.331-15.544-11.561a5.881,5.881,0,0,1,5.975-10.094l10.2,4.744Z" transform="translate(-69.608 4.847)" fill="#ac635b"/>
          <path id="Trazado_1175997" data-name="Trazado 1175997" d="M176.79,141.286a5.162,5.162,0,0,0-2.855,5.009,4.912,4.912,0,0,0,4.942,4.617,4.823,4.823,0,0,0-2.143,4.648,5.749,5.749,0,0,0,3.578,4.055,4.279,4.279,0,0,0,.936,5.388,12.325,12.325,0,0,0,5.865,2.524,203.991,203.991,0,0,0,35.551,3.293Z" transform="translate(-69.169 6.79)" fill="#ac635b"/>
          <path id="Trazado_1175998" data-name="Trazado 1175998" d="M195.77,106.071c3.35,12.4.763,24.116-5.723,27.865-7.488.042-15.626-8.779-18.98-21.189s-.768-24.131,5.723-27.865c7.492-.028,15.63,8.793,18.98,21.189" transform="translate(-70.088 -5.225)" fill="#a6cce4"/>
          <path id="Trazado_1175999" data-name="Trazado 1175999" d="M182.474,91.382a2.7,2.7,0,0,0-1.164-.7,1.013,1.013,0,0,0-1.16.508,1.47,1.47,0,0,0,.006.835,55.76,55.76,0,0,0,3.819,11.8c.568,1.257,1.435,3.187,2.959,3.5a2.322,2.322,0,0,0,2.534-2.014c.671-2.877-1.622-7.037-3.111-9.371a21.593,21.593,0,0,0-3.882-4.557" transform="translate(-67.853 -3.996)" fill="#fff"/>
          <path id="Trazado_1176000" data-name="Trazado 1176000" d="M185.3,108.378a3.366,3.366,0,0,0,.769,2.718,2.885,2.885,0,0,0,3.4.892,2.641,2.641,0,0,0,1.149-1.292,3.27,3.27,0,0,0-.344-3.155c-1.395-1.924-4.491-1.729-4.97.837" transform="translate(-66.754 -0.673)" fill="#fff"/>
          <path id="Trazado_1176001" data-name="Trazado 1176001" d="M179.749,84.209l-4.5,1.215c-8.074,2.182-11.607,15.054-7.9,28.753s13.238,23.04,21.311,20.858l4.5-1.215c8.074-2.182,11.607-15.054,7.9-28.753s-13.239-23.04-21.311-20.858m11.091,49.939c-7.488.042-15.626-8.779-18.98-21.189s-.768-24.131,5.723-27.865c7.492-.029,15.63,8.793,18.98,21.189s.763,24.116-5.723,27.865" transform="translate(-70.881 -5.436)" fill="#263238"/>
          <path id="Trazado_1176002" data-name="Trazado 1176002" d="M200.318,134.067a5.454,5.454,0,0,0-2.152.58c-.818.3-1.647.559-2.482.809a42.9,42.9,0,0,1-5.33,1.246,50.737,50.737,0,0,1-10.706.793c-.206-.011-.295.3-.081.365a25.647,25.647,0,0,0,10.98,1.054,30.021,30.021,0,0,0,5.337-1.235,25.184,25.184,0,0,0,2.751-1.105,5.159,5.159,0,0,0,2.191-1.413.7.7,0,0,0-.508-1.094" transform="translate(-67.991 5.252)" fill="#263238"/>
          <path id="Trazado_1176003" data-name="Trazado 1176003" d="M191.165,144.914a17.107,17.107,0,0,0-3.269-.146,24.481,24.481,0,0,1-3.5-.295c-1.112-.176-2.209-.422-3.316-.617a17.518,17.518,0,0,1-3.35-.89c-.372-.146-.613.465-.262.647,1.054.547,2.1,1.111,3.2,1.578a14.657,14.657,0,0,0,3.543.95,27.234,27.234,0,0,0,3.567.32,8.083,8.083,0,0,0,3.526-.49.581.581,0,0,0-.139-1.057" transform="translate(-68.448 7.143)" fill="#824645"/>
          <path id="Trazado_1176004" data-name="Trazado 1176004" d="M185.96,150.774a4.627,4.627,0,0,0-1.361-.477c-.425-.049-.848-.093-1.271-.156-.915-.137-1.828-.222-2.732-.432a.361.361,0,0,0-.182.7,25.138,25.138,0,0,0,2.683.82c.448.095.9.187,1.35.251a3.625,3.625,0,0,0,1.443-.167.3.3,0,0,0,.069-.536" transform="translate(-67.839 8.581)" fill="#824645"/>
          <path id="Trazado_1176005" data-name="Trazado 1176005" d="M183.284,156.615c-.189-.082-.365-.183-.551-.273a2.454,2.454,0,0,0-.792-.181c-.459-.058-.935-.047-1.4-.065a.473.473,0,0,0-.118.929c.456.085.913.19,1.373.249a2.335,2.335,0,0,0,.79.012c.211-.047.415-.109.627-.15a.286.286,0,0,0,.068-.52" transform="translate(-67.856 9.944)" fill="#824645"/>
          <path id="Trazado_1176006" data-name="Trazado 1176006" d="M285.426,265.4c36.878-34.19,42.773-113.427,33.719-134.515-6.624-15.431-22.888-14-33.884,14.859s-15.712,49.882-36.576,90.457Z" transform="translate(-53.241 2.498)" fill="#ebebeb"/>
          <path id="Trazado_1176007" data-name="Trazado 1176007" d="M295.937,256.62c-39.02,41.471-70.283-4.915-96.6-65.111l29.649-29.152,44.979,52.366Z" transform="translate(-63.753 11.278)" fill="#ebebeb"/>
          <path id="Trazado_1176008" data-name="Trazado 1176008" d="M207.926,189.727c-2.125,3.56,3.315,11.664,6.732,10.662,5.637-1.652-3.3-16.416-6.732-10.662" transform="translate(-62.026 16.827)" fill="#dbdbdb"/>
          <path id="Trazado_1176009" data-name="Trazado 1176009" d="M332.769,149.076c-.659,11.043-1.81,22.084-3.452,33.024a181.215,181.215,0,0,1-7.517,31.884c-5.995,17.489-15.981,33.978-30.221,45.97a74.445,74.445,0,0,1-12.245,8.4,67.13,67.13,0,0,1-6.587,3.164c-2.31.953-7.41,3.017-7.41,3.017a83.182,83.182,0,0,1-15.67-8.213,85.343,85.343,0,0,1-14.214-12.509c-9.437-10.237-16.618-22.362-23.1-34.616-3.8-7.186-7.35-14.549-10.755-21.928a.331.331,0,0,0-.2-.173,1.69,1.69,0,0,0,.3-.2c9.936-10.018,19.872-20.063,28.819-30.985a.506.506,0,0,0-.717-.714c-10.846,9.036-20.806,19.053-30.739,29.069a1.878,1.878,0,0,0,1.793,3.1.3.3,0,0,0-.013.213c5.467,13.855,10.618,27.859,18.278,40.7a101.3,101.3,0,0,0,26.863,30.15c3.382,2.468,15.2,10.345,20.143,9.77,3.788-.439,9.778-3.17,13.577-5.1a75.548,75.548,0,0,0,11.559-7.319,92.787,92.787,0,0,0,19.253-20.209c12.156-17.13,18.136-37.915,21-58.5,1.753-12.611,2.17-25.282,2.6-37.988.029-.867-1.288-.854-1.339,0" transform="translate(-63.928 8.311)" fill="#dbdbdb"/>
          <path id="Trazado_1176010" data-name="Trazado 1176010" d="M272.241,199.638q2.877-7.693,5.445-15.488c3.366-10.228,6.265-20.622,8.853-31.073,1.485-6,2.724-12.033,4.008-18.075a.524.524,0,0,0-1.027-.2c-5.577,20.883-12.669,41.418-20.21,61.664q-1.55,4.159-3.168,8.292c-.933,2.385-2.137,4.841-2.87,7.339-5.911-7.068-11.818-14.14-17.83-21.123q-4.745-5.513-9.5-11.02c-3.25-3.76-6.707-7.321-9.977-11.055-.575-.657-1.719.321-1.173,1.009,3.033,3.823,5.858,7.8,8.918,11.609s6.127,7.623,9.2,11.423c6.132,7.573,12.358,15.066,18.585,22.561a1.89,1.89,0,0,0,1.061,1.606l.028.016c1.7,3.381,3.409,6.758,5.092,10.148A79.28,79.28,0,0,1,272.5,238.2a.473.473,0,0,0,.9-.294c-1.007-3.986-1.73-8.04-2.934-11.977-.541-1.77-1.18-3.524-1.884-5.254a71.514,71.514,0,0,1,8.5,6.548,58.658,58.658,0,0,1,11.554,13.649c.371.639,1.281.018.95-.617a69.063,69.063,0,0,0-10.386-15.42,57.843,57.843,0,0,0-12.961-10.36,43.2,43.2,0,0,0,3.114-7.279q1.474-3.77,2.892-7.561" transform="translate(-58.362 5.322)" fill="#dbdbdb"/>
          <path id="Trazado_1176011" data-name="Trazado 1176011" d="M160.808,230.248a55.207,55.207,0,0,0-3.231-8.6,85.566,85.566,0,0,0-4.132-8.218,73.473,73.473,0,0,0-4.895-7.532c-1.866-2.494-4.021-4.682-6.116-6.974-.683-.745-1.7.338-1.092,1.094a82.085,82.085,0,0,1,5.024,7.393c1.578,2.453,3.069,4.947,4.428,7.528a81.661,81.661,0,0,1,3.594,7.756c1.111,2.786,1.879,5.667,2.883,8.485.78,2.19,4.111,1.384,3.536-.933" transform="translate(-76.147 19.014)" fill="#dbdbdb"/>
          <path id="Trazado_1176012" data-name="Trazado 1176012" d="M145.246,213.806c-.445-1.731-.89-3.444-1.457-5.14q-.408-1.223-.852-2.432a4.062,4.062,0,0,0-1.583-2.5,1.4,1.4,0,0,0-2.018.855,3.9,3.9,0,0,0,.58,2.678q.566,1.257,1.09,2.533c.651,1.593,1.316,3.19,1.886,4.814a79.373,79.373,0,0,1,3.052,10.261c.17.826,1.363.472,1.245-.329a103.941,103.941,0,0,0-1.943-10.744" transform="translate(-76.55 20.056)" fill="#dbdbdb"/>
          <path id="Trazado_1176013" data-name="Trazado 1176013" d="M123.654,170.7c-4.723,3.777-8.9,8.183-13.407,12.205-2.228,1.987-4.386,4.02-6.481,6.145-2.2,2.228-6.805,6.179-8.5,8.827-1.243,1.94,1.328,4.623,3.281,3.274a77.06,77.06,0,0,0,9.136-8.2c2.114-2.231,4.127-4.528,6.094-6.89,3.894-4.676,8.164-9.024,11.8-13.9.889-1.192-.95-2.24-1.924-1.462" transform="translate(-85.992 12.998)" fill="#dbdbdb"/>
          <path id="Trazado_1176014" data-name="Trazado 1176014" d="M103.516,196.619c-2.124,3.56,3.315,11.664,6.732,10.662,5.637-1.652-3.3-16.416-6.732-10.662" transform="translate(-84.267 18.295)" fill="#dbdbdb"/>
          <path id="Trazado_1176015" data-name="Trazado 1176015" d="M218.844,288.575c-3.208-.127-6.372-.079-9.56-.449-3.076-.369-6.132-.913-9.164-1.568-2.352-.524-4.66-1.115-6.968-1.793.37-2.022.719-4.022,1.089-6.023,2.4.919,4.816,1.752,7.255,2.517,2.968.92,5.979,1.684,9.013,2.405,2.9.677,5.738,1.508,8.7,1.965,1.692.262,1.279,2.986-.37,2.945" transform="translate(-65.071 36.07)" fill="#dbdbdb"/>
          <path id="Trazado_1176016" data-name="Trazado 1176016" d="M219.821,91.748c1.359,7.63-2.287,14.659-8.141,15.7s-11.7-4.3-13.059-11.928,2.287-14.659,8.141-15.7S218.462,84.119,219.821,91.748Z" transform="translate(-63.966 -6.331)" fill="none" stroke="#ebebeb" stroke-miterlimit="10" stroke-width="1"/>
          <path id="Trazado_1176017" data-name="Trazado 1176017" d="M247.352,88.942c1.359,7.63-2.288,14.659-8.142,15.7s-11.7-4.3-13.058-11.928,2.285-14.659,8.141-15.7S245.992,81.313,247.352,88.942Z" transform="translate(-58.102 -6.929)" fill="none" stroke="#ebebeb" stroke-miterlimit="10" stroke-width="1"/>
          <path id="Trazado_1176018" data-name="Trazado 1176018" d="M215.227,86.875c6.49-1.964,12.908.689,12.908.689" transform="translate(-60.368 -4.955)" fill="none" stroke="#ebebeb" stroke-miterlimit="10" stroke-width="1"/>
          <line id="Línea_3652" data-name="Línea 3652" y1="6.934" x2="15.568" transform="translate(189.249 75.08)" fill="none" stroke="#ebebeb" stroke-miterlimit="10" stroke-width="1"/>
        </g>
      </g>
      <path id="Trazado_1176019" data-name="Trazado 1176019" d="M420.02,337.086l.015,11.029.016,11.03-29.209.04-.011-7.219c0-2.1-2.125-3.808-4.739-3.8l-29.144.04c-2.615,0-4.732,1.713-4.73,3.817l.01,7.219-29.209.04L323,348.249l-.015-11.03Z" transform="translate(603.698 8725.588)" fill="#38474f"/>
      <path id="Trazado_1176020" data-name="Trazado 1176020" d="M324.306,340.87c2.815-.592,5.935-.279,8.806-.3q4.631-.042,9.263-.081c6.082-.051,12.163-.046,18.245-.047l36.21-.008c3.369,0,6.737.022,10.106.039,3.35.017,6.822-.052,10,1.052a.675.675,0,0,1,0,1.305,27.328,27.328,0,0,1-8.6,1.069c-3.086.061-6.177.058-9.264.072-6.081.028-12.163.032-18.245.046-12.068.032-24.14.135-36.21.068l-10.1-.061-5.053-.03a26.157,26.157,0,0,1-5.158-.258,1.477,1.477,0,0,1,0-2.859" transform="translate(603.744 8726.3)" fill="#263238"/>
      <path id="Trazado_1176021" data-name="Trazado 1176021" d="M389.825,322.114l-.013-9.821a25.937,25.937,0,0,0-.573-5.386l-5.886-27.573a8.789,8.789,0,0,0-8.605-6.953l-10.791.016-.019-14.42,14.852-.021,10.42-.013a10.8,10.8,0,0,1,9.97,6.607l16.848,39.987a26.916,26.916,0,0,1,2.112,10.414l.033,23.277.015,10.74-28.324.04-65.6.09-.009-6.168a4.572,4.572,0,0,1,4.566-4.578l44.872-.062a16.153,16.153,0,0,0,16.131-16.176" transform="translate(603.968 8708.729)" fill="#dbdbdb"/>
      <path id="Trazado_1176022" data-name="Trazado 1176022" d="M320.33,331.947l105.645-.146a5.135,5.135,0,0,1,5.142,5.126v.763a5.133,5.133,0,0,1-5.127,5.141l-105.645.144a5.132,5.132,0,0,1-5.141-5.126v-.762a5.133,5.133,0,0,1,5.127-5.141" transform="translate(602.04 8724.462)" fill="#38474f"/>
      <rect id="Rectángulo_423265" data-name="Rectángulo 423265" width="11.089" height="18.885" transform="translate(956.876 8921.884) rotate(-0.081)" fill="#a6cce4"/>
      <rect id="Rectángulo_423266" data-name="Rectángulo 423266" width="15.9" height="88.958" transform="translate(954.48 8928.241) rotate(-0.079)" fill="#263238"/>
      <rect id="Rectángulo_423267" data-name="Rectángulo 423267" width="29.41" height="70.907" transform="translate(947.744 8940.781) rotate(-0.078)" fill="#ebebeb"/>
      <rect id="Rectángulo_423268" data-name="Rectángulo 423268" width="6.059" height="7.371" transform="translate(950.916 8993.186) rotate(-0.08)" fill="#fff"/>
      <rect id="Rectángulo_423269" data-name="Rectángulo 423269" width="6.059" height="42.618" transform="translate(950.852 8946.995) rotate(-0.08)" fill="#fff"/>
      <rect id="Rectángulo_423270" data-name="Rectángulo 423270" width="8.473" height="14.544" transform="translate(958.337 9032.501) rotate(-0.082)" fill="#263238"/>
      <path id="Trazado_1176023" data-name="Trazado 1176023" d="M354.168,258.793A12.647,12.647,0,1,0,366.8,246.129a12.645,12.645,0,0,0-12.628,12.664" transform="translate(610.34 8706.213)" fill="#a6cce4"/>
      <path id="Trazado_1176024" data-name="Trazado 1176024" d="M358.17,257.934a7.791,7.791,0,1,0,7.78-7.8A7.793,7.793,0,0,0,358.17,257.934Z" transform="translate(611.192 8707.065)" fill="none" stroke="#263238" stroke-miterlimit="10" stroke-width="1"/>
      <path id="Trazado_1176025" data-name="Trazado 1176025" d="M337.1,317.408l38.867-.053a3.085,3.085,0,0,0,3.08-3.09v-.457a3.086,3.086,0,0,0-3.09-3.081l-38.867.053a3.085,3.085,0,0,0-3.08,3.09v.459a3.085,3.085,0,0,0,3.09,3.08" transform="translate(606.046 8719.973)" fill="#38474f"/>
      <path id="Trazado_1176026" data-name="Trazado 1176026" d="M356.144,112.073c-8.544-4.756-18.207-5.148-27.592-6.935-9.773-1.86-21.832-6.822-22.8-18.287a.963.963,0,0,0-1.924.08c-.683,9.254,6.76,17.1,14.737,20.6,9.227,4.051,19.485,4.224,28.962,7.416a26.582,26.582,0,0,1,11,6.652c3.32,3.537,4.535,8.257,4.475,13.012-.131,10.385-5.867,19.659-8.646,29.425-2.847,10.007-2.586,23.213,7.465,29.088,2.208,1.291,4.144-1.792,2.516-3.513-6.541-6.915-6.2-17.025-3.567-25.518,2.976-9.611,7.923-18.482,8.4-28.736a24.614,24.614,0,0,0-13.023-23.284" transform="translate(599.607 8672.095)" fill="#263238"/>
      <path id="Trazado_1176027" data-name="Trazado 1176027" d="M336.956,76.432c-1.473.1-2.83,1.035-4.133,1.685L329.1,79.973l-8.067,4.021c-5.389,2.688-10.733,5.443-16.026,8.315-1.232.67-.525,2.689.824,2.084,5.583-2.5,11.1-5.123,16.594-7.818l8.087-3.97,4.044-1.985a10.3,10.3,0,0,0,3.527-2.156,1.269,1.269,0,0,0-1.127-2.033" transform="translate(599.732 8670.064)" fill="#dbdbdb"/>
      <path id="Trazado_1176028" data-name="Trazado 1176028" d="M337.517,83.394c-1.439-.058-2.348.619-3.6,1.288-1.126.6-2.255,1.195-3.383,1.792q-3.806,2.016-7.647,3.969c-5.039,2.551-10.152,4.96-15.1,7.684a1.158,1.158,0,0,0,.852,2.152,150.592,150.592,0,0,0,15.725-6.963q3.716-1.836,7.395-3.743c1.321-.688,2.631-1.394,3.941-2.1a6.147,6.147,0,0,0,2.849-2.233,1.331,1.331,0,0,0-1.032-1.843" transform="translate(600.317 8671.547)" fill="#dbdbdb"/>
      <path id="Trazado_1176029" data-name="Trazado 1176029" d="M335.484,93.213a1.658,1.658,0,0,0-1.647-.25c-5.671,3.011-11.384,5.933-17.05,8.952-1.257.67-.565,2.642.832,2.107,2.995-1.146,5.941-2.334,8.85-3.686s5.75-2.811,8.585-4.293a1.659,1.659,0,0,0,1.031-1.309,1.564,1.564,0,0,0-.6-1.521" transform="translate(602.237 8673.558)" fill="#dbdbdb"/>
      <path id="Trazado_1176030" data-name="Trazado 1176030" d="M342.829,105.611c-2.095.428-4.121,2.145-5.938,3.246-1.867,1.131-3.724,2.274-5.564,3.45-3.821,2.442-7.572,5-11.271,7.619-1.194.848.139,2.648,1.34,1.828q5.522-3.774,11.27-7.2c1.879-1.122,3.77-2.225,5.681-3.292,1.844-1.029,4.293-1.823,5.763-3.344a1.439,1.439,0,0,0-1.281-2.31" transform="translate(602.974 8676.275)" fill="#dbdbdb"/>
      <path id="Trazado_1176031" data-name="Trazado 1176031" d="M354.406,110.695c-1.589.36-2.7,1.326-4.07,2.149-1.52.911-3.068,1.78-4.594,2.682q-4.416,2.611-8.776,5.315-8.888,5.513-17.438,11.513c-1.346.945.138,2.919,1.5,2.043q8.635-5.559,17.414-10.905,4.227-2.566,8.507-5.045c1.534-.889,3.066-1.794,4.623-2.644,1.493-.818,3.057-1.308,4.259-2.542a1.6,1.6,0,0,0-1.423-2.566" transform="translate(602.848 8677.356)" fill="#dbdbdb"/>
      <path id="Trazado_1176032" data-name="Trazado 1176032" d="M359.752,116.982c-3.1,1.414-5.967,3.762-8.771,5.7-2.94,2.027-5.916,4.01-8.815,6.1-5.8,4.17-11.661,8.249-17.511,12.351-1.3.911.127,2.79,1.441,1.965,5.956-3.745,11.867-7.552,17.89-11.188,2.952-1.783,5.83-3.7,8.735-5.558,2.926-1.87,6.346-3.626,8.9-5.978,1.5-1.382.314-4.38-1.869-3.384" transform="translate(603.944 8678.66)" fill="#dbdbdb"/>
      <path id="Trazado_1176033" data-name="Trazado 1176033" d="M358.015,129.991a1.847,1.847,0,0,0-2.169-.049,54.214,54.214,0,0,0-5,3.662q-2.5,1.827-5.074,3.557c-3.417,2.3-6.924,4.486-10.479,6.567-1.255.735-.073,2.9,1.238,2.242q5.712-2.86,11.159-6.2,2.646-1.623,5.229-3.342a35.8,35.8,0,0,0,5.365-3.94,1.729,1.729,0,0,0,.269-1.77,1.76,1.76,0,0,0-.537-.731" transform="translate(606.205 8681.394)" fill="#dbdbdb"/>
      <path id="Trazado_1176034" data-name="Trazado 1176034" d="M367.216,143.434a9.946,9.946,0,0,0-2.811,1.754l-2.356,1.689-5.1,3.658q-5.1,3.659-10.152,7.391a1.609,1.609,0,0,0,1.9,2.593q5.173-3.564,10.3-7.188,2.562-1.816,5.123-3.631l2.365-1.676a9.792,9.792,0,0,0,2.567-2.095,1.617,1.617,0,0,0-1.836-2.5" transform="translate(608.631 8684.321)" fill="#dbdbdb"/>
      <path id="Trazado_1176035" data-name="Trazado 1176035" d="M382.888,146.683a21.313,21.313,0,0,0-4.3,2.515q-2.285,1.437-4.548,2.911c-2.91,1.889-5.835,3.756-8.722,5.679-5.859,3.9-11.9,7.657-17.472,11.971-1.528,1.184.131,3.257,1.729,2.357,6.146-3.463,11.962-7.576,17.845-11.464,2.892-1.91,5.746-3.879,8.615-5.824q2.233-1.514,4.443-3.054a21.012,21.012,0,0,0,3.951-3c.934-1.059-.34-2.488-1.536-2.086" transform="translate(608.863 8685.015)" fill="#dbdbdb"/>
      <path id="Trazado_1176036" data-name="Trazado 1176036" d="M379.946,154.853c-11.612-2.294-23.368,1.208-35.025.175-9.11-.808-20.009-5.087-21.736-15.242-1.84-10.829,5.218-20.712,9.868-29.851,2.846-5.593,5-11.556,5.227-17.886a35.617,35.617,0,0,0-4.47-18.23c-.731-1.379-2.977-.576-2.311.913a33.294,33.294,0,0,1,2.437,17.034c-.615,5.554-2.862,10.6-5.51,15.46-5.226,9.6-11.81,18.86-11.561,30.3.238,10.9,8.343,18.816,18.329,21.873,11.161,3.417,22.515,1.156,33.915.867,5.844-.148,11.656.5,16.986,3.029,5.089,2.411,8.355,6.3,10.876,11.243a2.41,2.41,0,0,0,4.613-1.169c-.414-10.57-12.607-16.731-21.638-18.514" transform="translate(602.393 8669.356)" fill="#a6cce4"/>
      <path id="Trazado_1176037" data-name="Trazado 1176037" d="M87.85,86.845c-1.914,1.266-3.239,3.457-4.576,5.283-1.44,1.964-2.86,3.941-4.233,5.952-2.715,3.976-5.405,7.962-8.181,11.9a.637.637,0,0,0,1.023.758c2.959-3.8,5.99-7.532,9-11.285,1.487-1.852,2.933-3.739,4.357-5.639,1.389-1.852,3.16-3.805,3.832-6.057a.8.8,0,0,0-1.226-.909" transform="translate(549.964 8672.25)" fill="#a6cce4"/>
      <path id="Trazado_1176038" data-name="Trazado 1176038" d="M111.691,88.17c-2.158-.78-4.706-.535-6.97-.519-2.435.017-4.869.057-7.3.156-4.811.194-9.614.414-14.428.535a.637.637,0,0,0,0,1.274c4.813.106,9.618.311,14.429.489,2.374.089,4.75.123,7.125.132,2.316.008,4.939.264,7.146-.541a.8.8,0,0,0,0-1.526" transform="translate(552.444 8672.443)" fill="#38474f"/>
      <path id="Trazado_1176039" data-name="Trazado 1176039" d="M70.27,71.561a7.255,7.255,0,1,0,1.841,11.481c.194.109.386.223.582.329,2.043,1.1,4.116,2.118,6.2,3.134,4.108,2,8.156,4.13,12.267,6.128a.8.8,0,0,0,.741-1.418c-3.987-2.236-8.042-4.346-12.033-6.576-1.971-1.1-3.944-2.189-5.952-3.221-.165-.085-.332-.16-.5-.243a7.25,7.25,0,0,0-3.148-9.616" transform="translate(547.604 8668.851)" fill="#38474f"/>
      <path id="Trazado_1176040" data-name="Trazado 1176040" d="M83.546,66.9a1.172,1.172,0,0,0-2.325.286,124.925,124.925,0,0,0,1.47,12.733c.588,4.233,1.327,8.445,1.936,12.675a.9.9,0,0,0,1.788-.22c-.437-4.252-.745-8.517-1.2-12.766A124.757,124.757,0,0,0,83.546,66.9" transform="translate(552.197 8667.822)" fill="#a6cce4"/>
      <path id="Trazado_1176041" data-name="Trazado 1176041" d="M89.533,82.88a7.639,7.639,0,1,1-10.309,3.23,7.639,7.639,0,0,1,10.309-3.23" transform="translate(551.587 8671.252)" fill="#a6cce4"/>
      <path id="Trazado_1176042" data-name="Trazado 1176042" d="M85.779,62.448a6.455,6.455,0,1,1-8.712,2.729,6.456,6.456,0,0,1,8.712-2.729" transform="translate(551.156 8666.929)" fill="#a6cce4"/>
      <path id="Trazado_1176043" data-name="Trazado 1176043" d="M76.906,100.776a7.573,7.573,0,1,1-10.22,3.2,7.572,7.572,0,0,1,10.22-3.2" transform="translate(548.918 8675.066)" fill="#a6cce4"/>
      <path id="Trazado_1176044" data-name="Trazado 1176044" d="M108.074,85.486A5.716,5.716,0,1,1,100.36,87.9a5.717,5.717,0,0,1,7.714-2.418" transform="translate(556.136 8671.854)" fill="#38474f"/>
      <path id="Trazado_1176045" data-name="Trazado 1176045" d="M36.725,177.866c4.111-3.62,9.352-4.983,14.277-7.078,5.129-2.18,11.138-6.331,10.306-12.721a.539.539,0,0,1,1.061-.184c1.475,4.983-1.665,10.161-5.615,13.027-4.569,3.315-10.163,4.63-14.97,7.5a14.879,14.879,0,0,0-5.232,4.949,10.209,10.209,0,0,0-.9,7.654c1.306,5.668,5.55,10.063,8.232,15.077,2.75,5.14,4.178,12.4-.625,16.81-1.055.969-2.482-.488-1.8-1.624,2.757-4.563,1.367-10.055-1.083-14.391-2.772-4.907-6.535-9.173-8.013-14.73a13.786,13.786,0,0,1,4.358-14.293" transform="translate(541.682 8687.324)" fill="#ebebeb"/>
      <path id="Trazado_1176046" data-name="Trazado 1176046" d="M40.89,155.419a6.521,6.521,0,0,1,2.462.431l2.259.573,4.893,1.242c3.27.83,6.522,1.7,9.761,2.644.755.22.608,1.41-.2,1.24-3.354-.706-6.685-1.485-10.012-2.306l-4.9-1.211-2.449-.605a5.776,5.776,0,0,1-2.187-.761.711.711,0,0,1,.375-1.247" transform="translate(543.471 8686.885)" fill="#ebebeb"/>
      <path id="Trazado_1176047" data-name="Trazado 1176047" d="M41.175,159.35a3.734,3.734,0,0,1,2.124.277c.688.2,1.376.386,2.065.579,1.549.433,3.1.858,4.658,1.263,3.06.8,6.146,1.508,9.178,2.41a.648.648,0,0,1-.209,1.279,84.276,84.276,0,0,1-9.436-1.94c-1.5-.376-3-.763-4.493-1.171-.8-.22-1.606-.449-2.407-.682a3.443,3.443,0,0,1-1.826-.883.747.747,0,0,1,.346-1.132" transform="translate(543.563 8687.712)" fill="#ebebeb"/>
      <path id="Trazado_1176048" data-name="Trazado 1176048" d="M42.336,164.726a.928.928,0,0,1,.872-.331c3.462.973,6.937,1.892,10.4,2.871a.634.634,0,0,1-.2,1.251c-1.775-.271-3.53-.569-5.283-.963s-3.481-.855-5.209-1.328a.932.932,0,0,1-.721-.594.878.878,0,0,1,.148-.9" transform="translate(543.871 8688.797)" fill="#ebebeb"/>
      <path id="Trazado_1176049" data-name="Trazado 1176049" d="M40.261,172.277a11.876,11.876,0,0,1,3.635,1.071c1.157.4,2.31.8,3.456,1.225,2.382.883,4.739,1.835,7.076,2.83a.635.635,0,0,1-.516,1.16q-3.472-1.408-7.025-2.6c-1.162-.391-2.328-.769-3.5-1.126a13.6,13.6,0,0,1-3.552-1.145.806.806,0,0,1,.426-1.417" transform="translate(543.32 8690.48)" fill="#ebebeb"/>
      <path id="Trazado_1176050" data-name="Trazado 1176050" d="M35.713,176.182a7.807,7.807,0,0,1,2.483.693c.94.318,1.891.609,2.834.922q2.727.9,5.436,1.866,5.52,1.96,10.914,4.226c.85.358.272,1.615-.576,1.3q-5.388-2.016-10.829-3.9-2.618-.9-5.256-1.749c-.946-.3-1.892-.617-2.845-.9a9.092,9.092,0,0,1-2.633-.886.894.894,0,0,1,.473-1.573" transform="translate(542.334 8691.313)" fill="#ebebeb"/>
      <path id="Trazado_1176051" data-name="Trazado 1176051" d="M33.622,180.243a34.2,34.2,0,0,1,5.479,2.074c1.85.759,3.714,1.492,5.55,2.288,3.671,1.593,7.363,3.127,11.053,4.677.819.344.262,1.543-.554,1.247-3.706-1.34-7.395-2.722-11.123-4-1.828-.625-3.631-1.331-5.442-2A35.363,35.363,0,0,1,33,182.318c-.985-.577-.694-2.359.62-2.074" transform="translate(541.802 8692.172)" fill="#ebebeb"/>
      <path id="Trazado_1176052" data-name="Trazado 1176052" d="M34.757,187.455a1.033,1.033,0,0,1,1.18-.284,30.4,30.4,0,0,1,3.173,1.408q1.587.7,3.2,1.344,3.219,1.279,6.518,2.348c.775.252.385,1.577-.411,1.374q-3.466-.888-6.845-2.065-1.641-.573-3.259-1.208a19.966,19.966,0,0,1-3.406-1.517.971.971,0,0,1-.357-.936.986.986,0,0,1,.207-.465" transform="translate(542.253 8693.639)" fill="#ebebeb"/>
      <path id="Trazado_1176053" data-name="Trazado 1176053" d="M31.256,195.921a5.574,5.574,0,0,1,1.748.626l1.49.644,3.228,1.395q3.228,1.4,6.435,2.838a.9.9,0,0,1-.733,1.645q-3.255-1.334-6.492-2.709L33.7,198.983l-1.493-.636a5.507,5.507,0,0,1-1.655-.842.906.906,0,0,1,.708-1.584" transform="translate(541.336 8695.518)" fill="#ebebeb"/>
      <path id="Trazado_1176054" data-name="Trazado 1176054" d="M24.441,199.26a11.92,11.92,0,0,1,2.655.864q1.423.517,2.835,1.053c1.818.688,3.64,1.362,5.45,2.072,3.671,1.44,7.425,2.774,10.986,4.474a.819.819,0,0,1-.666,1.5c-3.775-1.165-7.448-2.724-11.129-4.152-1.811-.7-3.608-1.44-5.409-2.163q-1.4-.564-2.795-1.144a11.753,11.753,0,0,1-2.519-1.174c-.638-.468-.11-1.4.592-1.325" transform="translate(539.916 8696.228)" fill="#ebebeb"/>
      <path id="Trazado_1176055" data-name="Trazado 1176055" d="M29.514,203.805c6.083-2.637,12.933-2.118,19.191-4.071,4.89-1.525,10.346-5.164,10.084-10.927-.28-6.146-5.319-10.716-8.952-15.165a24.1,24.1,0,0,1-4.988-9.168,19.969,19.969,0,0,1,.278-10.51c.237-.842,1.561-.67,1.374.224a18.65,18.65,0,0,0,.693,9.614,23.669,23.669,0,0,0,4.853,7.806c4,4.635,8.708,8.918,9.932,15.208,1.167,6-2.328,11.292-7.431,14.152-5.7,3.2-12.185,3.31-18.458,4.509a20.705,20.705,0,0,0-8.937,3.678,13.044,13.044,0,0,0-4.616,7.448,1.35,1.35,0,0,1-2.664-.091c-1.031-5.835,4.91-10.658,9.641-12.708" transform="translate(539.104 8686.464)" fill="#ebebeb"/>
      <path id="Trazado_1176056" data-name="Trazado 1176056" d="M306.933,36.2c2.13-.759,3.914-2.542,5.626-3.974,1.84-1.539,3.667-3.1,5.456-4.7,3.536-3.162,7.051-6.34,10.636-9.449a.628.628,0,0,0-.8-.967c-3.728,2.937-7.509,5.792-11.28,8.671-1.861,1.42-3.689,2.885-5.5,4.366-1.766,1.445-3.923,2.9-5.1,4.89a.785.785,0,0,0,.958,1.16" transform="translate(600.047 8657.397)" fill="#dbdbdb"/>
      <path id="Trazado_1176057" data-name="Trazado 1176057" d="M295.864,12.833c.545,2.2,2.143,4.147,3.4,5.991,1.35,1.984,2.718,3.957,4.133,5.9,2.8,3.832,5.611,7.644,8.35,11.519a.627.627,0,0,0,1.041-.7c-2.553-4-5.019-8.045-7.511-12.083-1.23-1.992-2.5-3.957-3.8-5.906-1.263-1.9-2.493-4.19-4.362-5.554a.784.784,0,0,0-1.248.838" transform="translate(597.914 8656.301)" fill="#dbdbdb"/>
      <path id="Trazado_1176058" data-name="Trazado 1176058" d="M321.7,55.881a7.149,7.149,0,1,0,.951-11.421c-.161-.149-.318-.3-.48-.451-1.7-1.531-3.438-3-5.191-4.463-3.457-2.888-6.828-5.878-10.29-8.76a.788.788,0,0,0-1.043,1.18c3.286,3.081,6.668,6.059,9.96,9.135,1.625,1.519,3.256,3.025,4.933,4.486.138.12.28.233.42.351a7.144,7.144,0,0,0,.74,9.943" transform="translate(599.948 8660.3)" fill="#dbdbdb"/>
      <path id="Trazado_1176059" data-name="Trazado 1176059" d="M289.638,47.484a1.155,1.155,0,0,0,1.417,1.823,122.978,122.978,0,0,0,10.034-7.672c3.286-2.636,6.478-5.387,9.75-8.037a.888.888,0,0,0-1.089-1.4c-3.378,2.517-6.832,4.93-10.2,7.462a123,123,0,0,0-9.914,7.826" transform="translate(596.505 8660.602)" fill="#dbdbdb"/>
      <path id="Trazado_1176060" data-name="Trazado 1176060" d="M303.617,38.4a7.528,7.528,0,1,1,10.627-.656,7.529,7.529,0,0,1-10.627.656" transform="translate(599.03 8659.158)" fill="#dbdbdb"/>
      <path id="Trazado_1176061" data-name="Trazado 1176061" d="M285.344,47.336a6.362,6.362,0,1,1,6.708,5.995,6.36,6.36,0,0,1-6.708-5.995" transform="translate(595.677 8662.436)" fill="#dbdbdb"/>
      <path id="Trazado_1176062" data-name="Trazado 1176062" d="M319.9,24.239a7.464,7.464,0,1,1,10.534-.65,7.464,7.464,0,0,1-10.534.65" transform="translate(602.504 8656.165)" fill="#dbdbdb"/>
      <path id="Trazado_1176063" data-name="Trazado 1176063" d="M293.621,15.18a5.633,5.633,0,1,1,6.209,4.99,5.634,5.634,0,0,1-6.209-4.99" transform="translate(597.436 8655.688)" fill="#dbdbdb"/>
      <path id="Trazado_1176064" data-name="Trazado 1176064" d="M158.376,308.526a141.445,141.445,0,0,0,3.28-91.489q-4.469,47.428-13.409,94.294Z" transform="translate(566.476 8700.016)" fill="#90b9d1"/>
      <path id="Trazado_1176065" data-name="Trazado 1176065" d="M143.473,299.645a101.746,101.746,0,0,1,6.01-74.223c-8.487,24.919,10.934,52.633,3.6,77.913Z" transform="translate(564.529 8701.802)" fill="#90b9d1"/>
      <path id="Trazado_1176066" data-name="Trazado 1176066" d="M189.463,237.816c-14.784,16.583-23.539,11.009-28.9,38.557-1.082,5.56-6.578,26.167.554,25.492,7.176-.681,9.778-22.037,13.407-32.643,4.893-14.294,10.789-21.037,14.937-31.4" transform="translate(568.451 8704.441)" fill="#90b9d1"/>
      <path id="Trazado_1176067" data-name="Trazado 1176067" d="M148.147,295.377c5.753-4.3,8.7-11.544,9.445-18.689s-.435-14.331-1.479-21.439-1.949-14.372-.665-21.44c1.471,11.593,9.007,20.348,12.215,31.585a39.612,39.612,0,0,1-5.574,33.121Z" transform="translate(566.454 8703.588)" fill="#a6cce4"/>
      <path id="Trazado_1176068" data-name="Trazado 1176068" d="M144.43,302.758c-9.634-17.834-14.89-40.244-8.1-68.924,6.844,19.378,16.833,67.559,16.833,67.559Z" transform="translate(563.283 8703.594)" fill="#a6cce4"/>
      <path id="Trazado_1176069" data-name="Trazado 1176069" d="M175.631,282.671,172.818,300.9l-2.3,14.992a2.539,2.539,0,0,1-2.5,2.147l-26.548.036a2.536,2.536,0,0,1-2.516-2.214l-4.347-33.193a2.532,2.532,0,0,1,2.51-2.857l36.007-.05a2.523,2.523,0,0,1,2.5,2.909" transform="translate(563.566 8713.377)" fill="#dbdbdb"/>
      <path id="Trazado_1176070" data-name="Trazado 1176070" d="M171.615,282.671,168.8,300.9c-5.148-3.422-10.951-9.681-15.358-21.116l15.669-.022a2.523,2.523,0,0,1,2.5,2.909" transform="translate(567.583 8713.377)" fill="#ebebeb"/>
      <path id="Trazado_1176071" data-name="Trazado 1176071" d="M19.8,319.3l.062,44.629,93.794-.13-.061-44.629Zm65.8,36.44-56.326.078-.04-28.433L85.56,327.3Z" transform="translate(539.114 8721.771)" fill="#dbdbdb"/>
      <rect id="Rectángulo_423271" data-name="Rectángulo 423271" width="13.446" height="28.433" transform="matrix(1, -0.001, 0.001, 1, 568.348, 9049.151)" fill="#dbdbdb"/>
      <path id="Trazado_1176072" data-name="Trazado 1176072" d="M46.791,307.639l-9.774.013a2.8,2.8,0,1,0,.007,5.609h.346l.059,42.933a4.542,4.542,0,1,0,9.083-.012l-.058-42.934H46.8a2.8,2.8,0,0,0-.007-5.609" transform="translate(542.185 8719.315)" fill="#fff"/>
      <path id="Trazado_1176073" data-name="Trazado 1176073" d="M62.085,307.618l-9.774.013a2.8,2.8,0,1,0,.007,5.609h.346l.059,42.935a4.542,4.542,0,0,0,9.083-.013l-.058-42.933h.344a2.8,2.8,0,1,0-.007-5.609" transform="translate(545.443 8719.311)" fill="#fff"/>
      <path id="Trazado_1176074" data-name="Trazado 1176074" d="M77.379,307.6l-9.774.013a2.8,2.8,0,1,0,.007,5.609h.346l.059,42.934a4.542,4.542,0,1,0,9.083-.012l-.058-42.933h.344a2.8,2.8,0,0,0-.007-5.609" transform="translate(548.701 8719.307)" fill="#fff"/>
      <path id="Trazado_1176075" data-name="Trazado 1176075" d="M45.9,315.834l.053,38.607a4.538,4.538,0,0,1-9.076.012l-.052-38.607Z" transform="translate(542.741 8721.061)" fill="#a6cce4"/>
      <path id="Trazado_1176076" data-name="Trazado 1176076" d="M46.791,307.639l-9.774.013a2.8,2.8,0,1,0,.007,5.609h.346l.059,42.933a4.542,4.542,0,1,0,9.083-.012l-.058-42.934H46.8a2.8,2.8,0,0,0-.007-5.609Z" transform="translate(542.185 8719.315)" fill="none" stroke="#ebebeb" stroke-linecap="round" stroke-linejoin="round" stroke-width="1"/>
      <path id="Trazado_1176077" data-name="Trazado 1176077" d="M61.221,334.219l.022,16.28a4.537,4.537,0,0,1-9.075.012l-.022-16.28Z" transform="translate(546.004 8724.978)" fill="#263238"/>
      <path id="Trazado_1176078" data-name="Trazado 1176078" d="M62.085,307.618l-9.774.013a2.8,2.8,0,1,0,.007,5.609h.346l.059,42.935a4.542,4.542,0,0,0,9.083-.013l-.058-42.933h.344a2.8,2.8,0,1,0-.007-5.609Z" transform="translate(545.443 8719.311)" fill="none" stroke="#ebebeb" stroke-linecap="round" stroke-linejoin="round" stroke-width="1"/>
      <path id="Trazado_1176079" data-name="Trazado 1176079" d="M76.5,323.494l.04,29.263a4.537,4.537,0,1,1-9.075.012l-.04-29.263Z" transform="translate(549.259 8722.692)" fill="#38474f"/>
      <path id="Trazado_1176080" data-name="Trazado 1176080" d="M77.379,307.6l-9.774.013a2.8,2.8,0,1,0,.007,5.609h.346l.059,42.934a4.542,4.542,0,1,0,9.083-.012l-.058-42.933h.344a2.8,2.8,0,0,0-.007-5.609Z" transform="translate(548.701 8719.307)" fill="none" stroke="#ebebeb" stroke-linecap="round" stroke-linejoin="round" stroke-width="1"/>
      <path id="Trazado_1176081" data-name="Trazado 1176081" d="M19.8,319.292l.062,44.629,75.169-.1-.061-44.629Zm65.8,36.44-56.326.078-.04-28.433L85.56,327.3Z" transform="translate(539.114 8721.775)" fill="#ebebeb"/>
      <path id="Trazado_1176082" data-name="Trazado 1176082" d="M192.745,335.606l-98.308.136L94.4,310.936l98.308-.136a9.977,9.977,0,0,1,9.989,9.962l.006,4.854a9.974,9.974,0,0,1-9.961,9.989" transform="translate(555.006 8719.988)" fill="#38474f"/>
      <path id="Trazado_1176083" data-name="Trazado 1176083" d="M135.614,335.671l-41.176.057L94.4,310.922l41.177-.057a9.976,9.976,0,0,1,9.989,9.961l.006,4.856a9.975,9.975,0,0,1-9.961,9.989" transform="translate(555.006 8720.002)" fill="#263238"/>
      <path id="Trazado_1176084" data-name="Trazado 1176084" d="M134.3,331.053l-39.918.055-.023-16.947,39.918-.056a6.815,6.815,0,0,1,6.824,6.806l0,3.318a6.815,6.815,0,0,1-6.806,6.824" transform="translate(554.996 8720.692)" fill="#ebebeb"/>
      <path id="Trazado_1176085" data-name="Trazado 1176085" d="M137.189,318.28a26.93,26.93,0,0,0-4.8-.526c-1.773-.059-3.548-.092-5.315-.271-3.638-.367-7.276-.344-10.924-.386-3.54-.04-7.091-.124-10.63,0-3.409.121-7.173-.158-10.453,1.036a.6.6,0,0,0,0,1.089c3.2,1.154,6.837.873,10.16.995,3.637.132,7.287.035,10.924-.016,3.548-.05,7.092-.017,10.628-.385,1.77-.184,3.54-.237,5.314-.306.885-.034,1.771-.044,2.658-.064a13.012,13.012,0,0,0,2.436-.486c.29-.061.287-.622,0-.683" transform="translate(555.074 8721.316)" fill="#dbdbdb"/>
      <path id="Trazado_1176086" data-name="Trazado 1176086" d="M139.529,323.356c-1.454-.779-3.235-.694-4.807-.714q-2.82-.036-5.641-.041l-11.281-.019c-3.661-.007-7.322.022-10.984.051s-7.613-.352-11.224.434c-.919.2-.917,1.981,0,2.179,3.519.757,7.361.383,10.928.4,3.76.019,7.521.04,11.281.023l10.984-.05q2.82-.013,5.641-.055c1.663-.025,3.563.1,5.1-.731a.942.942,0,0,0,0-1.479" transform="translate(555.113 8722.495)" fill="#dbdbdb"/>
      <path id="Trazado_1176087" data-name="Trazado 1176087" d="M176.656,323.2a13.771,13.771,0,0,1-3.033,8.793,9.747,9.747,0,0,1-7.393,3.627l-11.086.015A9.74,9.74,0,0,0,162.537,332a13.764,13.764,0,0,0,3.033-8.792c-.008-6.839-4.68-12.4-10.46-12.392l11.086-.015c5.78-.008,10.45,5.552,10.46,12.391" transform="translate(567.938 8719.99)" fill="#263238"/>
      <path id="Trazado_1176088" data-name="Trazado 1176088" d="M162.443,323.216a13.775,13.775,0,0,1-3.033,8.794,9.743,9.743,0,0,1-7.393,3.627l-11.086.015a9.739,9.739,0,0,0,7.393-3.627,13.764,13.764,0,0,0,3.033-8.793c-.008-6.839-4.68-12.4-10.46-12.391l11.086-.015c5.78-.008,10.45,5.552,10.46,12.39" transform="translate(564.91 8719.994)" fill="#263238"/>
      <path id="Trazado_1176089" data-name="Trazado 1176089" d="M197.121,360.93l-110.554.153-.04-29.684,110.553-.152a11.935,11.935,0,0,1,11.953,11.919l.008,5.81a11.937,11.937,0,0,1-11.92,11.953" transform="translate(553.328 8724.344)" fill="#263238"/>
      <path id="Trazado_1176090" data-name="Trazado 1176090" d="M139.991,360.995l-53.422.074-.041-29.684,53.422-.073A11.935,11.935,0,0,1,151.9,343.231l.008,5.81a11.937,11.937,0,0,1-11.92,11.953" transform="translate(553.328 8724.358)" fill="#38474f"/>
      <path id="Trazado_1176091" data-name="Trazado 1176091" d="M139.288,355.468l-52.753.073-.028-20.28,52.753-.073a8.155,8.155,0,0,1,8.166,8.144l.006,3.97a8.155,8.155,0,0,1-8.144,8.166" transform="translate(553.324 8725.184)" fill="#ebebeb"/>
      <path id="Trazado_1176092" data-name="Trazado 1176092" d="M143.522,340.182a22.732,22.732,0,0,0-4.8-.631c-1.773-.073-3.548-.112-5.315-.326a102.074,102.074,0,0,0-10.924-.463c-3.54-.049-21.3-.131-24.836.018-3.41.144-7.173-.189-10.453,1.237a.789.789,0,0,0,0,1.3c3.2,1.383,6.837,1.048,10.161,1.194,3.637.16,21.493.024,25.131-.035a99.38,99.38,0,0,0,10.628-.457c1.77-.22,3.538-.281,5.314-.364.886-.04,1.771-.052,2.657-.078a11.1,11.1,0,0,0,2.437-.58c.289-.073.287-.746,0-.818" transform="translate(553.397 8725.931)" fill="#dbdbdb"/>
      <path id="Trazado_1176093" data-name="Trazado 1176093" d="M145.864,346.256c-1.454-.933-3.235-.831-4.807-.855q-2.82-.046-5.641-.052l-11.281-.027c-3.661-.008-21.53.044-25.191.078s-7.613-.422-11.224.518c-.919.239-.917,2.37,0,2.607,3.519.906,7.361.461,10.928.484,3.76.024,21.728.03,25.488.011l10.984-.056q2.82-.015,5.641-.064c1.663-.03,3.564.118,5.1-.873a1.27,1.27,0,0,0,0-1.77" transform="translate(553.436 8727.342)" fill="#dbdbdb"/>
      <path id="Trazado_1176094" data-name="Trazado 1176094" d="M175.776,356.621c-1.9,2.659-4.514,4.329-7.392,4.334l5.161-.007c2.878,0,5.494-1.675,7.392-4.334a18.651,18.651,0,0,0,3.031-10.517c-.012-8.194-4.683-14.857-10.463-14.85l-5.163.007c5.781-.007,10.453,6.656,10.463,14.85a18.653,18.653,0,0,1-3.03,10.517" transform="translate(570.756 8724.344)" fill="#38474f"/>
      <path id="Trazado_1176095" data-name="Trazado 1176095" d="M145.007,356.663c-1.9,2.659-4.514,4.329-7.392,4.334l5.161-.007c2.878,0,5.494-1.675,7.392-4.334a18.653,18.653,0,0,0,3.031-10.517c-.012-8.194-4.683-14.857-10.463-14.85l-5.163.007c5.781-.007,10.453,6.655,10.463,14.85a18.653,18.653,0,0,1-3.03,10.517" transform="translate(564.202 8724.354)" fill="#38474f"/>
      <path id="Trazado_1176096" data-name="Trazado 1176096" d="M186.739,16.03a40.941,40.941,0,1,0-8.2,64.433l20.8,5.728-5.9-20.753a40.953,40.953,0,0,0-6.7-49.407" transform="translate(559.813 8654.669)" fill="#fff"/>
      <path id="Trazado_1176097" data-name="Trazado 1176097" d="M186.739,16.03a40.941,40.941,0,1,0-8.2,64.433l20.8,5.728-5.9-20.753A40.953,40.953,0,0,0,186.739,16.03Z" transform="translate(559.813 8654.669)" fill="none" stroke="#dbdbdb" stroke-miterlimit="10" stroke-width="1"/>
      <path id="Trazado_1176098" data-name="Trazado 1176098" d="M154.819,16.469a20.842,20.842,0,0,0-5.746-1.6,5.335,5.335,0,0,1-10.313,1.251,20.861,20.861,0,0,0-5.2,2.923,5.346,5.346,0,0,1-6.419,8.193,20.879,20.879,0,0,0-1.6,5.745A5.336,5.336,0,0,1,126.8,43.3a20.882,20.882,0,0,0,2.923,5.2,5.346,5.346,0,0,1,8.191,6.419,20.842,20.842,0,0,0,5.746,1.6,5.336,5.336,0,0,1,10.314-1.251,20.849,20.849,0,0,0,5.2-2.925,5.346,5.346,0,0,1,6.419-8.191,20.843,20.843,0,0,0,1.6-5.746,5.335,5.335,0,0,1-1.251-10.313,20.865,20.865,0,0,0-2.925-5.2,5.346,5.346,0,0,1-8.191-6.419M151.8,39.951a6.9,6.9,0,1,1-1.175-9.693,6.9,6.9,0,0,1,1.175,9.693" transform="translate(561.64 8656.951)" fill="#38474f"/>
      <path id="Trazado_1176099" data-name="Trazado 1176099" d="M180.09,53.5a14.08,14.08,0,0,0-.106-4.018,3.6,3.6,0,0,1-2.841-6.4,14.107,14.107,0,0,0-2.91-2.772,3.6,3.6,0,0,1-6.544-2.519,14.08,14.08,0,0,0-4.018.106,3.6,3.6,0,0,1-6.4,2.841,14.107,14.107,0,0,0-2.772,2.91,3.6,3.6,0,0,1-2.519,6.544,14.079,14.079,0,0,0,.106,4.018,3.595,3.595,0,0,1,2.841,6.4,14.082,14.082,0,0,0,2.91,2.773,3.6,3.6,0,0,1,6.544,2.518,14.036,14.036,0,0,0,4.018-.1,3.6,3.6,0,0,1,6.4-2.841,14.107,14.107,0,0,0,2.772-2.91A3.6,3.6,0,0,1,180.09,53.5m-15.726,2.688a4.652,4.652,0,1,1,6.013-2.67,4.652,4.652,0,0,1-6.013,2.67" transform="translate(567.25 8661.813)" fill="#a6cce4"/>
      <line id="Línea_3653" data-name="Línea 3653" y1="0.705" x2="511.765" transform="translate(534.897 9084.725)" fill="none" stroke="#263238" stroke-miterlimit="10" stroke-width="1"/>
      <path id="Trazado_1176100" data-name="Trazado 1176100" d="M36.162,109.354c-4.653,0-4.656,7.221,0,7.221s4.656-7.221,0-7.221" transform="translate(541.856 8677.077)" fill="#f4f4f4"/>
      <path id="Trazado_1176101" data-name="Trazado 1176101" d="M213.948,0c-4.654,0-4.657,7.221,0,7.221S218.6,0,213.948,0" transform="translate(579.727 8653.783)" fill="#f4f4f4"/>
      <path id="Trazado_1176102" data-name="Trazado 1176102" d="M376.587,74.455c-4.653,0-4.656,7.221,0,7.221s4.656-7.221,0-7.221" transform="translate(614.372 8669.644)" fill="#f4f4f4"/>
      <path id="Trazado_1176103" data-name="Trazado 1176103" d="M382.709,223.85c-4.653,0-4.656,7.221,0,7.221s4.656-7.221,0-7.221" transform="translate(615.676 8701.467)" fill="#f4f4f4"/>
      <path id="Trazado_1176104" data-name="Trazado 1176104" d="M61.265,267.933c-4.653,0-4.656,7.221,0,7.221s4.656-7.221,0-7.221" transform="translate(547.203 8710.857)" fill="#f4f4f4"/>
      <path id="Trazado_1176105" data-name="Trazado 1176105" d="M269.439,30.983c-4.653,0-4.656,7.221,0,7.221s4.656-7.221,0-7.221" transform="translate(591.548 8660.383)" fill="#fff"/>
      <path id="Trazado_1176106" data-name="Trazado 1176106" d="M147.6,152.826c-4.653,0-4.656,7.221,0,7.221s4.656-7.221,0-7.221" transform="translate(565.593 8686.338)" fill="#fff"/>
      <path id="Trazado_1176107" data-name="Trazado 1176107" d="M146.984,79.353c-4.653,0-4.656,7.221,0,7.221s4.656-7.221,0-7.221" transform="translate(565.463 8670.687)" fill="#fff"/>
      <path id="Trazado_1176108" data-name="Trazado 1176108" d="M102.157,252.928c-4.653,0-4.656,7.221,0,7.221s4.656-7.221,0-7.221" transform="translate(555.914 8707.661)" fill="#fff"/>
      <path id="Trazado_1176109" data-name="Trazado 1176109" d="M86.12,168.188c-4.653,0-4.656,7.221,0,7.221s4.656-7.221,0-7.221" transform="translate(552.498 8689.61)" fill="#fff"/>
      <path id="Trazado_1176110" data-name="Trazado 1176110" d="M188.006,261.811c-4.653,0-4.656,7.221,0,7.221s4.656-7.221,0-7.221" transform="translate(574.201 8709.553)" fill="#fff"/>
      <path id="Trazado_1176111" data-name="Trazado 1176111" d="M329.441,199.359c-4.653,0-4.656,7.221,0,7.221s4.656-7.221,0-7.221" transform="translate(604.329 8696.25)" fill="#fff"/>
      <path id="Trazado_1176112" data-name="Trazado 1176112" d="M289.644,98.333c-4.653,0-4.656,7.221,0,7.221s4.656-7.221,0-7.221" transform="translate(595.852 8674.729)" fill="#fff"/>
      <path id="Trazado_1176113" data-name="Trazado 1176113" d="M347.81,89.149c-4.653,0-4.656,7.221,0,7.221s4.656-7.221,0-7.221" transform="translate(608.242 8672.773)" fill="#fff"/>
      <path id="Trazado_1176114" data-name="Trazado 1176114" d="M329.441,247.116c-4.653,0-4.656,7.221,0,7.221s4.656-7.221,0-7.221" transform="translate(604.329 8706.423)" fill="#fff"/>
    </g>
  </g>
</svg>
