<svg xmlns="http://www.w3.org/2000/svg" xmlns:xlink="http://www.w3.org/1999/xlink" width="108" height="108" viewBox="0 0 108 108">
  <defs>
    <filter id="Trazado_904820" x="0" y="0" width="108" height="108" filterUnits="userSpaceOnUse">
      <feOffset dy="3" input="SourceAlpha"/>
      <feGaussianBlur stdDeviation="3" result="blur"/>
      <feFlood flood-opacity="0.161"/>
      <feComposite operator="in" in2="blur"/>
      <feComposite in="SourceGraphic"/>
    </filter>
  </defs>
  <g id="Grupo_1230702" data-name="Grupo 1230702" transform="translate(-620 -1592)">
    <g id="Grupo_1230501" data-name="Grupo 1230501" transform="translate(629 1598)">
      <g id="Grupo_1173585" data-name="Grupo 1173585" transform="translate(0 0)">
        <g id="Grupo_1173428" data-name="Grupo 1173428">
          <g id="Grupo_1171958" data-name="Grupo 1171958">
            <g id="Grupo_1167341" data-name="Grupo 1167341">
              <g id="Grupo_1166792" data-name="Grupo 1166792">
                <g transform="matrix(1, 0, 0, 1, -9, -6)" filter="url(#Trazado_904820)">
                  <g id="Trazado_904820-2" data-name="Trazado 904820" transform="translate(9 6)" fill="#e8e7f2">
                    <path d="M 44.99999618530273 88.50002288818359 C 39.12687301635742 88.50002288818359 33.43022155761719 87.35009765625 28.06829643249512 85.08218383789062 C 22.88852119445801 82.89133453369141 18.23629570007324 79.75460815429688 14.24084663391113 75.75916290283203 C 10.24540901184082 71.76371002197266 7.108683586120605 67.11148834228516 4.917821407318115 61.93171310424805 C 2.649921178817749 56.56978607177734 1.499996185302734 50.87313461303711 1.499996185302734 45.0000114440918 C 1.499996185302734 39.12688827514648 2.649921178817749 33.43023681640625 4.917821407318115 28.06829833984375 C 7.108683586120605 22.88852310180664 10.24540901184082 18.2363109588623 14.24084663391113 14.2408618927002 C 18.23629570007324 10.24541187286377 22.88852119445801 7.108686447143555 28.06829643249512 4.917823791503906 C 33.43022155761719 2.649924039840698 39.12687301635742 1.499998927116394 44.99999618530273 1.499998927116394 C 50.87311935424805 1.499998927116394 56.56977081298828 2.649924039840698 61.93169784545898 4.917823791503906 C 67.11147308349609 7.108686447143555 71.76369476318359 10.24541187286377 75.75914764404297 14.2408618927002 C 79.75458526611328 18.2363109588623 82.89131164550781 22.88852310180664 85.08216857910156 28.06829833984375 C 87.35007476806641 33.43023681640625 88.5 39.12688827514648 88.5 45.0000114440918 C 88.5 50.87313461303711 87.35007476806641 56.56978607177734 85.08216857910156 61.93171310424805 C 82.89131164550781 67.11148834228516 79.75458526611328 71.76371002197266 75.75914764404297 75.75916290283203 C 71.76369476318359 79.75460815429688 67.11147308349609 82.89133453369141 61.93169784545898 85.08218383789062 C 56.56977081298828 87.35009765625 50.87311935424805 88.50002288818359 44.99999618530273 88.50002288818359 Z" stroke="none"/>
                    <path d="M 44.99999618530273 3 C 39.32870864868164 3 33.82865142822266 4.110054016113281 28.65262603759766 6.299339294433594 C 23.65165710449219 8.414566040039062 19.15968322753906 11.44333648681641 15.301513671875 15.30152893066406 C 11.44333648681641 19.15969848632812 8.414566040039062 23.65165710449219 6.299339294433594 28.65264129638672 C 4.110054016113281 33.82866668701172 2.999992370605469 39.3287239074707 2.999992370605469 45.0000114440918 C 2.999992370605469 50.67129898071289 4.110054016113281 56.17135620117188 6.299339294433594 61.34738159179688 C 8.414566040039062 66.34836578369141 11.44333648681641 70.84032440185547 15.301513671875 74.69849395751953 C 19.15968322753906 78.55668640136719 23.65165710449219 81.58545684814453 28.65262603759766 83.70068359375 C 33.82865142822266 85.88996887207031 39.32870864868164 87.00002288818359 44.99999618530273 87.00002288818359 C 50.67128372192383 87.00002288818359 56.17134094238281 85.88996887207031 61.34736633300781 83.70068359375 C 66.34834289550781 81.58545684814453 70.84030914306641 78.55668640136719 74.69847869873047 74.69849395751953 C 78.55665588378906 70.84032440185547 81.58542633056641 66.34836578369141 83.70065307617188 61.34738159179688 C 85.88993835449219 56.17135620117188 87 50.67129898071289 87 45.0000114440918 C 87 39.3287239074707 85.88993835449219 33.82866668701172 83.70065307617188 28.65264129638672 C 81.58542633056641 23.65165710449219 78.55665588378906 19.15969848632812 74.69847869873047 15.30152893066406 C 70.84030914306641 11.44333648681641 66.34834289550781 8.414566040039062 61.34736633300781 6.299339294433594 C 56.17134094238281 4.110054016113281 50.67128372192383 3 44.99999618530273 3 M 44.99999618530273 0 C 69.85281372070312 0 90 20.14719390869141 90 45.0000114440918 C 90 69.85282897949219 69.85281372070312 90.00002288818359 44.99999618530273 90.00002288818359 C 20.14717864990234 90.00002288818359 -7.62939453125e-06 69.85282897949219 -7.62939453125e-06 45.0000114440918 C -7.62939453125e-06 20.14719390869141 20.14717864990234 0 44.99999618530273 0 Z" stroke="none" fill="#292584"/>
                  </g>
                </g>
              </g>
            </g>
          </g>
        </g>
      </g>
    </g>
    <g id="objective_6078781_1_" data-name="objective_6078781 (1)" transform="translate(646.314 1615.315)">
      <path id="Trazado_1176166" data-name="Trazado 1176166" d="M2,2H39.875V53.648H2Z" transform="translate(-0.139 -0.139)" fill="#e2e7f6"/>
      <path id="Trazado_1176167" data-name="Trazado 1176167" d="M2,2V50.2H33.85a2.582,2.582,0,0,0,2.582-2.582V2Z" transform="translate(-0.139 -0.139)" fill="#f2f2f2"/>
      <path id="Trazado_1176168" data-name="Trazado 1176168" d="M6,48h6.886v6.886H6Z" transform="translate(-0.696 -6.542)" fill="#4d8c28"/>
      <path id="Trazado_1176169" data-name="Trazado 1176169" d="M6,6H36.989V28.381H6Z" transform="translate(-0.696 -0.696)" fill="#78a0d4"/>
      <path id="Trazado_1176170" data-name="Trazado 1176170" d="M6,6V24.077H30.963a2.582,2.582,0,0,0,2.582-2.582V6Z" transform="translate(-0.696 -0.696)" fill="#93bee5"/>
      <path id="Trazado_1176171" data-name="Trazado 1176171" d="M49,52.722l5.165,7.747H60.19L53.3,51" transform="translate(-6.682 -6.96)" fill="#4c6cb5"/>
      <path id="Trazado_1176172" data-name="Trazado 1176172" d="M54.918,56.259,51.9,51.725,53.708,51l4.382,6.026H56.35a1.721,1.721,0,0,1-1.432-.767Z" transform="translate(-7.085 -6.96)" fill="#5e87ca"/>
      <path id="Trazado_1176173" data-name="Trazado 1176173" d="M41.19,52.722l-5.165,7.747H30L36.886,51" transform="translate(-4.037 -6.96)" fill="#4c6cb5"/>
      <path id="Trazado_1176174" data-name="Trazado 1176174" d="M36.081,56.259,39.1,51.725,37.291,51l-4.382,6.026h1.74a1.721,1.721,0,0,0,1.432-.767Z" transform="translate(-4.442 -6.96)" fill="#5e87ca"/>
      <circle id="Elipse_14634" data-name="Elipse 14634" cx="14" cy="14" r="14" transform="translate(25.686 18.685)" fill="#f9d266"/>
      <ellipse id="Elipse_14635" data-name="Elipse 14635" cx="9" cy="9.5" rx="9" ry="9.5" transform="translate(30.686 23.685)" fill="#f4a93c"/>
      <ellipse id="Elipse_14636" data-name="Elipse 14636" cx="5" cy="5.5" rx="5" ry="5.5" transform="translate(34.686 27.685)" fill="#b52f28"/>
      <path id="Trazado_1176175" data-name="Trazado 1176175" d="M40,37.165a5.16,5.16,0,0,0,2.288,4.289c.1.005.195.015.294.015a5.165,5.165,0,0,0,2.877-9.454c-.1-.005-.195-.015-.294-.015A5.165,5.165,0,0,0,40,37.165Z" transform="translate(-5.429 -4.315)" fill="#d23f34"/>
      <path id="Trazado_1176176" data-name="Trazado 1176176" d="M45.026,37.026,39,34.443,42.443,31Z" transform="translate(-5.29 -4.176)" fill="#f2f2f2"/>
      <path id="Trazado_1176177" data-name="Trazado 1176177" d="M0,0H1.722V13.281H0Z" transform="translate(25.428 19.765) rotate(-45)" fill="#686868"/>
      <path id="Trazado_1176178" data-name="Trazado 1176178" d="M30.469,22.469V17.3l-4.3-4.3v5.165H21l4.3,4.3Z" transform="translate(-2.784 -1.67)" fill="#3b5892"/>
      <path id="Trazado_1176179" data-name="Trazado 1176179" d="M6,36h6.886v6.886H6Z" transform="translate(-0.696 -4.872)" fill="#4d8c28"/>
      <path id="Trazado_1176180" data-name="Trazado 1176180" d="M6,36h5.165v5.165H6Z" transform="translate(-0.696 -4.872)" fill="#559b2d"/>
      <path id="Trazado_1176181" data-name="Trazado 1176181" d="M6,48h5.165v5.165H6Z" transform="translate(-0.696 -6.542)" fill="#559b2d"/>
      <path id="Trazado_1176182" data-name="Trazado 1176182" d="M10.623,40.927a.861.861,0,0,1-.608-.252L8.293,38.953,9.51,37.736l1.113,1.113,4.556-4.556L16.4,35.51l-5.165,5.165a.861.861,0,0,1-.609.252Z" transform="translate(-1.015 -4.634)" fill="#474747"/>
      <path id="Trazado_1176183" data-name="Trazado 1176183" d="M10.623,52.927a.861.861,0,0,1-.608-.252L8.293,50.953,9.51,49.736l1.113,1.113,4.556-4.556L16.4,47.51l-5.165,5.165a.861.861,0,0,1-.609.252Z" transform="translate(-1.015 -6.305)" fill="#474747"/>
      <g id="Grupo_1230701" data-name="Grupo 1230701" transform="translate(14.773 32.85)">
        <path id="Trazado_1176184" data-name="Trazado 1176184" d="M17,42h8.608v1.722H17Z" transform="translate(-17 -38.557)" fill="#c8cded"/>
        <path id="Trazado_1176185" data-name="Trazado 1176185" d="M17,38h8.608v1.722H17Z" transform="translate(-17 -38)" fill="#c8cded"/>
        <path id="Trazado_1176186" data-name="Trazado 1176186" d="M17,54h8.608v1.722H17Z" transform="translate(-17 -40.227)" fill="#c8cded"/>
        <path id="Trazado_1176187" data-name="Trazado 1176187" d="M17,50h8.608v1.722H17Z" transform="translate(-17 -39.67)" fill="#c8cded"/>
      </g>
      <path id="Trazado_1176188" data-name="Trazado 1176188" d="M48.209,44.759A14.606,14.606,0,0,0,40.6,18.26V1.861A.861.861,0,0,0,39.736,1H1.861A.861.861,0,0,0,1,1.861V53.509a.861.861,0,0,0,.861.861H39.736a.861.861,0,0,0,.861-.861v-6.07a14.349,14.349,0,0,0,1.678-.192l4.493,6.739a.861.861,0,0,0,.716.383h6.026a.861.861,0,0,0,.7-1.367ZM52.648,32.85a12.923,12.923,0,0,1-9.594,12.464l-.02-.029-.086.056a12.457,12.457,0,0,1-6.428,0l-.086-.056-.02.029a12.875,12.875,0,0,1-6.387-20.952l1.825,1.825a10.353,10.353,0,1,0,1.217-1.217l-1.825-1.825a12.892,12.892,0,0,1,21.4,9.706ZM35.408,46.829l-3.88,5.819H27.655l5.064-6.963a14.506,14.506,0,0,0,2.689,1.144Zm.024-27.965a14.611,14.611,0,0,0-5.4,3.063l-1.485-1.485V15.634a.861.861,0,0,0-.252-.608l-4.3-4.3a.861.861,0,0,0-1.469.609v4.3h-4.3a.861.861,0,0,0-.609,1.469l4.3,4.3a.861.861,0,0,0,.609.252h4.808l1.485,1.485a14.677,14.677,0,0,0-2.4,3.68H6.165V6.165H35.432ZM26.824,15.99v3.948H22.876l-2.582-2.582h3.087a.861.861,0,0,0,.861-.861V13.408Zm7.391,12.556L33.1,29.659a.861.861,0,0,0,.269,1.4l.549.236a6.051,6.051,0,1,0,4.26-4.26l-.236-.549a.861.861,0,0,0-1.4-.269l-1.113,1.113-1.14-1.14a8.622,8.622,0,1,1-1.217,1.217Zm1.3,3.434,3.874,1.661a.851.851,0,0,0,.344.07.861.861,0,0,0,.791-1.2l-1.661-3.874a4.3,4.3,0,1,1-3.348,3.342Zm2.582-.765-2.879-1.234,1.646-1.646ZM2.722,2.722H38.875V18.26a14.507,14.507,0,0,0-1.722.2V5.3a.861.861,0,0,0-.861-.861H5.3a.861.861,0,0,0-.861.861V27.685a.861.861,0,0,0,.861.861H25.751A14.6,14.6,0,0,0,31.26,44.759l-5.735,7.889H2.722ZM33.6,52.648l3.6-5.4a14.348,14.348,0,0,0,1.678.192v5.209Zm14.347,0-3.88-5.819a14.531,14.531,0,0,0,2.69-1.144l5.064,6.963Z"/>
      <path id="Trazado_1176189" data-name="Trazado 1176189" d="M5.861,43.51h6.886a.861.861,0,0,0,.861-.861V37.84l2.33-2.33-1.217-1.217-1.173,1.173a.855.855,0,0,0-.8-.565H5.861A.861.861,0,0,0,5,35.762v6.886a.861.861,0,0,0,.861.861Zm.861-6.886h5.165v.5l-1.722,1.722L9.052,37.736,7.835,38.953l1.722,1.722a.861.861,0,0,0,1.217,0l1.113-1.113v2.226H6.722Z" transform="translate(-0.557 -4.634)"/>
      <path id="Trazado_1176190" data-name="Trazado 1176190" d="M15.938,47.51l-1.217-1.217-1.173,1.173a.855.855,0,0,0-.8-.565H5.861A.861.861,0,0,0,5,47.762v6.886a.861.861,0,0,0,.861.861h6.886a.861.861,0,0,0,.861-.861V49.84Zm-4.052,6.278H6.722V48.623h5.165v.5l-1.722,1.722L9.052,49.736,7.835,50.953l1.722,1.722a.861.861,0,0,0,1.217,0l1.113-1.113Z" transform="translate(-0.557 -6.305)"/>
      <path id="Trazado_1176191" data-name="Trazado 1176191" d="M17,42h8.608v1.722H17Z" transform="translate(-2.227 -5.707)"/>
      <path id="Trazado_1176192" data-name="Trazado 1176192" d="M17,38h8.608v1.722H17Z" transform="translate(-2.227 -5.15)"/>
      <path id="Trazado_1176193" data-name="Trazado 1176193" d="M17,54h8.608v1.722H17Z" transform="translate(-2.227 -7.378)"/>
      <path id="Trazado_1176194" data-name="Trazado 1176194" d="M17,50h8.608v1.722H17Z" transform="translate(-2.227 -6.821)"/>
    </g>
  </g>
</svg>
